<svg xmlns="http://www.w3.org/2000/svg" width="37" height="37" viewBox="0 0 37 37">
    <defs>
        <clipPath id="clip-path">
            <circle id="타원_268" cx="18.5" cy="18.5" r="18.5" fill="#fff" stroke="#707070" transform="translate(.065)"/>
        </clipPath>
        <style>
            .cls-3{fill:#fff}
        </style>
    </defs>
    <g id="blog_logo" clip-path="url(#clip-path)" transform="translate(-.065)">
        <g id="blog_logo-2">
            <g id="그룹_327">
                <g id="그룹_331">
                    <path id="사각형_387" d="M0 0H37V37H0z" transform="translate(.065)"/>
                    <g id="그룹_328" transform="translate(5.841 7.858)">
                        <path id="패스_577" d="M34.227-43.555a4.02 4.02 0 0 1-4.013 4.027H12.832a4.02 4.02 0 0 1-4.013-4.027v-9.554a4.02 4.02 0 0 1 4.013-4.027h17.381a4.02 4.02 0 0 1 4.013 4.027z" class="cls-3" transform="translate(-8.819 57.136)"/>
                        <path id="패스_578" d="M29.535-31.7l-2.583-.162v-.066l-.542.029-.547-.034v.066l-2.583.162 2.466 4.015a.782.782 0 0 0 .066.095.685.685 0 0 0 .935.253.689.689 0 0 0 .25-.249.5.5 0 0 0 .066-.1z" class="cls-3" transform="translate(-13.702 48.626)"/>
                    </g>
                    <g id="그룹_329" transform="translate(8.605 12.859)">
                        <path id="패스_579" d="M15.871-47.512a2.068 2.068 0 0 0-1.325.613v-2.466h-1.553v6.481h1.572v-.507a1.491 1.491 0 0 0 1.306.67 2.292 2.292 0 0 0 2.194-2.386v-.032s-.079-2.373-2.194-2.373zm-.342 3.421a1 1 0 0 1-1-1 1 1 0 0 1 1-1 1 1 0 0 1 1 1 1 1 0 0 1-1 1z" transform="translate(-12.993 49.511)"/>
                        <path id="패스_580" d="M21.4-49.585v1.5s.71-.032.71 1.29v3.836h1.5v-4.191s.066-2.435-2.21-2.435z" transform="translate(-15.833 49.585)"/>
                        <path id="패스_581" d="M28.963-46.536s-2.57 0-2.57 2.4a2.323 2.323 0 0 0 2.263 2.381 2.261 2.261 0 0 0 .307-.013s2.629 0 2.629-2.368a2.362 2.362 0 0 0-2.629-2.4zm0 3.4a1 1 0 0 1-1-1 1 1 0 0 1 1-1 1 1 0 0 1 1 1 1 1 0 0 1-1 1z" transform="translate(-17.518 48.555)"/>
                        <path id="패스_582" d="M38.93-46.38v.435a1.7 1.7 0 0 0-1.305-.592 2.145 2.145 0 0 0-2.213 2.074 2.108 2.108 0 0 0 .013.31s-.025 2.307 2.14 2.307a1.779 1.779 0 0 0 1.366-.6v.364a.989.989 0 0 1-.83 1.125.966.966 0 0 1-.164.011h-.375v1.378h.6a2.259 2.259 0 0 0 2.28-2.237c0-.064 0-.128-.007-.193v-4.382zM38-43.134a1 1 0 0 1-1-1 1 1 0 0 1 1-1 1 1 0 0 1 1 1 1 1 0 0 1-1 1z" transform="translate(-20.563 48.556)"/>
                    </g>
                </g>
            </g>
        </g>
    </g>
</svg>
