<svg xmlns="http://www.w3.org/2000/svg" width="37" height="37" viewBox="0 0 37 37">
    <defs>
        <clipPath id="clip-path">
            <circle id="타원_269" cx="18.5" cy="18.5" r="18.5" fill="#fff" stroke="#707070" transform="translate(.131)"/>
        </clipPath>
        <style>
            .cls-3{fill:#fff}
        </style>
    </defs>
    <g id="instagram_logo" clip-path="url(#clip-path)" transform="translate(-.131)">
        <g id="그룹_344">
            <path id="사각형_394" d="M0 0H37V37H0z" transform="translate(.131)"/>
            <g id="그룹_340" transform="translate(7.491 7.44)">
                <path id="패스_584" d="M27.033 11.234h-9.389a6.41 6.41 0 0 0-6.41 6.41v9.388a6.41 6.41 0 0 0 6.41 6.41h9.388a6.411 6.411 0 0 0 6.41-6.41v-9.388a6.411 6.411 0 0 0-6.409-6.41zM31.4 27.2a4.256 4.256 0 0 1-4.255 4.255h-9.61a4.256 4.256 0 0 1-4.256-4.255v-9.6a4.256 4.256 0 0 1 4.255-4.255h9.607a4.256 4.256 0 0 1 4.259 4.247z" class="cls-3" transform="translate(-11.234 -11.234)"/>
                <path id="패스_585" d="M25.062 19.383a5.762 5.762 0 1 0 5.762 5.762 5.762 5.762 0 0 0-5.762-5.762zm0 9.5a3.735 3.735 0 1 1 3.738-3.737 3.735 3.735 0 0 1-3.738 3.735z" class="cls-3" transform="translate(-13.958 -13.986)"/>
                <circle id="타원_265" cx="1.343" cy="1.343" r="1.343" class="cls-3" transform="translate(15.717 3.835)"/>
            </g>
        </g>
    </g>
</svg>
