<svg id="레이어_1" data-name="레이어 1" xmlns="http://www.w3.org/2000/svg" viewBox="0 0 596 528"><defs><style>.cls-1,.cls-3{fill:#fff;}.cls-2{fill:#bde8ff;}.cls-11,.cls-3,.cls-7{stroke:#00a5fd;}.cls-3,.cls-6,.cls-7{stroke-linecap:round;}.cls-10,.cls-11,.cls-3,.cls-6,.cls-7{stroke-miterlimit:10;stroke-width:2px;}.cls-4,.cls-5,.cls-8{fill:#00d000;}.cls-4{opacity:0.25;}.cls-5{opacity:0.26;}.cls-10,.cls-11,.cls-6,.cls-7{fill:none;}.cls-6{stroke:#00d000;}.cls-8{opacity:0.27;}.cls-9{fill:#00a5fd;}.cls-10{stroke:#fff;}</style></defs><rect class="cls-1" width="596" height="528"/><rect class="cls-2" x="67.15" y="91.1" width="334.43" height="52.17" rx="26.09"/><rect class="cls-2" x="48.57" y="141.1" width="453" height="52.17" rx="26.09"/><rect class="cls-2" x="89.57" y="190.1" width="340.02" height="52.17" rx="26.09"/><rect class="cls-2" x="177.57" y="242.1" width="374" height="52.17" rx="26.09"/><rect class="cls-2" x="60.36" y="294.1" width="436.21" height="52.17" rx="26.09"/><rect class="cls-2" x="78.6" y="346.1" width="293.98" height="52.17" rx="26.09"/><rect class="cls-3" x="97.07" y="120.12" width="97" height="60" rx="13.18"/><rect class="cls-3" x="229.07" y="191.12" width="137" height="106" rx="15"/><circle class="cls-4" cx="248.07" cy="364.12" r="29"/><circle class="cls-5" cx="303.07" cy="138.12" r="29"/><circle class="cls-6" cx="313.07" cy="128.12" r="29"/><path class="cls-4" d="M139.87,271.07,115,314.17a10.63,10.63,0,0,0,9.21,15.95H174a10.64,10.64,0,0,0,9.21-15.95l-24.89-43.1A10.63,10.63,0,0,0,139.87,271.07Z"/><rect class="cls-3" x="410.07" y="263.12" width="64" height="57" rx="13.18"/><path class="cls-7" d="M366.07,244.12h11.07a16.46,16.46,0,0,1,16.47,16.46v.89a16.47,16.47,0,0,0,16.46,16.47h0"/><path class="cls-8" d="M430.3,128.88l-24.46,17.78a6.47,6.47,0,0,0-2.35,7.24l9.34,28.76a6.49,6.49,0,0,0,6.16,4.48h30.24a6.47,6.47,0,0,0,6.16-4.48l9.35-28.76a6.46,6.46,0,0,0-2.36-7.24l-24.46-17.78A6.48,6.48,0,0,0,430.3,128.88Z"/><path class="cls-6" d="M430.3,119.88l-24.46,17.78a6.47,6.47,0,0,0-2.35,7.24l9.34,28.76a6.49,6.49,0,0,0,6.16,4.48h30.24a6.47,6.47,0,0,0,6.16-4.48l9.35-28.76a6.46,6.46,0,0,0-2.36-7.24l-24.46-17.78A6.48,6.48,0,0,0,430.3,119.88Z"/><path class="cls-7" d="M145.57,180.12h0a65.63,65.63,0,0,0,65.64,65.63h17.86"/><rect class="cls-2" x="427.07" y="276.62" width="29.5" height="29.5" rx="14.75"/><rect class="cls-2" x="265.07" y="218.62" width="65.5" height="53.5" rx="26.75"/><rect class="cls-2" x="117.07" y="133.62" width="57.5" height="33.5" rx="16.75"/><circle class="cls-6" cx="260.07" cy="352.12" r="29"/><path class="cls-6" d="M151.87,259.07,127,302.17a10.63,10.63,0,0,0,9.21,15.95H186a10.64,10.64,0,0,0,9.21-15.95l-24.89-43.1A10.63,10.63,0,0,0,151.87,259.07Z"/><path id="Game_Device" data-name="Game Device" class="cls-9" d="M452.83,280.32h-22.3a11.75,11.75,0,0,0,0,23.49h22.3a11.75,11.75,0,0,0,0-23.49Zm-25.32,12.84h-1.75v1.76a1.1,1.1,0,1,1-2.2,0v-1.76h-1.75a1.1,1.1,0,1,1,0-2.19h1.75v-1.76a1.1,1.1,0,0,1,2.2,0V291h1.75a1.1,1.1,0,1,1,0,2.19Zm25.32,7.36a1.09,1.09,0,0,1-1.1,1.09h-20.1a1.09,1.09,0,0,1-1.1-1.09V283.61a1.1,1.1,0,0,1,1.1-1.1h20.1a1.1,1.1,0,0,1,1.1,1.1Zm3.57-7.36a1.1,1.1,0,1,1,1.09-1.1A1.1,1.1,0,0,1,456.4,293.16Zm2.3,2.31a1.1,1.1,0,1,1,1.1-1.1A1.1,1.1,0,0,1,458.7,295.47Zm0-4.61a1.1,1.1,0,1,1,0-2.2,1.1,1.1,0,1,1,0,2.2Zm2.31,2.3a1.1,1.1,0,1,1,1.09-1.1A1.1,1.1,0,0,1,461,293.16Z"/><path class="cls-9" d="M166.6,160.35l5.86-5.85-5.86-5.85,1-.94a4.19,4.19,0,1,0-5.92-5.92l-.94.94-5.85-5.85-1.73,1.73v2.73a6.94,6.94,0,0,1,0,13.5v8.47h-5.06l-1,1,7.8,7.8,5.85-5.85.81.81a4.19,4.19,0,0,0,5.92-5.92Z"/><path class="cls-9" d="M150.35,160.55v-8.28h1.15a4.18,4.18,0,1,0,0-8.36h-1.15v-8.28h-8.27V134.3a4.19,4.19,0,0,0-8.37,0v1.33h-8.27v8.28h1.15a4.19,4.19,0,0,1,4.1,3.35,1.45,1.45,0,0,1,0,1.66,4.19,4.19,0,0,1-4.1,3.35h-1.15v8.28h8.27v-1.33a4.19,4.19,0,1,1,8.37,0v1.33Z"/><path class="cls-9" d="M328.07,233.89C322.25,222,316,221.14,310.2,224a12,12,0,0,0-4.37,3.41H290.29a12.06,12.06,0,0,0-4.38-3.41c-5.81-2.84-12.05-2-17.87,9.91s-9,30.4-3.22,33.24c4,2,11.36-4.13,17.41-12h31.65c6.05,7.91,13.37,14,17.41,12C337.1,264.29,333.9,245.81,328.07,233.89Zm-39.21,7.45a.88.88,0,0,1-.89.87h-4.26v4.37a.88.88,0,0,1-.89.87h-3a.88.88,0,0,1-.89-.87v-4.37h-4.26a.88.88,0,0,1-.89-.87v-3a.88.88,0,0,1,.89-.87h4.26v-4.37a.88.88,0,0,1,.89-.88h3a.88.88,0,0,1,.89.88v4.37H288a.88.88,0,0,1,.89.87v3Zm27.58-7.45a2.72,2.72,0,1,1-2.72-2.72A2.72,2.72,0,0,1,316.44,233.89Zm-8.33,8.33a2.72,2.72,0,1,1,2.72-2.72A2.72,2.72,0,0,1,308.11,242.22Zm11.23,0a2.72,2.72,0,1,1,2.71-2.72A2.72,2.72,0,0,1,319.34,242.22Zm-5.62,5.61a2.72,2.72,0,1,1,2.72-2.72A2.71,2.71,0,0,1,313.72,247.83Z"/><circle class="cls-10" cx="132.75" cy="230.8" r="4.73"/><circle class="cls-11" cx="111.06" cy="280.58" r="4.73"/><line class="cls-11" x1="78.49" y1="172.4" x2="78.49" y2="183.46"/><line class="cls-11" x1="84.02" y1="177.93" x2="72.96" y2="177.93"/><line class="cls-10" x1="122.68" y1="335.04" x2="122.68" y2="346.1"/><line class="cls-10" x1="128.21" y1="340.57" x2="117.15" y2="340.57"/><circle class="cls-10" cx="409.75" cy="252.8" r="4.73"/><circle class="cls-11" cx="506.06" cy="310.58" r="4.73"/><circle class="cls-11" cx="414.06" cy="368.58" r="4.73"/><circle class="cls-6" cx="419.06" cy="106.58" r="4.73"/><circle class="cls-6" cx="289.06" cy="411.58" r="4.73"/><line class="cls-10" x1="479.49" y1="168.4" x2="479.49" y2="179.46"/><line class="cls-10" x1="485.02" y1="173.93" x2="473.96" y2="173.93"/><line class="cls-11" x1="439.49" y1="226.4" x2="439.49" y2="237.46"/><line class="cls-11" x1="445.02" y1="231.93" x2="433.96" y2="231.93"/></svg>