<svg id="레이어_1" data-name="레이어 1" xmlns="http://www.w3.org/2000/svg" xmlns:xlink="http://www.w3.org/1999/xlink" viewBox="0 0 320 600"><defs><style>.cls-1{fill:none;}.cls-2{clip-path:url(#clip-path);}.cls-3,.cls-4{opacity:0.92;}.cls-3{fill:url(#무제_그라디언트_4);}.cls-4{fill:url(#무제_그라디언트_4-2);}.cls-5{opacity:0.49;fill:url(#무제_그라디언트_183);}.cls-6{opacity:0.54;fill:url(#무제_그라디언트_182);}.cls-11,.cls-7{fill:#ffb600;}.cls-10,.cls-8{fill:#00b2ad;}.cls-15,.cls-9{fill:#fff;}.cls-10,.cls-11{opacity:0.83;}.cls-12{fill:#333;}.cls-13{fill:#f2f2f2;}.cls-14{opacity:0.85;}.cls-15{font-size:11.7px;font-family:AppleSDGothicNeo-Medium-KSCpc-EUC-H, Apple SD Gothic Neo;}.cls-16{fill:url(#무제_그라디언트_11);}.cls-17{fill:url(#무제_그라디언트_6);}</style><clipPath id="clip-path"><rect class="cls-1" x="0.39" y="0.03" width="320.15" height="600.11"/></clipPath><linearGradient id="무제_그라디언트_4" x1="-28.97" y1="298.23" x2="334.7" y2="298.23" gradientUnits="userSpaceOnUse"><stop offset="0" stop-color="#4dabf1"/><stop offset="1" stop-color="#935aea"/></linearGradient><linearGradient id="무제_그라디언트_4-2" x1="-7.66" y1="302.72" x2="410.25" y2="302.72" xlink:href="#무제_그라디언트_4"/><linearGradient id="무제_그라디언트_183" x1="1177.89" y1="2745.77" x2="1010.01" y2="2906.14" gradientTransform="matrix(1.04, -1.34, 1.08, 1.29, -3868.25, -1681.15)" gradientUnits="userSpaceOnUse"><stop offset="0" stop-color="#fff" stop-opacity="0"/><stop offset="0.1" stop-color="#ebf9f9" stop-opacity="0.15"/><stop offset="0.25" stop-color="#d0f0f0" stop-opacity="0.34"/><stop offset="0.4" stop-color="#b9e9e9" stop-opacity="0.51"/><stop offset="0.55" stop-color="#a7e3e4" stop-opacity="0.64"/><stop offset="0.7" stop-color="#9bdfe0" stop-opacity="0.73"/><stop offset="0.85" stop-color="#93ddde" stop-opacity="0.78"/><stop offset="1" stop-color="#91dcdd" stop-opacity="0.8"/></linearGradient><linearGradient id="무제_그라디언트_182" x1="335.15" y1="518.18" x2="170.86" y2="675.14" gradientTransform="matrix(0.91, -1.31, 0.95, 1.26, -604.85, -312.75)" gradientUnits="userSpaceOnUse"><stop offset="0.11" stop-color="#4dabf1" stop-opacity="0"/><stop offset="0.19" stop-color="#52adf1" stop-opacity="0.04"/><stop offset="0.32" stop-color="#60b3f2" stop-opacity="0.15"/><stop offset="0.5" stop-color="#78bdf2" stop-opacity="0.34"/><stop offset="0.7" stop-color="#98cbf3" stop-opacity="0.59"/><stop offset="0.94" stop-color="#c0dcf5" stop-opacity="0.91"/><stop offset="1" stop-color="#cce1f5"/></linearGradient><linearGradient id="무제_그라디언트_11" x1="134.95" y1="574.4" x2="126.38" y2="589.24" gradientUnits="userSpaceOnUse"><stop offset="0" stop-color="#1578fe"/><stop offset="1" stop-color="#2577fa"/></linearGradient><linearGradient id="무제_그라디언트_6" x1="137.35" y1="579.16" x2="140.8" y2="584.92" gradientUnits="userSpaceOnUse"><stop offset="0" stop-color="#0e79fa"/><stop offset="1" stop-color="#4679ff"/></linearGradient></defs><g class="cls-2"><rect class="cls-3" x="-28.97" y="-41.44" width="363.67" height="679.35"/><path class="cls-4" d="M410.25,642.4-7.66-36.95H410.25Z"/><rect class="cls-5" x="205.91" y="253.68" width="243.68" height="483.24" rx="121.84" transform="translate(209.28 1077.28) rotate(-135)"/><rect class="cls-6" x="87.53" y="-133.75" width="209.1" height="461.14" rx="104.55" transform="translate(128.35 -108.63) rotate(46.01)"/><rect class="cls-1" x="-10.9" y="-3.82" width="334.76" height="612.2"/><rect class="cls-7" x="54.3" y="192.52" width="4.89" height="4.89"/><rect class="cls-7" x="133.45" y="159.16" width="5.19" height="5.19"/><rect class="cls-8" x="74.48" y="160.98" width="4.29" height="4.29"/><polygon class="cls-9" points="286.46 66.63 279.38 66.63 279.38 61.94 275.33 61.94 275.33 57.25 269.51 57.25 269.51 56.5 276.08 56.5 276.08 61.19 280.13 61.19 280.13 65.88 286.46 65.88 286.46 66.63"/><circle class="cls-10" cx="286.59" cy="130.26" r="3.02"/><path class="cls-11" d="M297.59,140.26a2.42,2.42,0,1,1,2.41-2.41A2.41,2.41,0,0,1,297.59,140.26Zm0-3.83a1.42,1.42,0,1,0,0,2.83,1.42,1.42,0,0,0,0-2.83Z"/><rect class="cls-1" x="-12.9" y="-15.17" width="343.6" height="628.6"/><path class="cls-9" d="M210,64.11l-3-4.19c7.82-3.67,12.86-10.57,13.59-17.42H209.23V38.1h17.05C226,48.63,221.73,57.7,210,64.11ZM235.6,52.34v18h-5.32V34.39h5.32V47.94h5.16v4.4Z"/><path class="cls-9" d="M45.82,108.77c-2.31-1.53-5.79-5.15-6.71-8.68a17.24,17.24,0,0,1-7.45,9.59l-3.18-4.1c5.23-3.13,7.8-8.41,7.8-17.17V82.79H41.9v5.53c0,8.63,2.75,13.21,7.19,16Zm11.38,9.11V98.7H54.63v17.43H49.31V79.65h5.32V94.16H57.2V79h5.41v38.84Z"/><path class="cls-9" d="M87.58,102.88v5.67h14.69v4.53H67.18v-4.53H81.87v-5.67H71.58V89.63H92.16V85.88H71.54V81.26H97.91v13H77.34v4H98.91v4.58Z"/><path class="cls-9" d="M114.25,116.74V103.58c-3.57.13-6.84.17-9.19.17l-.7-4.62c4.62,0,9.2-.13,12.86-.26,5-.26,9.59-.52,12.29-.91l.35,4.4c-3.36.43-6.41.74-9.81.91v13.47Zm3.1-19.57c-6.28,0-10.42-3.44-10.42-8.11s4.14-8.41,10.42-8.41,10.46,3.62,10.46,8.41S123.58,97.17,117.35,97.17Zm0-11.81c-2.66,0-4.53,1.61-4.53,3.66s1.83,3.57,4.53,3.57S121.93,91,121.93,89,120.14,85.36,117.35,85.36Zm7.24,19.7h7.62V79h5.84v38.84h-5.84v-8.55h-7.62Z"/><path class="cls-9" d="M143.67,80.91h20.58v4.71H157v.13c0,6.23,4,10.2,8.9,11.9-1.09,1.48-2.14,3-3.14,4.53a17.11,17.11,0,0,1-8.59-7.89c-1,3.4-5.49,7.11-9.24,8.33l-3-4.53c5.8-2,9.2-6,9.2-12.08v-.39h-7.5Zm10.6,30c-1.14,3.14-4.8,6.1-7.94,7.19-1-1.44-2.05-2.92-3.14-4.36,4.63-1.65,7.85-5.19,7.85-10.11v-1h5.62v.92a6.46,6.46,0,0,0,4.28,6.36c-1.09,1.39-2.27,2.79-3.36,4.27A7.56,7.56,0,0,1,154.27,110.86Zm13.6.57c-.79,2.52-3.71,5.53-7,7.1l-3.14-3.84c4.75-2.17,7.24-5.84,7.24-10.85v-1.26h5.66v1.3c0,4.89,2.53,8.37,6.89,9.73-1.05,1.39-2.05,2.83-3.09,4.18A12,12,0,0,1,167.87,111.43ZM169,100.88V96.47h-4.58V92.11H169V90.2h-4.58V85.92H169V79.21h5.84v21.67Z"/><path class="cls-9" d="M180.29,100.61V96.08h35.09v4.53Zm3.83-6.36L181.9,89.8c6.89-.74,13-4.09,13-9.85V79.6h5.84V80c0,5.76,5.89,8.9,13,9.68l-2.18,4.49c-5.36-.65-11.46-3.31-13.73-7.85C195.54,90.81,189.35,93.64,184.12,94.25Zm.57,23V102.4h5.71v3.4h14.82v-3.4H211v14.82Zm20.53-7.1H190.4v2.66h14.82Z"/><path class="cls-9" d="M223.83,108.68H220V82.83h5.71v20.66h1.61a73.57,73.57,0,0,0,14.17-1.35c.18,1.61.35,3.23.57,4.84C237.08,108.16,228.71,108.68,223.83,108.68Zm26.46,9.2h-5.71V79h5.71Z"/><path class="cls-9" d="M263.84,104.32a83.54,83.54,0,0,0,14-1.18c.17,1.57.35,3.14.57,4.71a111.73,111.73,0,0,1-17.92,1.31h-3.4V82.52H275v4.67H262.84v17.13Zm22.28-10.77h5.4v4.71h-5.4v19.62h-5.71V79h5.71Z"/><path class="cls-12" d="M158.14,65.92h6.74L150.42,35a3.8,3.8,0,0,0-6.69,0L129.26,65.92H136l3.79-8.22h14.56ZM142.43,52l4.64-10.24L151.71,52Z"/><path class="cls-12" d="M187.35,33.61H175l-6.64,6.55,6.88.32h12.1a3.74,3.74,0,0,1,3.85,3.79v15H175.25V40.48l-6.88-.32V65.78h23.15l6.64-6.55v-15A10.75,10.75,0,0,0,187.35,33.61Z"/><path class="cls-12" d="M94,34.44V65.59h6.71V45.08l16.13,20.51H124V34.44h-7.2V54.65L102.11,36a5.22,5.22,0,0,0-1.18-1.08,3.83,3.83,0,0,0-1.72-.5Z"/><path class="cls-12" d="M77.7,34.07H68.57A10.51,10.51,0,0,0,58.14,44.63V55.28A10.49,10.49,0,0,0,68.57,65.79h9.19A10.49,10.49,0,0,0,88.19,55.28V44.7A10.58,10.58,0,0,0,77.7,34.07Zm.06,25.26H68.57a4.18,4.18,0,0,1-4-4V44.63a4.19,4.19,0,0,1,4-4.07l9.13,0a4.22,4.22,0,0,1,4,4.1V55.78A4.2,4.2,0,0,1,77.76,59.33Z"/><path class="cls-9" d="M114.56,385.13v1.39H123v2.29H103.37v-2.29h8.34v-1.39H106v-9h14.58v2.22H108.8v1.22h11v2.14h-11v1.2h11.93v2.22Zm-1.37,12.14c-5.26,0-7.58-1.61-7.58-3.83s2.32-3.83,7.56-3.83,7.61,1.59,7.61,3.83S118.46,397.27,113.19,397.27Zm0-5.44c-2.81,0-4.61.61-4.61,1.61s1.8,1.56,4.61,1.56,4.66-.56,4.66-1.56S116.05,391.83,113.17,391.83Z"/><path class="cls-9" d="M124,381.1V379h12.73v2.14Zm6.48,7.51c-3,0-5.24-1.41-5.24-3.53s2.22-3.51,5.24-3.51,5.15,1.46,5.15,3.51S133.43,388.61,130.48,388.61Zm-3.41,8.27V389.2h2.83v1.68h8.41v-1.71h2.85v7.71Zm.19-21.12h6.44v2.17h-6.44Zm3.22,10.76c1.25,0,2.34-.54,2.34-1.44s-1.09-1.42-2.34-1.42-2.39.54-2.39,1.42S129.19,386.52,130.48,386.52Zm7.83,6.58H129.9v1.54h8.41Zm2.85-9.51v4.56h-2.85V375.32h2.85v5.93h3.05v2.34Z"/><path class="cls-9" d="M162.28,388.69v3.39h8.44v2.27H151.09v-2.27h8.34v-3.39H153.6v-7.2h11.8V379H153.48v-2.27h14.75v7.05h-11.8v2.63h12.44v2.3Z"/><path class="cls-9" d="M171.89,394v-2.24h19.63V394ZM188,390.44l-2.78-.27a56.7,56.7,0,0,0,.93-10.38H174.13v-2.25H189A69.18,69.18,0,0,1,188,390.44Z"/><path class="cls-9" d="M199.25,376.93c3.59,0,5.88,2.3,5.88,5.37s-2.29,5.34-5.88,5.34-5.88-2.22-5.88-5.34S195.69,376.93,199.25,376.93Zm-3.19,19.54v-7h2.87v4.7h12.2v2.25Zm3.19-11.17a3,3,0,1,0-2.95-3A2.81,2.81,0,0,0,199.25,385.3Zm8.56,5.78V375.32h2.83v15.76Z"/><path class="cls-13" d="M104.55,411.49v1.22h4.69v.72H99.05v-.72h4.68v-1.22h-3.31v-4.23h7.4V408h-6.57v1h6.22v.66h-6.22v1.14h6.65v.7Zm-.41,6.44c-2.45,0-3.86-.71-3.86-1.95s1.41-2,3.86-2,3.88.66,3.88,2S106.61,417.93,104.14,417.93Zm-3-1.95c0,.8,1.15,1.26,3,1.26s3-.46,3-1.26-1.14-1.25-3-1.25S101.13,415.21,101.13,416Z"/><path class="cls-13" d="M110.18,409.06v-.7h6.45v.7Zm3.19,4.27c-1.45,0-2.53-.71-2.53-1.86s1.07-1.86,2.53-1.86,2.53.7,2.53,1.86S114.83,413.33,113.37,413.33Zm0-3c-.92,0-1.72.43-1.72,1.16s.82,1.18,1.72,1.18,1.72-.44,1.72-1.18S114.29,410.31,113.37,410.31Zm-1.58-2.75v-.74H115v.74Zm0,10.22v-4h.83V415H118v-1.21h.83v4Zm6.2-2.11h-5.37v1.41H118Zm.83-5v2.53H118v-6.58h.83V410h1.76v.7Z"/><path class="cls-13" d="M125.23,413.46c-1.29.07-3,.11-3.66.11l-.15-.76c.8,0,2,0,3.27,0V411.1h-2.31v-3.67h5.48v.71h-4.65v2.26H128v.7h-2.45v1.63c1.28-.07,2.6-.16,3.27-.26l.08.7C128,413.27,126.6,413.39,125.23,413.46Zm-1.86,4.2v-3.2h.83V417h6.68v.71Zm6.39-2.57v-8.45h.82v8.45Z"/><path class="cls-13" d="M141.44,411.33v1.36h4.7v.71H136v-.71h4.66v-1.36c-2.13-.09-3.4-.79-3.4-2.13s1.45-2.16,3.84-2.16,3.83.71,3.83,2.16S143.59,411.24,141.44,411.33Zm-4.14,6.23v-3.15h.83v2.45h6.77v.7Zm.78-8.36c0,.93,1.16,1.42,3,1.42s3-.49,3-1.42-1.2-1.42-3-1.42S138.08,408.26,138.08,409.2Z"/><path class="cls-13" d="M152.09,411.47c0,2.34-.86,3.8-2.38,3.8s-2.38-1.46-2.38-3.8.84-3.78,2.38-3.78S152.09,409.15,152.09,411.47Zm-2.38-3.06c-1,0-1.55,1.15-1.55,3.06s.59,3.08,1.55,3.08,1.54-1.15,1.54-3.08S150.65,408.41,149.71,408.41Zm6.09,9.52v-6h-1.55v5.42h-.82V406.88h.82v4.37h1.55v-4.61h.82v11.29Z"/><path class="cls-13" d="M158.28,416.36v-.7h10.19v.7Zm1.34-3.44V407.8h7.5v.72h-6.67v3.7h6.78v.7Z"/><path class="cls-13" d="M173.33,415.4l-.56-.64a7.36,7.36,0,0,0,3.83-6h-3.36v-.71h4.25A8.45,8.45,0,0,1,173.33,415.4Zm6.08,1.94v-4h-2v-.7h2V410.5h-1.76v-.69h1.76v-2.88h.82v10.41Zm2.11.59V406.64h.83v11.29Z"/><path class="cls-13" d="M184.41,407.52h5.93v.7h-2.56v.68c0,1.5,1.46,2.84,2.82,3.3l-.47.67a5.6,5.6,0,0,1-2.79-2.56,5.45,5.45,0,0,1-2.86,2.88l-.47-.63c1.43-.57,3-2.13,3-3.66v-.68h-2.55Zm5.12,10.41c-2.42,0-3.76-.81-3.76-2.1s1.34-2.13,3.76-2.13,3.77.81,3.77,2.13S191.94,417.93,189.53,417.93Zm-2.92-2.1c0,.88,1.08,1.39,2.92,1.39s2.93-.51,2.93-1.39-1.09-1.41-2.93-1.41S186.61,414.92,186.61,415.83Zm3.51-5.58v-.7h2.26v-2.91h.83v7h-.83v-3.42Z"/><path class="cls-13" d="M195.18,416.36v-.7h10.19v.7Zm5.07-3.1c-2.41,0-4-1.1-4-2.81s1.59-2.8,4-2.8,4,1.11,4,2.8S202.68,413.26,200.25,413.26Zm0-4.87c-1.92,0-3.19.82-3.19,2.06s1.27,2.06,3.19,2.06,3.22-.83,3.22-2.06S202.2,408.39,200.25,408.39Z"/><path class="cls-13" d="M206.34,416.49v-.71H211v-2.1H207.7V410.2h6.65v-1.92H207.7v-.69h7.48v3.3h-6.65V413h6.95v.69h-3.65v2.1h4.71v.71Z"/><path class="cls-13" d="M63.68,423.33c1.77,0,2.76,1.55,2.76,3.95s-1,4-2.76,4-2.75-1.56-2.75-4S61.91,423.33,63.68,423.33Zm0,.72c-1.18,0-1.94,1.34-1.94,3.23s.76,3.22,1.94,3.22,2-1.35,2-3.22S64.85,424.05,63.68,424.05Zm3.25,1.65V425h2.21v-2.6H70v11.29h-.83v-4.38H66.93v-.68h2.21V425.7Z"/><path class="cls-13" d="M72.4,431v-4.31h4.16v-2.47H72.4v-.71h5v3.89H73.23v2.88a34.65,34.65,0,0,0,5-.37l.1.72A40.06,40.06,0,0,1,72.4,431Zm5.71-3.37v-.71h2.2v-4.47h.83v11.29h-.83V427.6Z"/><path class="cls-13" d="M87,428.33V423h.83v1.93h3.5V423h.83v5.34Zm4.33-2.72h-3.5v2h3.5Zm.32,8.06c-2.35,0-3.62-.82-3.62-2.09s1.27-2.1,3.62-2.1,3.66.85,3.66,2.1S94,433.67,91.6,433.67Zm-2.76-2.09c0,.87,1,1.41,2.76,1.41s2.82-.53,2.82-1.41-1-1.42-2.82-1.42S88.84,430.73,88.84,431.58Zm6.3-5.4v3h-.82v-6.76h.82v3.05H96.9v.71Z"/><path class="cls-13" d="M97.68,428.73V428h4.68V426.2h.82V428h4.69v.7Zm9.28-2a6.48,6.48,0,0,1-4.19-2.69,5.94,5.94,0,0,1-4.12,2.7l-.4-.66c1.88-.21,4.11-1.61,4.11-3.15v-.38h.85v.38c0,1.55,2.4,2.93,4.15,3.13Zm-4.19,7c-2.46,0-3.86-.72-3.86-2s1.4-2,3.86-2,3.88.7,3.88,2S105.24,433.74,102.77,433.74Zm-3-2c0,.83,1.15,1.29,3,1.29s3-.46,3-1.29-1.13-1.29-3-1.29S99.76,430.94,99.76,431.75Z"/><path class="cls-13" d="M112.24,428.33v-.7h10.2v.7Zm1-4.73v-.7h8.13v.7Zm0,3v-.7h1.81l-.3-1.73.89-.1.2,1.83h2.92L119,424l.89.11-.31,1.76h1.81v.7Zm.31,6.92v-2.46h6.72v-1h-6.76v-.68h7.58v2.31h-6.71v1.13h7.15v.69Z"/><path class="cls-13" d="M124,429V425.7h3.36v-1.62h-3.4v-.7h4.22v3H124.8v1.86a23.07,23.07,0,0,0,4.13-.39l.11.73A29.74,29.74,0,0,1,124,429Zm9,4.84a6.53,6.53,0,0,1-3.87-2.61,6.06,6.06,0,0,1-3.88,2.58l-.49-.67c1.68-.2,4-1.53,4-3.12v-.38h.88V430c0,1.62,2.28,2.92,3.9,3.14Zm-.95-3.58v-4.11h-1.54v3.09h-.81v-6.6h.81v2.8h1.54v-3h.82v7.83Z"/><path class="cls-13" d="M134.58,428.88v-.69h4.66v-1.26h-3.66v-.71h1.86l-.34-2,.89-.11.24,2.14h2.82l.27-2.17.89.1-.36,2.07h1.86v.71h-3.64v1.26h4.7v.69Zm1-5.3v-.69h8.13v.69Zm.31,10V430h7.56v3.57Zm6.73-2.87h-5.9v2.17h5.9Z"/><path class="cls-13" d="M145.74,428.09v-.67h10.2v.67Zm1.27,5.43V431h6.72v-1.14H147v-.7h7.58v2.5h-6.71v1.15H155v.68Zm3.84-6.94c-2.33,0-3.83-.6-3.83-1.92s1.5-1.93,3.83-1.93,3.83.62,3.83,1.93S153.21,426.58,150.85,426.58Zm-3-1.92c0,.83,1.18,1.24,3,1.24s3-.41,3-1.24-1.22-1.26-3-1.26S147.87,423.83,147.87,424.66Z"/><path class="cls-13" d="M166.21,426a2.89,2.89,0,1,1-2.88-2.75A2.76,2.76,0,0,1,166.21,426Zm-5,0a2,2,0,0,0,2.09,2.06,2.05,2.05,0,1,0,0-4.1A2,2,0,0,0,161.24,426Zm1,7.3v-3.39h.83v2.7h6.63v.69Zm4.21-8.55v-.68h2.19v-1.66h.82v8.21h-.82v-3h-2.19v-.68h2.19v-2.16Z"/><path class="cls-13" d="M177,426.66v1.53h4.69v.69h-10.2v-.69h4.68v-1.53H172.8V423h7.51v.7h-6.68V426h6.74v.7Zm-.42,7c-2.45,0-3.86-.7-3.86-1.92s1.41-1.93,3.86-1.93,3.88.65,3.88,1.93S179,433.7,176.56,433.7Zm-3-1.92c0,.8,1.15,1.24,3,1.24s3-.44,3-1.24-1.14-1.24-3-1.24S173.55,431,173.55,431.78Z"/><path class="cls-13" d="M182.6,424.83v-.7h6.5v.7Zm3.22,3.87c-1.42,0-2.57-.57-2.57-1.69s1.11-1.69,2.57-1.69,2.59.56,2.59,1.69S187.33,428.7,185.82,428.7Zm0-2.69c-.95,0-1.75.3-1.75,1s.82,1,1.75,1,1.77-.34,1.77-1S186.75,426,185.82,426Zm-1.61-2.66v-.73h3.22v.73Zm0,10.29v-2.51h6.2v-1h-6.24v-.67h7.07v2.36h-6.2V433h6.64v.69Zm7-7.39v2.59h-.83v-6.42h.83v3.13H193v.7Z"/><path class="cls-13" d="M201.87,433.73v-4.18H197.2v-.71h10.19v.71h-4.7v4.18Zm4.56-6.23a6.44,6.44,0,0,1-4.14-2.76c-.55,1.25-2.4,2.42-4.11,2.79l-.45-.69c2.14-.3,4.14-1.8,4.14-3.26v-.65h.85v.65c0,1.46,2.28,3,4.16,3.24Z"/><path class="cls-13" d="M217.78,425.69a2.87,2.87,0,1,1-2.86-2.58A2.67,2.67,0,0,1,217.78,425.69ZM216.69,433a3.53,3.53,0,0,1-1.55-1.64,4.86,4.86,0,0,1-2.28,2.44l-.49-.59a3.77,3.77,0,0,0,2.33-3.1v-.67h.82V430a2.58,2.58,0,0,0,1.76,2.4Zm-3.79-7.26a1.9,1.9,0,0,0,2,1.89,1.88,1.88,0,1,0,0-3.76A1.88,1.88,0,0,0,212.9,425.69Zm8.58,8a4.81,4.81,0,0,1-2.13-2.24,4.89,4.89,0,0,1-2.21,2.38l-.52-.56a3.89,3.89,0,0,0,2.31-3.16v-.78h.83v.71a3.62,3.62,0,0,0,2.25,3.07l-.52.58ZM220.14,429v-6.57H221V429Z"/><path class="cls-13" d="M222.93,428.35v-.71h10.19v.71Zm9.17-1.69c-1.73-.35-3.55-1.5-4.08-2.62-.48,1.12-2.34,2.27-4.07,2.62l-.4-.66c1.73-.19,4-1.54,4-3.07v-.37h.86v.37c0,1.53,2.32,2.88,4.05,3.07Zm-7.79,6.9v-4.28h.83v1.4h5.79v-1.4h.82v4.28Zm6.62-2.17h-5.79v1.47h5.79Z"/><path class="cls-13" d="M234.83,430.87v-7.29h.83v6.56a32.19,32.19,0,0,0,5.54-.54l.12.7A36.43,36.43,0,0,1,234.83,430.87Zm7.52,2.84V422.42h.83v11.29Z"/><path class="cls-13" d="M245.78,430.87V423.6H251v.71h-4.43v5.83a26.09,26.09,0,0,0,5.41-.37l.12.71A31.47,31.47,0,0,1,245.78,430.87Zm8.11-3.2v6h-.82V422.42h.82V427h1.89v.7Z"/><path class="cls-13" d="M256.5,431.44h1.07v1.09H256.5Z"/><path class="cls-9" d="M85.45,277.74c3.59,0,5.73,3.29,5.73,7.85s-2.14,7.78-5.73,7.78-5.73-3.29-5.73-7.78S81.89,277.74,85.45,277.74Zm0,2.85c-1.48,0-2.61,1.69-2.61,5s1.13,5,2.61,5,2.69-1.71,2.69-5S87,280.59,85.45,280.59Zm11.27,4h3v2.64h-3v10.9H93.5V276.35h3.22Z"/><path class="cls-9" d="M100.45,295.27v-2.53h19.63v2.53Zm1.73-14.73V278h16.07v2.56Zm0,8.69v-2.52h3.05l-.66-4.82,3.19-.3.42,5.12h4.12l.49-5.09L116,282l-.8,4.75h3v2.52Z"/><path class="cls-9" d="M134.64,292.4a54,54,0,0,1-9.95.7l-2.17,0v-9.27h6.68v-3.14h-6.73v-2.52h10v8.2h-6.69v4.09a38.37,38.37,0,0,0,8.54-.63Zm4.63-16v21.73H136V276.35Z"/><path class="cls-9" d="M143.71,295c-.61-.82-1.19-1.7-1.8-2.53a12.51,12.51,0,0,0,6.75-6.34c-2.07.24-4.09.46-6.14.68l-.44-2.73c2.46-.17,4.93-.37,7.39-.49a17,17,0,0,0,.29-2.53h-6.63v-2.69H153.2C153.15,285.88,151.05,291.18,143.71,295Zm15.39-10.53h3v2.66h-3v10.95h-3.19V276.35h3.19Z"/><path class="cls-9" d="M167.29,281h-4.65v-2.61h12.8V281h-4.71v14.12h-3.44Z"/><path class="cls-9" d="M176.29,278.42h3.56l4.2,12.49h.07l4.15-12.49h3.22l-5.83,16.73h-3.51Z"/><path class="cls-9" d="M204.07,278.06a5.4,5.4,0,1,1-5.61,5.41A5.37,5.37,0,0,1,204.07,278.06Zm-2.59,19.48v-6.9h3.25V295h12v2.51Zm2.59-11.39a2.5,2.5,0,0,0,2.56-2.68,2.57,2.57,0,0,0-2.56-2.76,2.53,2.53,0,0,0-2.51,2.76A2.46,2.46,0,0,0,204.07,286.15Zm6.36-1.56h2.69V282h-2.59l-.1-2.73h2.69v-2.93h3.29V292.1h-3.29v-4.8h-2.81Z"/><path class="cls-9" d="M230.6,284.47v1.9h8.17v2.54H219.14v-2.54h8.24v-1.9H221.7v-7.71h14.51v2.59H224.92v2.58h11.46v2.54ZM229,298.13c-4.78,0-7.59-1.71-7.59-4.2s2.81-4.19,7.54-4.19,7.61,1.61,7.61,4.19S233.67,298.13,229,298.13Zm-.05-5.83c-2.54,0-4.22.66-4.22,1.68s1.68,1.59,4.22,1.59,4.29-.71,4.29-1.59S231.53,292.3,228.92,292.3Z"/><path class="cls-13" d="M91,307.8c1.79,0,2.77,1.56,2.77,4s-1,4-2.77,4-2.75-1.57-2.75-4S89.23,307.8,91,307.8Zm0,.74c-1.17,0-1.93,1.34-1.93,3.22S89.83,315,91,315s2-1.34,2-3.22S92.19,308.54,91,308.54Zm5.08,9.66V306.91h.83V318.2Z"/><path class="cls-13" d="M104,315.52a6.87,6.87,0,0,1-2.3-3.19,5.92,5.92,0,0,1-2.41,3.48l-.57-.61a5.8,5.8,0,0,0,2.58-4.71V309H99.08v-.71h5.21V309h-2.15v1.45a5.33,5.33,0,0,0,2.45,4.47Zm1.3,2.08v-5.85h-1.84v-.7h1.84v-3.86h.83V317.6Zm2.24.6V306.91h.83V318.2Z"/><path class="cls-13" d="M116.46,307.81c1.77,0,2.75,1.55,2.75,3.95s-1,4-2.75,4-2.76-1.56-2.76-4S114.68,307.81,116.46,307.81Zm0,.73c-1.17,0-1.95,1.34-1.95,3.22s.78,3.22,1.95,3.22,2-1.34,2-3.22S117.64,308.54,116.46,308.54Zm5.62,3.68v6h-.83V306.91h.83v4.6H124v.71Z"/><path class="cls-13" d="M124.62,316.75V316h10.19v.71Zm1-7.88v-.71h8.12v.71Zm0,4.7v-.69h1.83l-.31-3.31.88-.13.23,3.44h2.86l.39-3.43.81.14-.41,3.29h1.84v.69Z"/><path class="cls-13" d="M136.46,315.45v-4.24h4.31v-2.53h-4.36V308h5.19v3.94h-4.31v2.83a32.69,32.69,0,0,0,5.67-.39l.1.72A40.63,40.63,0,0,1,136.46,315.45Zm7.69,2.75V306.91H145V318.2Z"/><path class="cls-13" d="M147.68,316.09l-.55-.66a7.63,7.63,0,0,0,4.13-3.89l-3.92.43-.21-.77,4.38-.34a8,8,0,0,0,.33-2h-4.11v-.71h5C152.68,312.33,150.74,314.49,147.68,316.09Zm7.9-4.45h1.9v.69h-1.9v5.87h-.82V306.91h.82Z"/><path class="cls-13" d="M160.73,308.79H158v-.71h6.32v.71h-2.74v8h-.84Z"/><path class="cls-13" d="M165.13,308.08H166l2.71,7.53h0l2.71-7.53h.8l-3.18,8.67h-.77Z"/><path class="cls-13" d="M173,316.75V316h4.67v-3h-3.31v-5.17h7.51v.71h-6.68v3.75h6.73v.71h-3.43v3h4.71v.71Z"/><path class="cls-13" d="M193.46,310.5a2.89,2.89,0,1,1-2.88-2.75A2.76,2.76,0,0,1,193.46,310.5Zm-5,0a2,2,0,0,0,2.09,2.05,2,2,0,1,0,0-4.09A2,2,0,0,0,188.49,310.5Zm1,7.3v-3.4h.83v2.7H197v.7Zm4.21-8.55v-.69h2.19v-1.65h.82v8.2h-.82v-3h-2.19v-.69h2.19v-2.15Z"/><path class="cls-13" d="M204.23,311.14v1.53h4.69v.7h-10.2v-.7h4.68v-1.53h-3.35v-3.68h7.51v.7h-6.68v2.29h6.74v.69Zm-.42,7.05c-2.45,0-3.86-.7-3.86-1.93s1.41-1.92,3.86-1.92,3.88.64,3.88,1.92S206.28,318.19,203.81,318.19Zm-3-1.93c0,.8,1.15,1.24,3,1.24s3-.44,3-1.24-1.14-1.24-3-1.24S200.8,315.49,200.8,316.26Z"/><path class="cls-13" d="M209.85,310.34v-.69h6.6v.69Zm3.4,5.42a2.32,2.32,0,1,1,2.6-2.29A2.38,2.38,0,0,1,213.25,315.76Zm-1.77-7.29v-.74h3.27v.74Zm1.77,3.4a1.61,1.61,0,1,0,1.77,1.6A1.64,1.64,0,0,0,213.25,311.87Zm5.27.55v5.78h-.83V306.91h.83v4.8h1.89v.71Z"/><path class="cls-13" d="M224,307.81c1.77,0,2.77,1.55,2.77,3.95s-1,4-2.77,4-2.75-1.56-2.75-4S222.18,307.81,224,307.81Zm0,.73c-1.17,0-1.94,1.34-1.94,3.22S222.78,315,224,315s2-1.34,2-3.22S225.13,308.54,224,308.54Zm3.26,1.65v-.69h2.21v-2.59h.82V318.2h-.82v-4.38h-2.21v-.69h2.21v-2.94Z"/><path class="cls-13" d="M95.46,328.8c-1.13.05-2.4.09-3.37.09l-.13-.76c.6,0,1.66,0,2.46,0v-2.22h.82v2.21a32.25,32.25,0,0,0,3.79-.33l.1.7C98.05,328.62,96.5,328.73,95.46,328.8ZM97.74,327l-.83-.1a11.71,11.71,0,0,0,.28-2.7H92.71v-.71h5.35A15.5,15.5,0,0,1,97.74,327Zm-.6,6.85c-2.21,0-3.68-.66-3.68-1.95s1.5-2,3.66-2,3.7.7,3.7,2S99.34,333.8,97.14,333.8Zm-2.81-1.95c0,.82,1.15,1.26,2.81,1.26s2.85-.41,2.85-1.26-1.14-1.29-2.85-1.29S94.33,331,94.33,331.85Zm6.39-5.21v3.1h-.83v-7.05h.83v3.24h1.76v.71Z"/><path class="cls-13" d="M103.26,332.29v-.71h4v-4h.83v4h5.33v.71Zm8.76-6.86a20.89,20.89,0,0,1-.44,4.72l-.81-.14a19.86,19.86,0,0,0,.38-4.14v-1.25h-6.83v-.7H112Z"/><path class="cls-13" d="M114.43,328.69V328h10.19v.65Zm1.28,5v-2.41h6.79v-1h-6.82v-.66h7.65V332h-6.8V333h7.19v.71Zm.09-6.71v-2.29h6.64v-1h-6.66v-.68h7.48v2.31h-6.64v.95h6.84V327Z"/><path class="cls-13" d="M129,329v-.7h4.68v-1.83h.82v1.83h4.69v.7Zm9.28-2a6.51,6.51,0,0,1-4.19-2.68A6,6,0,0,1,130,327l-.4-.66c1.88-.21,4.11-1.62,4.11-3.16v-.37h.85v.37c0,1.55,2.4,2.94,4.15,3.13Zm-4.19,7c-2.46,0-3.86-.72-3.86-2s1.4-2,3.86-2,3.88.7,3.88,2S136.55,334,134.08,334Zm-3-2c0,.82,1.15,1.29,3,1.29s3-.47,3-1.29-1.13-1.3-3-1.3S131.07,331.2,131.07,332Z"/><path class="cls-13" d="M141.47,333.77v-2.4h6.71v-1h-6.73v-.68h3.37v-1h-4.66V328h10.19v.71h-4.7v1H149V332H142.3v1.06h7.12v.68Zm7.91-6.32c-2-.31-3.62-1-4.13-1.89-.43.91-2.19,1.6-4.09,1.91l-.38-.69c1.6-.1,3.6-.82,4-1.75h-3.46v-.71h7.89V325h-3.46c.4.9,2.46,1.6,4,1.73Zm-5.92-3.91v-.7H147v.7Z"/><path class="cls-13" d="M151.28,325.09v-.7h6.5v.7ZM154.5,329c-1.42,0-2.57-.57-2.57-1.7s1.11-1.69,2.57-1.69,2.6.57,2.6,1.69S156,329,154.5,329Zm0-2.69c-.94,0-1.74.3-1.74,1s.81,1,1.74,1,1.77-.33,1.77-1S155.43,326.28,154.5,326.28Zm-1.6-2.66v-.74h3.22v.74Zm0,10.28v-2.51h6.2v-1H152.9v-.67H160v2.37h-6.21v1.15h6.64v.68Zm7-7.39v2.6h-.83v-6.42H160v3.12h1.74v.7Z"/><path class="cls-13" d="M170.55,334v-4.17h-4.66v-.71h10.19v.71h-4.7V334Zm4.56-6.23A6.38,6.38,0,0,1,171,325a6.21,6.21,0,0,1-4.11,2.79l-.45-.68c2.14-.3,4.13-1.8,4.13-3.26v-.66h.85v.66c0,1.46,2.29,3,4.16,3.23Z"/><path class="cls-13" d="M186.47,326a2.87,2.87,0,1,1-2.87-2.59A2.67,2.67,0,0,1,186.47,326Zm-1.1,7.26a3.63,3.63,0,0,1-1.55-1.64,4.88,4.88,0,0,1-2.27,2.44l-.5-.6a3.74,3.74,0,0,0,2.33-3.1v-.67h.83v.58a2.58,2.58,0,0,0,1.75,2.41ZM181.59,326a1.89,1.89,0,0,0,2,1.88,1.84,1.84,0,0,0,2-1.87,2,2,0,0,0-4,0Zm8.57,8a4.84,4.84,0,0,1-2.13-2.23,4.83,4.83,0,0,1-2.21,2.37l-.51-.55a3.91,3.91,0,0,0,2.31-3.17v-.77h.82v.71a3.64,3.64,0,0,0,2.25,3.06l-.51.58Zm-1.34-4.74v-6.56h.83v6.56Z"/><path class="cls-13" d="M191.61,328.62v-.71h10.2v.71Zm9.18-1.7c-1.73-.34-3.55-1.49-4.08-2.62-.48,1.13-2.34,2.28-4.08,2.62l-.4-.65c1.74-.2,4.05-1.54,4.05-3.08v-.36h.85v.36c0,1.54,2.33,2.88,4.06,3.08Zm-7.79,6.9v-4.27h.82v1.39h5.79v-1.39h.83v4.27Zm6.61-2.17h-5.79v1.48h5.79Z"/><path class="cls-13" d="M203.52,331.14v-7.29h.83v6.55a33.31,33.31,0,0,0,5.54-.53l.11.7A37.27,37.27,0,0,1,203.52,331.14ZM211,334V322.69h.82V334Z"/><path class="cls-13" d="M214.47,331.14v-7.28h5.25v.71h-4.43v5.83a26.28,26.28,0,0,0,5.42-.36l.11.71A32.9,32.9,0,0,1,214.47,331.14Zm8.11-3.21V334h-.83V322.69h.83v4.55h1.88v.69Z"/><path class="cls-13" d="M225.18,331.7h1.07v1.09h-1.07Z"/><path class="cls-9" d="M116.89,194.28a53.93,53.93,0,0,1-10,.71c-.73,0-1.63,0-2.17,0V185.7h6.68v-3.15h-6.73V180h10v8.19H108v4.1a39,39,0,0,0,8.54-.64Zm4.63-16.05V200h-3.24V178.23Z"/><path class="cls-9" d="M124.31,197.25v-2.53h8.21V190.5h-6.07V179.84h15.29V190.5h-6v4.22h8.22v2.53Zm14.21-14.85h-8.85v5.54h8.85Z"/><path class="cls-9" d="M146.69,192.45l-1.24-2.61a10.49,10.49,0,0,0,6.09-3.41l-5.56.46-.51-2.56,7.27-.17a7.45,7.45,0,0,0,.27-1.51h-6.32V180h9.76C156.25,186.82,152.86,190.79,146.69,192.45Zm1.78,7v-6.78h3.25v4.27h11.7v2.51Zm7.76-12.16v-2.61h3.66v-6.42h3.24v16h-3.24v-6.92Z"/><path class="cls-9" d="M173.71,196.21l-1.83-2.54c4.76-2.22,7.81-6.39,8.25-10.56h-6.91v-2.63h10.32C183.35,186.82,180.76,192.33,173.71,196.21ZM186.86,200V178.23h3.24V200Z"/><path class="cls-9" d="M192.83,190.33v-2.51h19.63v2.51Zm9.83,9.48c-4.78,0-7.59-1.65-7.59-4.14s2.81-4.17,7.54-4.17,7.61,1.63,7.61,4.17S207.37,199.81,202.66,199.81Zm-7.24-13.63v-7.46h3.27v4.95H210v2.51Zm7.19,7.88c-2.54,0-4.22.68-4.22,1.63s1.68,1.61,4.22,1.61,4.29-.68,4.29-1.61S205.22,194.06,202.61,194.06Z"/><path class="cls-13" d="M78,217.33v-6.92h4.34v6.92Zm3.52-6.22H78.84v5.52h2.69Zm4.71,9.26V214.5H84.69v5.28h-.81V209.37h.81v4.42h1.55v-4.71h.83v11.29Z"/><path class="cls-13" d="M95,215.65a5.27,5.27,0,0,1-2.78-2.32A4.89,4.89,0,0,1,89.32,216l-.44-.67c1.46-.4,2.91-1.85,2.91-3.22V212H89.27v-.72h5.88V212H92.63v.06c0,1.32,1.46,2.59,2.79,2.88Zm-.66,4.66c-2.41,0-3.76-.78-3.76-2s1.35-2,3.76-2,3.76.78,3.76,2S96.74,220.31,94.32,220.31Zm-3.61-10.06v-.71h3v.71ZM94.32,217c-1.79,0-2.87.48-2.87,1.32s1.08,1.31,2.87,1.31,2.87-.47,2.87-1.31S96.13,217,94.32,217Zm2.78-.82v-7.06h.83v7.06Z"/><path class="cls-13" d="M103.75,215.91c-1.3.06-3,.1-3.67.1l-.14-.76c.8,0,2,0,3.27,0v-1.67h-2.32v-3.67h5.48v.71h-4.65v2.26h4.77v.7H104v1.63c1.28-.07,2.6-.16,3.27-.26l.08.7C106.55,215.71,105.12,215.83,103.75,215.91Zm-1.86,4.19v-3.2h.82v2.49h6.68v.71Zm6.38-2.57v-8.45h.83v8.45Z"/><path class="cls-13" d="M117.83,215.19c-1.13.06-2.4.1-3.37.1l-.13-.77c.59,0,1.66,0,2.46,0v-2.23h.82v2.21a32.48,32.48,0,0,0,3.79-.32l.1.7C120.42,215,118.87,215.13,117.83,215.19Zm2.28-1.84-.83-.11a11.59,11.59,0,0,0,.28-2.7h-4.48v-.71h5.35A15.6,15.6,0,0,1,120.11,213.35Zm-.6,6.84c-2.21,0-3.68-.66-3.68-1.95s1.5-2,3.66-2,3.7.69,3.7,2S121.71,220.19,119.51,220.19Zm-2.81-1.95c0,.83,1.15,1.27,2.81,1.27s2.84-.41,2.84-1.27-1.13-1.29-2.84-1.29S116.7,217.43,116.7,218.24Zm6.39-5.2v3.1h-.83v-7.06h.83v3.25h1.76V213Z"/><path class="cls-13" d="M125.63,218.68V218h4v-4h.83v4h5.33v.71Zm8.76-6.86a21,21,0,0,1-.44,4.73l-.82-.14a19.23,19.23,0,0,0,.39-4.15V211h-6.83v-.71h7.7Z"/><path class="cls-13" d="M136.8,215.09v-.66H147v.66Zm1.27,5v-2.42h6.8v-1h-6.82v-.66h7.65v2.26h-6.8v1.07h7.18v.71Zm.1-6.72v-2.28h6.64v-1h-6.66v-.69h7.48v2.31H139v1h6.84v.67Z"/><path class="cls-13" d="M151.32,212v-.72h6.47V212Zm3.23,4.54c-1.47,0-2.58-.76-2.58-2s1.09-2,2.58-2,2.58.72,2.58,2S156,216.51,154.55,216.51Zm0-3.21c-1,0-1.77.45-1.77,1.25s.81,1.25,1.77,1.25,1.77-.46,1.77-1.25S155.49,213.3,154.55,213.3Zm-1.62-3v-.71h3.22v.71ZM153,220v-2.82h.83v2.13h6.65V220Zm7-6.22v3.59h-.83v-8.26H160v4h1.76v.7Z"/><path class="cls-13" d="M167.23,217.73v-2.24h-4.7v-.71h10.19v.71h-4.66v2.24Zm-3.35-4.37v-3.77h.83v3.07h6.85v.7Zm0,6.71v-3.31h.83v2.59h6.83v.72Z"/><path class="cls-13" d="M178.69,213.59h1.49V209.3H181v10.52h-.83v-5.53h-1.49c-.09,2.12-.93,3.42-2.36,3.42s-2.39-1.46-2.39-3.79.85-3.79,2.39-3.79S178.62,211.46,178.69,213.59Zm-2.36-2.74c-1,0-1.55,1.15-1.55,3.07s.59,3.07,1.55,3.07,1.54-1.15,1.54-3.07S177.27,210.85,176.33,210.85Zm6,9.52V209.08h.82v11.29Z"/><path class="cls-13" d="M193.75,213.23v1.07h4.7V215H188.26v-.71h4.66v-1.07h-3.29v-3.84h.82v1.24h5.82v-1.24h.82v3.84Zm-4.17,7v-2.46h6.71v-1h-6.77V216h7.6v2.35H190.4v1.14h7.15v.69Zm6.69-8.87h-5.82v1.21h5.82Z"/><path class="cls-13" d="M207.48,220.39v-4.18h-4.66v-.71H213v.71h-4.7v4.18Zm4.56-6.23a6.4,6.4,0,0,1-4.13-2.76c-.55,1.25-2.4,2.43-4.11,2.79l-.45-.69c2.15-.29,4.13-1.79,4.13-3.25v-.66h.86v.66c0,1.46,2.28,3,4.16,3.23Z"/><path class="cls-13" d="M223.4,212.35a2.87,2.87,0,1,1-2.86-2.58A2.67,2.67,0,0,1,223.4,212.35Zm-1.09,7.26a3.6,3.6,0,0,1-1.56-1.64,4.8,4.8,0,0,1-2.27,2.44l-.49-.59a3.77,3.77,0,0,0,2.33-3.1v-.67h.82v.58a2.58,2.58,0,0,0,1.76,2.4Zm-3.79-7.26a1.9,1.9,0,0,0,2,1.89,1.88,1.88,0,1,0,0-3.76A1.88,1.88,0,0,0,218.52,212.35Zm8.58,8a4.77,4.77,0,0,1-2.13-2.24,4.89,4.89,0,0,1-2.21,2.38l-.52-.56a3.89,3.89,0,0,0,2.31-3.16V216h.83v.72a3.62,3.62,0,0,0,2.25,3.06l-.52.58Zm-1.34-4.74v-6.57h.82v6.57Z"/><path class="cls-13" d="M228.55,218.68V218h4v-4h.83v4h5.33v.71Zm8.76-6.86a21,21,0,0,1-.44,4.73l-.81-.14a19.89,19.89,0,0,0,.39-4.15V211h-6.84v-.71h7.7Z"/><path class="cls-13" d="M239.93,218.09h1l-.94,2.52h-.61Z"/><path class="cls-13" d="M58.14,230.33a5.12,5.12,0,0,1-2.78-2.58,5.35,5.35,0,0,1-2.82,2.91L52,230a4.21,4.21,0,0,0,2.9-3.69v-1h.83v1c0,1.87,1.67,3,2.86,3.36ZM54,236.08v-2.74h6.37v-1.27H53.89v-.71h7.26V234H54.78v1.37h6.8v.71Zm6.37-5.35v-5.87h.83v5.87Z"/><path class="cls-13" d="M69.39,233.39a8,8,0,0,1-2.89-3.56,8,8,0,0,1-2.89,3.86L63,233a6.45,6.45,0,0,0,3-5v-2.13h.86V228a5.74,5.74,0,0,0,3,4.69Zm2.15,2.76V224.86h.82v11.29Z"/><path class="cls-13" d="M79.75,225.84c-.21,3-2.23,5-5.11,5.95l-.42-.71c2.54-.73,4.33-2.59,4.6-4.52H74.7v-.72Zm-3.85,10v-3.43h.82v2.72h6.57v.71Zm7-6.67v4.1h-.82v-8.45h.82v3.63h1.76v.72Z"/><path class="cls-13" d="M85.45,234.58v-.7H95.64v.7Zm5.08-3.1c-2.42,0-4-1.1-4-2.81s1.59-2.8,4-2.8,4,1.11,4,2.8S93,231.48,90.53,231.48Zm0-4.87c-1.93,0-3.19.82-3.19,2.06s1.26,2.06,3.19,2.06,3.21-.83,3.21-2.06S92.48,226.61,90.53,226.61Z"/><path class="cls-13" d="M96.62,234.71V234h4.66v-2.09H98v-3.49h6.66v-1.91H98v-.7h7.48v3.3H98.8v2.1h7v.7h-3.64V234h4.7v.71Z"/><path class="cls-13" d="M114.55,231c-1.13.06-2.4.1-3.37.1l-.13-.77c.6,0,1.66,0,2.46,0v-2.23h.82v2.21a32.48,32.48,0,0,0,3.79-.32l.1.7C117.14,230.79,115.59,230.91,114.55,231Zm2.28-1.84L116,229a11.59,11.59,0,0,0,.28-2.7H111.8v-.71h5.35A15.6,15.6,0,0,1,116.83,229.13Zm-.6,6.85c-2.21,0-3.68-.67-3.68-2s1.5-2,3.66-2,3.7.69,3.7,2S118.43,236,116.23,236Zm-2.81-2c0,.83,1.15,1.27,2.81,1.27s2.85-.41,2.85-1.27-1.14-1.29-2.85-1.29S113.42,233.21,113.42,234Zm6.39-5.2v3.1H119v-7.06h.83v3.25h1.76v.71Z"/><path class="cls-13" d="M122.35,234.46v-.71h4v-4h.83v4h5.33v.71Zm8.76-6.86a21,21,0,0,1-.44,4.73l-.82-.14a19.23,19.23,0,0,0,.39-4.15V226.8h-6.83v-.71h7.7Z"/><path class="cls-13" d="M133.52,230.87v-.66h10.19v.66Zm1.28,5v-2.42h6.79v-1h-6.82v-.66h7.65v2.26h-6.8v1.07h7.19v.71Zm.09-6.72v-2.28h6.64v-1h-6.66v-.69h7.48v2.31h-6.64v1h6.84v.67Z"/><path class="cls-13" d="M148.21,230.47v-.21c0-2.75,1.43-4.36,3.77-4.36s3.75,1.55,3.75,4.38v.2c0,2.73-1.44,4.37-3.77,4.37S148.21,233.3,148.21,230.47Zm6.61.16v-.35c0-2.25-.87-3.66-2.88-3.67-1.83,0-2.83,1.39-2.83,3.5v.35c0,2.25.88,3.68,2.86,3.68S154.82,232.73,154.82,230.63Z"/><path class="cls-13" d="M157.45,226h1l4.47,7.26h0V226h.77v8.67h-.88l-4.6-7.52h0v7.52h-.78Z"/><path class="cls-13" d="M168,225.29h.75L165.68,236h-.74Z"/><path class="cls-13" d="M169.69,230.47v-.21c0-2.75,1.43-4.36,3.77-4.36s3.75,1.55,3.75,4.38v.2c0,2.73-1.43,4.37-3.77,4.37S169.69,233.3,169.69,230.47Zm6.62.16v-.35c0-2.25-.88-3.66-2.89-3.67-1.83,0-2.82,1.39-2.82,3.5v.35c0,2.25.87,3.68,2.85,3.68S176.31,232.73,176.31,230.63Z"/><path class="cls-13" d="M178.93,226h5v.71h-4.15V230H183v.72h-3.22v4h-.83Z"/><path class="cls-13" d="M185.54,226h5v.71h-4.15V230h3.22v.72h-3.22v4h-.83Z"/><path class="cls-13" d="M191.5,227.27v-.7H198v.7Zm3.21,3.87c-1.42,0-2.57-.57-2.57-1.69s1.11-1.69,2.57-1.69,2.6.57,2.6,1.69S196.22,231.14,194.71,231.14Zm0-2.68c-.94,0-1.74.29-1.74,1s.81,1,1.74,1,1.77-.34,1.77-1S195.64,228.46,194.71,228.46Zm-1.6-2.67v-.73h3.22v.73Zm0,10.29v-2.51h6.2v-1h-6.24v-.67h7.07v2.36H194v1.15h6.64v.69Zm7-7.39v2.59h-.83v-6.42h.83V228h1.74v.7Z"/><path class="cls-13" d="M210.76,236.17V232H206.1v-.71h10.19V232h-4.7v4.18Zm4.56-6.23a6.38,6.38,0,0,1-4.13-2.76,6.18,6.18,0,0,1-4.11,2.79l-.45-.69c2.14-.29,4.13-1.79,4.13-3.25v-.66h.85V226c0,1.46,2.29,3,4.16,3.23Z"/><path class="cls-13" d="M226.68,228.13a2.67,2.67,0,0,1-2.87,2.6,2.6,2.6,0,1,1,2.87-2.6Zm-1.1,7.26a3.63,3.63,0,0,1-1.55-1.64,4.84,4.84,0,0,1-2.27,2.44l-.49-.59a3.76,3.76,0,0,0,2.32-3.1v-.67h.83v.58a2.57,2.57,0,0,0,1.76,2.4Zm-3.78-7.26a1.89,1.89,0,0,0,2,1.89,1.88,1.88,0,1,0,0-3.76A1.88,1.88,0,0,0,221.8,228.13Zm8.58,8a4.79,4.79,0,0,1-2.14-2.24,4.8,4.8,0,0,1-2.21,2.38l-.51-.56a3.89,3.89,0,0,0,2.31-3.16v-.78h.83v.72a3.62,3.62,0,0,0,2.25,3.06l-.52.58ZM229,231.43v-6.57h.83v6.57Z"/><path class="cls-13" d="M231.83,230.79v-.71H242v.71ZM241,229.1c-1.73-.35-3.55-1.5-4.08-2.62-.48,1.12-2.34,2.27-4.07,2.62l-.4-.66c1.73-.19,4-1.53,4-3.07V225h.85v.36c0,1.54,2.33,2.88,4.06,3.07Zm-7.79,6.9v-4.28H234v1.4h5.78v-1.4h.83V236Zm6.61-2.17H234v1.47h5.78Z"/><path class="cls-13" d="M243.73,233.31V226h.83v6.55a33.21,33.21,0,0,0,5.54-.53l.12.69A36.43,36.43,0,0,1,243.73,233.31Zm7.52,2.84V224.86h.83v11.29Z"/><path class="cls-13" d="M254.68,233.31V226h5.26v.71h-4.43v5.83a26.09,26.09,0,0,0,5.41-.37l.12.72A32.33,32.33,0,0,1,254.68,233.31Zm8.11-3.2v6H262V224.86h.82v4.55h1.89v.7Z"/><path class="cls-13" d="M265.4,233.88h1.07V235H265.4Z"/></g><g class="cls-14"><path class="cls-9" d="M27.08,138.58a6,6,0,0,1-2.55-3,6.2,6.2,0,0,1-2.62,3.31l-.69-.78A5.47,5.47,0,0,0,24,133.38v-.87H21.62v-.87h5.77v.87H25.07v.85a5,5,0,0,0,2.63,4.44Zm2.54-3V141H28.56V130.55h1.06v4.18h1.64v.89Z"/><path class="cls-9" d="M36.33,138.41a5.64,5.64,0,0,1-2-2.84,5.47,5.47,0,0,1-2.16,3.12L31.5,138a5.55,5.55,0,0,0,2.3-4.62v-1.79h1v1.78A5.08,5.08,0,0,0,37,137.67Zm1.2,2.1v-5.37H35.87v-.88h1.66v-3.47h1v9.72Zm2.06.52V130.55h1V141Z"/><path class="cls-9" d="M41.94,133.3v-.85h6.15v.85ZM45,137.55c-1.41,0-2.47-.71-2.47-1.87S43.6,133.8,45,133.8s2.48.69,2.48,1.88S46.44,137.55,45,137.55Zm-1.59-5.82v-.86h3v.86Zm0,9V138h1v1.9h5.94v.85ZM45,134.65c-.76,0-1.42.36-1.42,1s.66,1,1.42,1,1.42-.39,1.42-1S45.78,134.65,45,134.65Zm5.07.31v3.31H49v-7.72h1.05v3.51h1.57v.9Z"/><path class="cls-9" d="M60.78,138.47a6.91,6.91,0,0,1-2.55-3.13,6.58,6.58,0,0,1-2.59,3.4L55,138a5.77,5.77,0,0,0,2.7-4.75v-1.75h1.09v1.7a5.4,5.4,0,0,0,2.65,4.53Zm2.56-2.87V141H62.28V130.55h1.06v4.17H65v.88Z"/><path class="cls-9" d="M65.42,133.08v-.85h6v.85Zm3,3.86c-1.39,0-2.42-.67-2.42-1.73s1-1.73,2.42-1.73,2.42.68,2.42,1.73S69.81,136.94,68.43,136.94Zm1.76,4.1c-2.27,0-3.5-.68-3.5-1.83s1.23-1.85,3.5-1.85,3.5.69,3.5,1.85S72.45,141,70.19,141Zm-3.27-9.46v-.88h3v.88Zm1.51,2.71c-.74,0-1.38.36-1.38.92s.65.93,1.38.93,1.37-.38,1.37-.93S69.16,134.29,68.43,134.29Zm-.66,4.92c0,.61.9,1,2.42,1s2.42-.37,2.42-1-.91-1-2.42-1S67.77,138.59,67.77,139.21Zm5.8-4.62v2.74h-1v-6.78h1v3.15h1.59v.89Z"/><path class="cls-9" d="M75.71,136.75v-.87h9.47v.87ZM80.44,135c-2.29,0-3.65-.78-3.65-2.08s1.37-2.06,3.65-2.06,3.67.77,3.67,2.06S82.73,135,80.44,135Zm-3.5,5.71v-3.05h1v2.2h6.06v.85Zm1-7.79c0,.75,1,1.2,2.51,1.2s2.55-.45,2.55-1.2-1-1.2-2.55-1.2S77.93,132.19,77.93,132.93Z"/><path class="cls-9" d="M89,139.7v-.87h4.18v-1.65h-3v-3.37h6.09v-1.54H90.08v-.86h7.17v3.26H91.16v1.64h6.38v.87H94.2v1.65h4.22v.87Z"/><path class="cls-9" d="M99.2,139.51v-.87h9.46v.87Zm7.71-1.62-1-.14a28.9,28.9,0,0,0,.44-5.17h-6.14v-.85h7.22A32.17,32.17,0,0,1,106.91,137.89Z"/><path class="cls-9" d="M115.27,133.87a2.81,2.81,0,0,1-5.6,0,2.81,2.81,0,0,1,5.6,0Zm-4.48,0a1.62,1.62,0,0,0,1.68,1.68,1.69,1.69,0,0,0,0-3.37A1.62,1.62,0,0,0,110.79,133.86Zm.35,6.84v-3.26h1.06v2.41h6.07v.85Zm5.83-2.54v-7.61H118v7.61Z"/><path class="cls-9" d="M126.87,141v-2.86h-4.19v-.86h9.46v.86h-4.21V141Zm-3.61-8v-.86h8.33v.86Zm4.16,3.72c-1.91,0-3.22-.55-3.22-1.63s1.31-1.64,3.22-1.64,3.22.56,3.22,1.64S129.34,136.77,127.42,136.77Zm0-2.42c-1,0-2.12.23-2.12.79s1.1.79,2.12.79,2.13-.24,2.13-.79S128.46,134.35,127.42,134.35Zm-1.8-2.77v-.88h3.6v.88Z"/><path class="cls-9" d="M153.24,134.37v1.43h2.39v.86h-9.46v-.86h2.33v-1.45a1.71,1.71,0,0,1-1.22-1.57c0-1.2,1.33-2,3.61-2s3.61.76,3.61,2A1.73,1.73,0,0,1,153.24,134.37ZM150.89,141c-2.31,0-3.71-.7-3.71-1.9s1.4-1.88,3.71-1.88,3.73.68,3.73,1.88S153.22,141,150.89,141Zm-2.58-1.89c0,.68,1,1,2.58,1s2.62-.34,2.62-1-1.06-1-2.62-1S148.31,138.44,148.31,139.13Zm2.58-7.47c-1.55,0-2.52.4-2.52,1.12s1,1.11,2.52,1.11,2.53-.39,2.53-1.11S152.45,131.66,150.89,131.66Zm-1.33,3v1.16h2.63v-1.15a8.56,8.56,0,0,1-1.3.09A7.74,7.74,0,0,1,149.56,134.64Z"/><path class="cls-9" d="M156.74,136.14v-5h1v1.69h2.82v-1.71h1.07v5.07Zm4.39,4.88c-2.22,0-3.46-.81-3.46-2s1.24-2,3.46-2,3.49.81,3.49,2S163.36,141,161.13,141Zm-.52-7.38h-2.82v1.63h2.82ZM158.75,139c0,.72.89,1.17,2.38,1.17s2.41-.44,2.41-1.17-.88-1.18-2.41-1.18S158.75,138.27,158.75,139Zm5.75-4.9v2.79h-1.07v-6.32h1.07v2.66h1.56v.87Z"/><path class="cls-9" d="M167.06,136v-4.84h1.06v1.54h2.75v-1.56h1.06V136Zm3.81-2.45h-2.75v1.59h2.75Zm-2.39,7.36v-4.11h1.07V138h4.62v-1.23h1.08v4.14Zm5.69-2.08h-4.62V140h4.62Zm-1.69-5v-.9h1.69v-2.39h1.07v5.7h-1.07v-2.41Z"/><path class="cls-9" d="M181.67,134.64h1v-3.89h1v9.79h-1v-5h-1c-.1,1.86-.85,3.22-2.3,3.22s-2.31-1.6-2.31-3.7.75-3.66,2.31-3.66S181.59,132.75,181.67,134.64Zm-2.3-2.37c-.83,0-1.26,1.14-1.26,2.77s.43,2.77,1.26,2.77,1.27-1.12,1.27-2.77S180.22,132.27,179.37,132.27Zm5.35,8.76V130.55h1V141Z"/><path class="cls-9" d="M192.78,138.53a6.93,6.93,0,0,1-2.55-3.14,6.58,6.58,0,0,1-2.58,3.4L187,138a5.77,5.77,0,0,0,2.7-4.75v-1.81h1.09v1.76a5.4,5.4,0,0,0,2.65,4.53Zm1.91,2.5v-5.9h-2.34v-.9h2.34v-3.68h1.07V141Z"/><path class="cls-9" d="M203.56,137.43c-1.19.06-2.56.12-3.28.12l-.15-.88c.79,0,1.88,0,2.88-.06V136c-1.08-.1-1.86-.57-1.86-1.37,0-1,1.06-1.46,2.41-1.46s2.42.5,2.42,1.44-.81,1.29-1.91,1.39v.61c1-.05,2.11-.13,2.7-.23l.11.81C206.11,137.25,204.76,137.37,203.56,137.43Zm-3.05-4.58V132h6v.83Zm8,5.23v3h-1v-2.14h-5.89v-.86Zm-6.43-6.57v-.83H205v.83Zm1.49,2.41c-.8,0-1.38.22-1.38.64s.58.65,1.38.65,1.39-.24,1.39-.65S204.36,133.92,203.56,133.92Zm4.94.93v2.69h-1v-7h1V134h1.56v.87Z"/><path class="cls-9" d="M216.43,133.87a2.81,2.81,0,0,1-5.6,0,2.81,2.81,0,0,1,5.6,0Zm-4.48,0a1.62,1.62,0,0,0,1.68,1.68,1.69,1.69,0,0,0,0-3.37A1.62,1.62,0,0,0,212,133.86Zm.35,6.84v-3.26h1.06v2.41h6.07v.85Zm5.82-2.54v-7.61h1.07v7.61Z"/><path class="cls-9" d="M220.77,133.89V133H227v.85Zm3.15,5a2.25,2.25,0,0,1-2.48-2.19,2.49,2.49,0,0,1,4.95,0A2.25,2.25,0,0,1,223.92,138.89Zm-1.59-6.8v-.86h3.13v.86Zm1.59,3.28a1.33,1.33,0,0,0-1.41,1.33,1.42,1.42,0,0,0,2.84,0A1.34,1.34,0,0,0,223.92,135.37Zm5,.43V141h-1.06V130.55h1.06v4.36h1.67v.89Z"/><path class="cls-9" d="M236.79,135.75a4.93,4.93,0,0,1-2.52-2.3,4.88,4.88,0,0,1-2.62,2.65l-.63-.8a4,4,0,0,0,2.68-3.51v-.9h1.09v.86a3.61,3.61,0,0,0,2.59,3.2Zm-4,5.16v-2.68h5.84v-.91h-5.87v-.86h6.93V139h-5.84v1H240v.87Zm5.84-5v-5.35h1.06v5.35Z"/><path class="cls-9" d="M248.49,141v-3.77h-4.18v-.85h9.47v.85h-4.23V141Zm4.42-5.66a5.74,5.74,0,0,1-3.87-2.5c-.47,1.17-2.27,2.21-3.86,2.51l-.48-.86c1.89-.25,3.79-1.54,3.79-3v-.66h1.11v.66c0,1.46,2.11,2.82,3.82,3Z"/><path class="cls-9" d="M263.27,133.66a2.74,2.74,0,0,1-5.45,0,2.73,2.73,0,0,1,5.45,0ZM262,140.14a2.87,2.87,0,0,1-1.21-1.25,4.3,4.3,0,0,1-2,2.2l-.63-.75a3.36,3.36,0,0,0,2.08-2.9V137h1v.38a2.21,2.21,0,0,0,1.48,2.05Zm-3.12-6.5a1.58,1.58,0,0,0,1.66,1.62,1.62,1.62,0,1,0,0-3.23A1.58,1.58,0,0,0,258.89,133.64Zm5.72,5.46a3.93,3.93,0,0,1-1.89,2.11l-.69-.71a3.4,3.4,0,0,0,2.05-3V137h1.05v.49a3.19,3.19,0,0,0,2,2.83l-.66.76A4.42,4.42,0,0,1,264.61,139.1Zm.48-2.56v-6h1.07v6Z"/><path class="cls-9" d="M267.8,136.22v-.86h9.46v.86Zm8.5-1.6c-1.5-.26-3.25-1.22-3.78-2.32-.48,1.11-2.19,2-3.76,2.31l-.47-.84c1.66-.18,3.69-1.24,3.69-2.74v-.34h1.09V131c0,1.5,2.19,2.63,3.72,2.75ZM269,140.9v-4h1.06v1.15H275v-1.16h1.07v4Zm6-2h-4.93V140H275Z"/><path class="cls-9" d="M284.71,137.93a29.29,29.29,0,0,1-5.07.51h-1v-6.8h1.07v5.89a26.11,26.11,0,0,0,4.86-.46Zm1.91,3.1h-1.06V130.55h1.06Z"/><path class="cls-9" d="M290.2,137.59a25,25,0,0,0,4.36-.34l.12.86a27.1,27.1,0,0,1-4.79.36h-1.18v-6.82h5v.88h-3.89v5.06Zm6.16-3H298v.88h-1.63V141h-1.05V130.55h1.05Z"/><path class="cls-9" d="M298.57,138.79h1.17V140h-1.17Z"/><text class="cls-15" transform="translate(135.65 140.17)">이</text></g><path class="cls-12" d="M178.64,588.24h2.3L176,577.7a1.23,1.23,0,0,0-1.14-.68,1.25,1.25,0,0,0-1.14.68l-4.92,10.54h2.29l1.29-2.8h5Zm-5.35-4.74,1.58-3.49,1.58,3.49Z"/><path class="cls-12" d="M188.59,577.24h-4.2l-2.26,2.23,2.34.11h4.12a1.27,1.27,0,0,1,1.31,1.29V586h-5.43v-6.38l-2.34-.11v8.72H190l2.26-2.23v-5.09A3.66,3.66,0,0,0,188.59,577.24Z"/><path class="cls-12" d="M156.78,577.52v10.61h2.29v-7l5.49,7H167V577.52h-2.45v6.88l-5-6.34a1.86,1.86,0,0,0-.4-.37,1.36,1.36,0,0,0-.59-.17Z"/><path class="cls-12" d="M151.25,577.4h-3.11a3.57,3.57,0,0,0-3.55,3.59v3.63a3.57,3.57,0,0,0,3.55,3.58h3.13a3.57,3.57,0,0,0,3.55-3.58V581A3.59,3.59,0,0,0,151.25,577.4Zm0,8.6h-3.13a1.43,1.43,0,0,1-1.37-1.38V581a1.44,1.44,0,0,1,1.37-1.39l3.11,0a1.44,1.44,0,0,1,1.38,1.39v3.78A1.44,1.44,0,0,1,151.27,586Z"/><polygon class="cls-16" points="127.73 578.17 127.73 587.93 130.92 590.12 130.92 580.36 137.49 577.77 134.3 575.58 127.73 578.17"/><polygon class="cls-17" points="137.49 577.77 137.49 584.14 140.68 586.33 140.68 579.96 137.49 577.77"/><path d="M118.26,458.13l-.83-1a7.73,7.73,0,0,0,4.62-6.08h-3.94v-1.09h5.37A9.2,9.2,0,0,1,118.26,458.13Zm7.44,2.17V448.72H127V460.3Z"/><path d="M128.73,456v-1.08h4.55v-1.67h1.32v1.67h4.59V456Zm9.44-2.11c-1.75-.23-3.58-1.17-4.2-2.26-.54,1.13-2.28,2-4.19,2.26l-.57-1c1.94-.13,3.83-1.05,4.06-2.47H129.7v-1.08h8.53v1.08H134.7c.26,1.42,2.39,2.35,4.05,2.44Zm-8.1,6.12v-3.32h1.34v2.26H138V460Z"/><path d="M151.19,458.12a74.29,74.29,0,0,1-7.6.39l-.21-1.11c1,0,2.05,0,3.12,0V456.3c-1.27-.2-2.12-.94-2.12-1.9,0-1.16,1.17-2,2.81-2s2.83.81,2.83,2c0,1-.88,1.73-2.19,1.91v1c1.18-.05,2.4-.13,3.26-.25Zm-7.41-6.1v-1h6.8v1Zm1.72-2.73h3.37v1.06H145.5Zm1.69,4.18c-.82,0-1.44.38-1.44.93s.62.91,1.44.91,1.47-.38,1.47-.91S148.05,453.47,147.19,453.47Zm5.89,6.83h-1.34V448.72h1.34Z"/><path d="M157.91,457.06V455c-1.08.05-2.14.07-3.22.09l-.18-1.11c1.31,0,2.57,0,3.84-.06,1.57-.06,2.79-.15,3.81-.26l.1,1c-1,.11-2,.2-3,.27v2.18Zm.32-3.82c-1.67,0-2.9-.83-2.9-2.13s1.23-2.13,2.9-2.13,2.87.89,2.87,2.15S159.9,453.24,158.23,453.24ZM156.15,460v-3.41h1.32v2.34h7.06V460Zm2.08-10c-1,0-1.58.52-1.58,1.13s.61,1.1,1.58,1.1,1.55-.5,1.55-1.1S159.19,450,158.23,450Zm2.5,5.44H163v-6.72h1.32v8.93H163v-1.24h-2.27Z"/><path class="cls-9" d="M170.52,457.8v-2h-4.64v-1.08h10.47v1.08h-4.49v2Zm-3.3-4.17v-4.55h1.34v1.29h5.11v-1.3H175v4.56Zm0,6.33v-3.21h1.34v2.16h6.57v1Zm6.44-8.55h-5.11v1.14h5.11Z"/><path class="cls-9" d="M177.13,454.47v-1.06h10.46v1.06Zm1.34,5.75V457.3h6.39v-.87h-6.45v-1.07h7.79v2.91h-6.41v.89h6.83v1.06Zm0-7.66v-3.62h7.75V450h-6.41v1.5h6.53v1.06Z"/><path class="cls-9" d="M194.25,454.93v2.83h4.59v1.07H188.37v-1.07h4.55v-2.83h-3.18V449.6h7.74v1.08h-6.4v3.17h6.47v1.08Z"/><path class="cls-9" d="M82.29,469.55v1.12h4.59v1.08H76.42v-1.08H81v-1.13c-2.11-.14-3.32-1-3.32-2.28s1.48-2.28,4-2.28,4,.92,4,2.28S84.41,469.41,82.29,469.55ZM77.76,476v-3.35H79.1v2.29h6.56V476ZM81.64,466c-1.6,0-2.62.48-2.62,1.26s1,1.24,2.62,1.24,2.64-.49,2.64-1.24S83.27,466,81.64,466Z"/><path class="cls-9" d="M90.29,473.8c-1.73,0-2.5-1.89-2.5-4.09s.77-4.07,2.5-4.07,2.49,1.88,2.49,4.08S92,473.8,90.29,473.8Zm0-7c-.82,0-1.22,1.24-1.22,2.92s.4,2.91,1.22,2.91,1.22-1.23,1.22-2.91S91.13,466.8,90.3,466.8Zm5.85,9.5v-5.92H95v5.39H93.75V464.94H95v4.33h1.14v-4.55h1.28V476.3Z"/><path class="cls-9" d="M109.37,474.75H98.91V473.7h10.46Zm-9.12-3.68v-5.31H108v1.05h-6.44V470h6.56v1.06Z"/><path class="cls-9" d="M114.22,474l-.88-.92a7.37,7.37,0,0,0,3.77-5.84H114v-1.09h4.39A8.88,8.88,0,0,1,114.22,474Zm5.6,1.79v-4h-1.58v-1.05h1.58v-1.86h-1.3v-1h1.3V465h1.26v10.8Zm2.24.55V464.72h1.27V476.3Z"/><path class="cls-9" d="M125.22,465.46h6.1v1.1H129v0a3.68,3.68,0,0,0,2.64,3.42l-.74,1.05a5.09,5.09,0,0,1-2.59-2.36,4.79,4.79,0,0,1-2.74,2.7l-.81-1a4.07,4.07,0,0,0,2.86-3.7v-.11h-2.4Zm5.28,10.84c-2.5,0-3.93-.91-3.93-2.28s1.43-2.3,3.93-2.3,3.95.91,3.95,2.3S133,476.3,130.5,476.3ZM128,474c0,.76,1,1.2,2.55,1.2s2.58-.44,2.58-1.2-.94-1.2-2.58-1.2S128,473.26,128,474Zm3.18-6.5H133v-2.8h1.34v7H133v-3.05h-1.89Z"/><path class="cls-9" d="M141.21,471a5,5,0,0,1-2.19-2.13,4.81,4.81,0,0,1-2.26,2.49l-.76-.93a4.27,4.27,0,0,0,2.35-3.71v-1.26h1.29v1.22a3.78,3.78,0,0,0,2.24,3.33Zm.73,5.32c-2.5,0-4-.91-4-2.28s1.5-2.3,4-2.3,4,.91,4,2.3S144.46,476.29,141.94,476.29Zm0-3.49c-1.63,0-2.62.44-2.62,1.21s1,1.21,2.62,1.21,2.62-.45,2.62-1.21S143.56,472.8,141.94,472.8Zm2.61-1v-3h-1.12v2.55h-1.26v-6.36h1.26v2.7h1.12v-2.9h1.27v7.06Z"/><path class="cls-9" d="M153.38,471a5.38,5.38,0,0,1-2.64-2.47,4.74,4.74,0,0,1-2.73,2.75l-.81-1a4.18,4.18,0,0,0,2.85-3.85v-1.16h1.36v1.11a4,4,0,0,0,2.73,3.6ZM153,476.3c-2.5,0-3.93-.92-3.93-2.29s1.43-2.31,3.93-2.31,3.95.92,3.95,2.31S155.52,476.3,153,476.3Zm0-3.52c-1.6,0-2.55.46-2.55,1.23s1,1.22,2.55,1.22,2.57-.46,2.57-1.22S154.64,472.78,153,472.78Zm2.52-1.25v-3.28H153.4v-1.09h2.12v-2.44h1.33v6.81Z"/><path class="cls-9" d="M158.55,470.67V469.6H169v1.07Zm9.28-3.82c0,1.22-1.47,2-4,2s-4-.83-4-2,1.45-2.07,4-2.07S167.83,465.61,167.83,466.85Zm-7.94,9.37v-2.86h6.4v-.81h-6.47V471.5h7.8v2.84h-6.4v.83h6.83v1.05Zm1.26-9.37c0,.61,1,1,2.65,1s2.67-.4,2.67-1-1-1-2.67-1S161.15,466.21,161.15,466.85Z"/><path class="cls-9" d="M173.12,468.5v-1.08h6.74v1.08Zm3.4,5.5a2.53,2.53,0,0,1-2.79-2.47,2.56,2.56,0,0,1,2.79-2.47,2.48,2.48,0,1,1,0,4.94Zm-1.76-8.61h3.51v1.09h-3.51Zm1.76,4.76a1.38,1.38,0,1,0,0,2.76,1.33,1.33,0,0,0,1.44-1.38A1.36,1.36,0,0,0,176.52,470.15Zm5.69-.68H184v1.12h-1.79v5.71h-1.34V464.72h1.34Z"/><path class="cls-9" d="M190.7,473.66a7.5,7.5,0,0,1-2.71-3.38,6.77,6.77,0,0,1-2.8,3.59l-.84-1a6.27,6.27,0,0,0,2.93-5.29V465.7h1.37v1.84a6,6,0,0,0,2.86,5.13Zm-.21-6.5h2.19v-2.44H194V476.3h-1.32v-5.16h-2.19v-1.08h2.19v-1.83h-2.19Z"/><path class="cls-9" d="M198.8,465.61c1.86,0,2.94,1.61,2.94,4.07s-1.08,4.05-2.94,4.05-3-1.62-3-4.06S196.94,465.61,198.8,465.61Zm0,1.09c-1,0-1.65,1.11-1.65,3s.67,3,1.65,3,1.67-1.12,1.67-3S199.79,466.7,198.8,466.7Zm7.69,1.89h-1.78v2.52h1.78v1.09h-1.78v4.1h-1.34V464.72h1.34v2.78h1.78Z"/><path class="cls-9" d="M210.28,467.47v-1H217v1Zm3.36,4.11c-1.66,0-2.71-.78-2.71-1.85s1-1.86,2.71-1.86,2.69.79,2.69,1.86S215.29,471.58,213.64,471.58Zm-1.7,4.62V472h1.34v1.07H218V472h1.34v4.24Zm0-11.43h3.4v1H212Zm1.69,4.07c-.75,0-1.47.35-1.47.89s.73.88,1.47.88,1.45-.33,1.45-.88S214.38,468.84,213.64,468.84Zm4.38,5.28h-4.74v1H218Zm1.34-5.37v2.62H218v-6.65h1.34v2.91h1.71v1.12Z"/><path class="cls-9" d="M228.87,473a29.4,29.4,0,0,1-5.37.57h-1.21v-7.61h1.31v6.44a24.07,24.07,0,0,0,5.11-.5Zm.91,3.35V464.72h1.32V476.3Z"/><path class="cls-9" d="M239.6,473.07a26.38,26.38,0,0,1-5,.4h-1.23v-7.68h5.27v1.1h-4v5.46a23.16,23.16,0,0,0,4.8-.37Zm2.24-2.8v6h-1.33V464.72h1.33v4.43h1.74v1.12Z"/></svg>