<?xml version="1.0" encoding="utf-8"?>
<!-- Generator: Adobe Illustrator 25.1.0, SVG Export Plug-In . SVG Version: 6.00 Build 0)  -->
<svg version="1.1" id="레이어_1" xmlns="http://www.w3.org/2000/svg" xmlns:xlink="http://www.w3.org/1999/xlink" x="0px"
	 y="0px" viewBox="0 0 400 550" style="enable-background:new 0 0 400 550;" xml:space="preserve">
<style type="text/css">
	.st0{clip-path:url(#SVGID_2_);fill:none;}
	.st1{opacity:0.92;clip-path:url(#SVGID_4_);fill:url(#SVGID_5_);enable-background:new    ;}
	.st2{opacity:0.92;clip-path:url(#SVGID_7_);fill:url(#SVGID_8_);enable-background:new    ;}
	.st3{opacity:0.49;clip-path:url(#SVGID_10_);fill:url(#SVGID_11_);enable-background:new    ;}
	.st4{opacity:0.54;clip-path:url(#SVGID_13_);fill:url(#SVGID_14_);enable-background:new    ;}
	.st5{clip-path:url(#SVGID_16_);fill:none;}
	.st6{clip-path:url(#SVGID_18_);fill:none;}
	.st7{fill:#FFFFFF;}
	.st8{fill:#DDF6FF;}
	.st9{font-family:'AppleSDGothicNeo-UltraLight-KSCpc-EUC-H';}
	.st10{font-size:10px;}
	.st11{fill:none;stroke:#000000;stroke-width:0.5;stroke-miterlimit:10;}
	.st12{fill:none;}
	.st13{enable-background:new    ;}
	.st14{fill:#E5FFFF;}
	.st15{font-family:'AppleSDGothicNeo-ExtraBold-KSCpc-EUC-H';}
	.st16{font-size:21px;}
	.st17{fill:#FFD7F2;}
</style>
<g>
	<g>
		<defs>
			<rect id="SVGID_1_" width="400" height="550"/>
		</defs>
		<clipPath id="SVGID_2_">
			<use xlink:href="#SVGID_1_"  style="overflow:visible;"/>
		</clipPath>
		<rect class="st0" width="399.9" height="749.6"/>
	</g>
	<g>
		<defs>
			<rect id="SVGID_3_" width="400" height="550"/>
		</defs>
		<clipPath id="SVGID_4_">
			<use xlink:href="#SVGID_3_"  style="overflow:visible;"/>
		</clipPath>
		
			<linearGradient id="SVGID_5_" gradientUnits="userSpaceOnUse" x1="-36.7" y1="-161.5" x2="417.6" y2="-161.5" gradientTransform="matrix(1 0 0 1 0 534)">
			<stop  offset="0" style="stop-color:#4DABF1"/>
			<stop  offset="1" style="stop-color:#935AEA"/>
		</linearGradient>
		<rect x="-36.7" y="-51.8" class="st1" width="454.3" height="848.6"/>
	</g>
	<g>
		<defs>
			<rect id="SVGID_6_" width="400" height="550"/>
		</defs>
		<clipPath id="SVGID_7_">
			<use xlink:href="#SVGID_6_"  style="overflow:visible;"/>
		</clipPath>
		
			<linearGradient id="SVGID_8_" gradientUnits="userSpaceOnUse" x1="-10" y1="-155.9" x2="512" y2="-155.9" gradientTransform="matrix(1 0 0 1 0 534)">
			<stop  offset="0" style="stop-color:#4DABF1"/>
			<stop  offset="1" style="stop-color:#935AEA"/>
		</linearGradient>
		<path class="st2" d="M512,802.4L-10-46.2h522V802.4z"/>
	</g>
	<g>
		<defs>
			<rect id="SVGID_9_" width="400" height="550"/>
		</defs>
		<clipPath id="SVGID_10_">
			<use xlink:href="#SVGID_9_"  style="overflow:visible;"/>
		</clipPath>
		
			<linearGradient id="SVGID_11_" gradientUnits="userSpaceOnUse" x1="1789.2494" y1="2999.9702" x2="1579.5426" y2="3200.2957" gradientTransform="matrix(-1.6829 0.2121 0.1485 -1.6758 2786.0273 5453.8335)">
			<stop  offset="0" style="stop-color:#FFFFFF;stop-opacity:0"/>
			<stop  offset="0.1" style="stop-color:#EBF9F9;stop-opacity:0.15"/>
			<stop  offset="0.25" style="stop-color:#D0F0F0;stop-opacity:0.34"/>
			<stop  offset="0.4" style="stop-color:#B9E9E9;stop-opacity:0.51"/>
			<stop  offset="0.55" style="stop-color:#A7E3E4;stop-opacity:0.64"/>
			<stop  offset="0.7" style="stop-color:#9BDFE0;stop-opacity:0.73"/>
			<stop  offset="0.85" style="stop-color:#93DDDE;stop-opacity:0.78"/>
			<stop  offset="1" style="stop-color:#91DCDD;stop-opacity:0.8"/>
		</linearGradient>
		<path class="st3" d="M195.5,832.1L195.5,832.1c-59.4-59.4-59.4-155.8,0-215.2l211.6-211.6c59.4-59.4,155.8-59.4,215.2,0l0,0
			c59.4,59.4,59.4,155.8,0,215.2L410.7,832.1C351.3,891.5,254.9,891.5,195.5,832.1z"/>
	</g>
	<g>
		<defs>
			<rect id="SVGID_12_" width="400" height="550"/>
		</defs>
		<clipPath id="SVGID_13_">
			<use xlink:href="#SVGID_12_"  style="overflow:visible;"/>
		</clipPath>
		
			<linearGradient id="SVGID_14_" gradientUnits="userSpaceOnUse" x1="466.429" y1="127.8723" x2="261.2066" y2="323.9385" gradientTransform="matrix(1.5745 -0.2551 -0.2467 1.5586 -287.3425 -129.0475)">
			<stop  offset="0.11" style="stop-color:#4DABF1;stop-opacity:0"/>
			<stop  offset="0.19" style="stop-color:#52ADF1;stop-opacity:4.000000e-02"/>
			<stop  offset="0.32" style="stop-color:#60B3F2;stop-opacity:0.15"/>
			<stop  offset="0.5" style="stop-color:#78BDF2;stop-opacity:0.34"/>
			<stop  offset="0.7" style="stop-color:#98CBF3;stop-opacity:0.59"/>
			<stop  offset="0.94" style="stop-color:#C0DCF5;stop-opacity:0.91"/>
			<stop  offset="1" style="stop-color:#CCE1F5"/>
		</linearGradient>
		<path class="st4" d="M446.7-79.1L446.7-79.1c50.1,51.9,48.6,134.6-3.3,184.7L216.9,324.2c-51.9,50.1-134.6,48.6-184.7-3.3l0,0
			c-50.1-51.9-48.6-134.6,3.3-184.7L262-82.4C313.9-132.5,396.6-131,446.7-79.1z"/>
	</g>
	<g>
		<defs>
			<rect id="SVGID_15_" width="400" height="550"/>
		</defs>
		<clipPath id="SVGID_16_">
			<use xlink:href="#SVGID_15_"  style="overflow:visible;"/>
		</clipPath>
		<rect x="-14.1" y="-4.8" class="st5" width="418.2" height="764.7"/>
	</g>
	<g>
		<defs>
			<rect id="SVGID_17_" width="400" height="550"/>
		</defs>
		<clipPath id="SVGID_18_">
			<use xlink:href="#SVGID_17_"  style="overflow:visible;"/>
		</clipPath>
		<rect x="-16.6" y="-19" class="st6" width="429.2" height="785.2"/>
	</g>
</g>
<g>
	<path class="st7" d="M214.2,89.9h8.5L204.5,51c0,0-1.1-2.5-4.2-2.5c-3.1,0-4.2,2.5-4.2,2.5l-18.2,38.8h8.5l4.8-10.3h18.3
		L214.2,89.9z M194.5,72.4l5.8-12.9l5.8,12.9H194.5z"/>
	<path class="st7" d="M250.9,49.3h-15.5l-8.3,8.2l8.6,0.4c0,0,12.6,0,15.2,0c2.6,0,4.8,1.9,4.8,4.8s0,18.8,0,18.8l0,0h-20V57.9
		l-8.6-0.4v32.2h6.5h1.9h20.7l0,0l8.3-8.2V62.7C264.4,55.3,258.4,49.3,250.9,49.3z"/>
	<path class="st7" d="M133.6,50.4v39.1h8.4V63.7l20.3,25.8l0,0h9V50.4h-9v25.4l-18.4-23.4c0,0-0.6-0.8-1.5-1.3
		c-1-0.6-2.2-0.6-2.2-0.6L133.6,50.4z"/>
	<path class="st7" d="M113.2,49.9h-11.5c-7.2,0-13.1,5.9-13.1,13.3v13.4c0,7.3,5.9,13.2,13.1,13.2h11.5c7.2,0,13.1-5.9,13.1-13.2
		V63.2C126.4,55.9,120.5,49.9,113.2,49.9z M113.3,81.6c-0.5,0-11,0-11.5,0c-2.5,0-5-2.3-5-5.1c0-1.1,0-10.8,0-13.4
		c0-2.5,2.2-5.1,5-5.1c0.7,0,10.2,0,11.5,0c2.5,0,5.1,2.3,5.1,5.1c0,1.8,0,9,0,13.9C117.9,79.7,115.6,81.6,113.3,81.6z"/>
</g>
<g>
	<path class="st8" d="M273,84c8.5-4.7,13-11.2,13.4-19.6H275v-3.7h15.3c0.7,0,1.1,0.3,1.1,1.1c-0.6,11-5.4,19.2-14.7,25.2L273,84z
		 M300.5,93.4h-4.3V58.6h4.3v13.5h4.7V76h-4.7V93.4z"/>
	<path class="st8" d="M78.3,132.6c-3.1-2.6-5.7-6.2-6.9-9.7c-0.4,1.8-1.4,3.8-2.8,5.6c-1.3,1.9-3,3.7-4.6,5.1l-4.4-3.1
		c6.8-4.8,9.2-11.9,9.2-20.4V102h5.5v8.5c0,8.7,2.3,14.8,8.1,18.9L78.3,132.6z M97,141.6h-5v-21.5h-3.8v19.6h-5v-38.6h5V115H92
		v-14.6h5V141.6z"/>
	<path class="st8" d="M139.1,137h-38v-4.4h16.1v-6.3h-9.9c-1,0-1.3-0.3-1.3-1.3v-11.7c0-0.9,0.3-1.3,1.3-1.3h21.6v-5.6H106V102h26.7
		c0.9,0,1.3,0.4,1.3,1.3V115c0,1-0.4,1.3-1.3,1.3h-21.5v5.6H135v4.4h-12.3v6.3h16.4L139.1,137L139.1,137z"/>
	<path class="st8" d="M157.1,140.6h-5.2v-14.5c-0.4,0-0.8,0-1.2,0h-8.3v-4.5h11.8c1.5,0,4.5,0,7.6-0.2s6.3-0.4,8.2-0.7v4.4
		c-3.3,0.6-8,0.8-13,1L157.1,140.6L157.1,140.6z M163,116.1c-1.8,1.7-4.5,2.7-7.6,2.7c-3.2,0-5.8-1-7.6-2.7s-2.8-3.9-2.8-6.3
		c0-2.3,1-4.6,2.8-6.2c1.8-1.7,4.5-2.8,7.6-2.8s5.8,1.1,7.6,2.8s2.9,3.9,2.9,6.2c0,1.1-0.3,2.2-0.8,3.5
		C164.6,114.4,163.8,115.3,163,116.1z M151.4,106.5c-0.9,1.1-1.3,2.2-1.3,3.3c0,2.4,1.8,4.9,5.3,4.9c1.7,0,3-0.5,4-1.5
		c0.9-1,1.4-2.1,1.4-3.4c0-1.2-0.5-2.3-1.4-3.3c-0.9-1.1-2.3-1.6-4-1.6C153.6,104.9,152.3,105.4,151.4,106.5z M176.5,141.6h-5.2
		v-7.8h-9.2v-4.4h9.2v-29h5.2V141.6z"/>
	<path class="st8" d="M203.9,123c-4-1.9-7.6-4.5-9.3-7.5c-0.6,1.5-1.8,3-3.6,4.5s-3.8,2.9-5.9,4l-3.9-3.5
		c6.9-2.6,10.6-7.2,10.6-12.7v-1.4h-7.4v-4.3h20.5v4.3h-7.5v1.5c0,5.3,3.9,9.5,9.8,11.3L203.9,123z M217.5,141.8
		c-3-1.6-6-4.6-7.5-7.3c-1.3,2.4-3.9,5.2-7,7.3c-3.1-2-5.8-4.7-7-7.2c-1.3,2.4-4,5.3-7.3,7.2l-3.7-3.2c2.3-1.1,4.4-2.7,6-4.7
		c1.5-2,2.5-4.3,2.5-6.7v-1.4h5.1v1.2c0,3.6,2.1,7,4.5,8.8c1.2-0.9,2.3-2.2,3.1-3.8c0.9-1.7,1.3-3.4,1.3-5.1v-1.2h5.1v1.2
		c0,2.4,1,4.7,2.5,6.8c1.5,2,3.7,3.7,6,4.8L217.5,141.8z M217,124.5h-5.2v-7.4h-6.6v-4h6.6v-2.8h-6.6v-4h6.6v-5.9h5.2V124.5z"/>
	<path class="st8" d="M259.4,121.7h-38v-4.3h38V121.7z M254.6,115.4c-2.6-0.4-5.6-1.5-8.2-2.8c-2.6-1.4-4.8-3.1-5.9-4.8
		c-2.6,3.7-7.5,6.1-14.2,7.6l-3.1-3.7c3.5-0.6,7.1-1.7,9.9-3.3c2.8-1.6,4.6-3.7,4.6-6.7v-1.3h5.7v1.3c0,2.8,1.8,5,4.6,6.7
		s6.3,2.8,9.8,3.4L254.6,115.4z M254.6,139.8c0,1-0.4,1.3-1.3,1.3h-25.9c-1,0-1.3-0.3-1.3-1.3v-15.2h5.1v3.7h18.1v-3.7h5.2
		L254.6,139.8L254.6,139.8z M249.5,136.9v-4.6h-18.1v4.6H249.5z"/>
	<path class="st8" d="M289.1,129.9c-1.3,0.3-3.3,0.7-5.7,1c-2.3,0.3-4.9,0.6-7.5,0.6h-9.8c-1,0-1.2-0.3-1.2-1.3v-28.1h5.2V127h6
		c1.9,0,4.3-0.2,6.7-0.5c2.4-0.2,4.6-0.6,6.4-1v4.4H289.1z M296,141.6h-5.2v-41.2h5.2V141.6z"/>
	<path class="st8" d="M328,130.1c-0.7,0.1-2.8,0.5-5.6,0.8c-2.8,0.4-6.3,0.6-9.6,0.6h-7c-1,0-1.2-0.3-1.2-1.3V104
		c0-0.9,0.3-1.3,1.3-1.3h17.6v4.4h-13.8V127h5.1c2.2,0,5.3-0.3,7.9-0.6s4.7-0.7,5.3-0.8L328,130.1L328,130.1z M334.8,141.5h-5.2
		v-41.1h5.2v14.1h5.6v4.6h-5.6V141.5z"/>
</g>
<rect y="519.4" class="st7" width="399.6" height="30.6"/>
<text transform="matrix(1 0 0 1 274.9386 537.9952)" class="st9 st10">오늘 하루동안 열지 않기</text>
<rect x="375.5" y="528.8" class="st11" width="11.7" height="11.7"/>
<rect x="95.2" y="186.1" class="st12" width="197.9" height="60.9"/>
<g class="st13">
	<path class="st14" d="M158.1,199.7c-1.9,0.4-5.5,0.6-8.6,0.6c-0.6,0-1.4,0-1.9,0v-8h5.8v-2.7h-5.8v-2.2h8.6v7.1h-5.8v3.5
		c1.8,0.1,5.2,0,7.3-0.5L158.1,199.7z M162.1,185.9v18.7h-2.8v-18.7H162.1z"/>
	<path class="st14" d="M164.7,202.3v-2.2h7.1v-3.6h-5.2v-9.2h13.2v9.2h-5.2v3.6h7.1v2.2H164.7z M177,189.5h-7.6v4.8h7.6V189.5z"/>
	<path class="st14" d="M184.3,198.1l-1.1-2.2c2.3-0.5,4.1-1.5,5.2-2.9l-4.8,0.4l-0.4-2.2l6.3-0.1c0.1-0.4,0.2-0.8,0.2-1.3h-5.4v-2.3
		h8.4C192.5,193.3,189.6,196.7,184.3,198.1z M185.8,204.1v-5.8h2.8v3.7h10.1v2.2H185.8z M192.5,193.7v-2.2h3.1v-5.5h2.8v13.7h-2.8
		v-6H192.5z"/>
	<path class="st14" d="M208,201.4l-1.6-2.2c4.1-1.9,6.7-5.5,7.1-9.1h-5.9v-2.3h8.9C216.3,193.3,214.1,198,208,201.4z M219.4,204.6
		v-18.7h2.8v18.7H219.4z"/>
	<path class="st14" d="M224.8,196.3v-2.2h16.9v2.2H224.8z M233.2,204.5c-4.1,0-6.5-1.4-6.5-3.6c0-2.2,2.4-3.6,6.5-3.6
		c4.1,0,6.6,1.4,6.6,3.6C239.7,203.1,237.3,204.5,233.2,204.5z M227,192.7v-6.4h2.8v4.3h9.8v2.2H227z M233.2,199.5
		c-2.2,0-3.6,0.6-3.6,1.4c0,0.8,1.4,1.4,3.6,1.4c2.2,0,3.7-0.6,3.7-1.4C236.9,200.1,235.4,199.5,233.2,199.5z"/>
</g>
<rect x="57.2" y="215.2" class="st12" width="277.8" height="108.5"/>
<g class="st13">
	<path class="st7" d="M125.7,222.9h-4.3v-6.6h4.3V222.9z M124.6,217.3h-2v4.6h2V217.3z M128.9,225.8v-5.4h-1v4.9h-1.2v-10h1.2v4h1
		v-4.2h1.2v10.7H128.9z"/>
	<path class="st7" d="M132,217h5.6v1h-2.1c0.2,1.3,1.3,2,2.4,2.3l-0.6,1c-0.9-0.3-2-1-2.4-2c-0.4,1-1.5,1.9-2.6,2.3l-0.7-1
		c1.4-0.4,2.4-1.3,2.6-2.6H132V217z M136.8,225.7c-2.3,0-3.6-0.8-3.6-2c0-1.2,1.3-2,3.6-2c2.3,0,3.6,0.8,3.6,2
		C140.4,224.9,139.1,225.7,136.8,225.7z M133.3,215.3h3v1h-3V215.3z M134.4,223.7c0,0.6,0.9,1,2.4,1c1.5,0,2.4-0.4,2.4-1
		c0-0.6-0.8-1.1-2.4-1.1C135.3,222.7,134.4,223.1,134.4,223.7z M139.1,221.6v-6.5h1.2v6.5H139.1z"/>
	<path class="st7" d="M149,221.4c-2.3,0.3-4.6,0.4-7,0.4l-0.2-1c0.9,0,2,0,3,0v-1.3h-1.9v-3.6h5v1h-3.8v1.6h3.9v1H146v1.3
		c1.1,0,2.2-0.1,2.9-0.2L149,221.4z M143.7,225.4v-3h1.2v2h5.9v1H143.7z M150.7,223h-1.2v-7.9h1.2V223z"/>
	<path class="st7" d="M162,220.7c-2,0.3-4.4,0.4-6.7,0.4l-0.2-1c0.6,0,1.4,0,2.2,0v-2.1h1.2v2.1h0c1.1,0,2.6-0.2,3.4-0.3L162,220.7z
		 M160.9,219.2l-1.2-0.2c0.1-0.7,0.3-1.6,0.3-2.4h-4.1v-1h5.3C161.2,217.1,161.1,218.2,160.9,219.2z M160.2,225.7
		c-2.3,0-3.6-0.8-3.6-2s1.4-2,3.6-2c2.2,0,3.6,0.8,3.6,2S162.5,225.7,160.2,225.7z M157.9,223.7c0,0.6,0.9,1,2.4,1
		c1.5,0,2.4-0.4,2.4-1s-0.9-1-2.4-1C158.8,222.7,157.9,223.1,157.9,223.7z M163.8,217.9h1.5v1h-1.5v2.6h-1.2v-6.5h1.2V217.9z"/>
	<path class="st7" d="M165.8,224.2v-1h3.6v-3.7h1.2v3.7h4.8v1H165.8z M173.8,222.1l-1.2-0.2c0.3-1.4,0.4-3.4,0.4-4.8h-6.1v-1h7.3
		C174.2,217.9,174.2,220.3,173.8,222.1z"/>
	<path class="st7" d="M176.2,220.9V220h9.7v0.9H176.2z M177.4,225.7v-2.5h6v-0.7h-6v-0.9h7.2v2.5h-6v0.7h6.2v0.9H177.4z
		 M177.4,219.3v-2.4h5.9v-0.7h-5.9v-0.9h7.1v2.4h-5.9v0.7h6.1v0.9H177.4z"/>
	<path class="st7" d="M189.6,217.9v-1h6.2v1H189.6z M192.7,222.1c-1.4,0-2.5-0.7-2.5-1.9c0-1.1,1.1-1.9,2.5-1.9
		c1.4,0,2.5,0.8,2.5,1.9C195.2,221.3,194.2,222.1,192.7,222.1z M191.2,215.3h3.1v1h-3.1V215.3z M191.2,225.5v-2.9h1.2v1.9h5.9v1
		H191.2z M192.7,219.3c-0.8,0-1.4,0.4-1.4,0.9c0,0.6,0.6,0.9,1.4,0.9c0.7,0,1.3-0.3,1.3-0.9C194.1,219.6,193.5,219.3,192.7,219.3z
		 M198,218.4h1.6v1H198v3.5h-1.2v-7.9h1.2V218.4z"/>
	<path class="st7" d="M204.4,223.3v-2h-4.3v-1h9.7v1h-4.1v2H204.4z M201.3,225.5v-3.1h1.2v2.1h6.1v1H201.3z M201.4,219v-3.6h1.2v2.6
		h6v1H201.4z"/>
	<path class="st7" d="M216.2,225.3v-5h-1.1c-0.1,1.8-0.8,3.2-2.3,3.2c-1.6,0-2.3-1.7-2.3-3.8c0-2,0.7-3.7,2.3-3.7
		c1.5,0,2.2,1.4,2.3,3.3h1.1v-3.9h1.2v10H216.2z M212.9,217c-0.8,0-1.1,1.1-1.1,2.7s0.4,2.7,1.1,2.7c0.8,0,1.1-1.1,1.1-2.7
		S213.7,217,212.9,217z M218.3,225.8v-10.7h1.2v10.7H218.3z"/>
	<path class="st7" d="M229.4,218.7v0.9h4.2v1H224v-1h4.2v-0.9h-3v-3.6h1.2v0.9h4.7v-0.9h1.2v3.6H229.4z M225.2,225.7v-2.6h6v-0.7h-6
		v-1h7.2v2.6h-5.9v0.7h6.3v1H225.2z M231.2,217h-4.7v0.8h4.7V217z"/>
	<path class="st7" d="M241.7,225.8v-3.9h-4.2v-1h9.7v1H243v3.9H241.7z M246.2,219.9c-1.6-0.3-3.3-1.3-3.8-2.5
		c-0.5,1.2-2.2,2.2-3.8,2.5l-0.5-1c1.9-0.2,3.7-1.5,3.7-3v-0.5h1.3v0.5c0,1.5,2,2.8,3.8,3L246.2,219.9z"/>
	<path class="st7" d="M254.1,220.7c-1.5,0-2.7-0.9-2.7-2.5c0-1.5,1.2-2.5,2.7-2.5c1.5,0,2.7,1,2.7,2.5
		C256.8,219.7,255.6,220.7,254.1,220.7z M254.4,223.7c-0.3,0.9-1.1,1.7-2.1,2.1l-0.7-0.8c1.1-0.5,2.1-1.5,2.1-2.9v-0.5h1.2v0.4
		c0,1.1,0.8,1.7,1.4,1.9l-0.8,0.9C255.1,224.6,254.6,224.2,254.4,223.7z M254.1,216.7c-0.9,0-1.5,0.7-1.5,1.5c0,0.9,0.6,1.5,1.5,1.5
		c0.9,0,1.5-0.7,1.5-1.5C255.6,217.4,255,216.7,254.1,216.7z M260.2,225.7c-0.7-0.3-1.6-1.1-1.9-1.9c-0.2,0.8-1.2,1.7-2,2.1
		l-0.7-0.8c1.2-0.6,2.1-1.7,2.1-3v-0.5h1.2v0.5c0,1.3,0.8,2.4,2,2.8L260.2,225.7z M259.9,215.1v6h-1.2v-6H259.9z"/>
	<path class="st7" d="M261.5,224.2v-1h3.6v-3.7h1.2v3.7h4.8v1H261.5z M269.4,222.1l-1.2-0.2c0.3-1.4,0.4-3.4,0.4-4.8h-6.1v-1h7.3
		C269.9,217.9,269.9,220.3,269.4,222.1z"/>
</g>
<g class="st13">
	<path class="st7" d="M101.9,234.7c-0.9-0.3-2-1.2-2.4-2.2c-0.3,1.1-1.4,2.1-2.5,2.5l-0.7-0.9c1.5-0.6,2.6-1.8,2.6-3.4v-0.9h1.3v0.8
		c0,1.7,1.3,2.8,2.5,3.2L101.9,234.7z M97.9,240.1v-2.8h5.7v-0.9h-5.8v-1h7v2.7h-5.7v0.9h6.1v1H97.9z M103.7,234.9v-5.4h1.2v5.4
		H103.7z"/>
	<path class="st7" d="M112.3,237.7c-0.9-0.6-2.1-1.9-2.4-3.1c-0.4,1.3-1.4,2.6-2.6,3.3l-0.8-0.9c1.7-1.1,2.7-2.8,2.7-4.9v-1.8h1.3
		v1.7c0,2.1,1,3.7,2.6,4.7L112.3,237.7z M114.1,240.2v-10.7h1.2v10.7H114.1z"/>
	<path class="st7" d="M117.4,236l-0.6-1c1.9-0.4,3.8-1.8,4.1-3.7h-3.6v-1h4.9C122.1,233.3,120,235.3,117.4,236z M118.4,239.8v-3.4
		h1.2v2.4h5.9v1H118.4z M125.2,233.6v3.7h-1.2v-7.8h1.2v3.1h1.6v1H125.2z"/>
	<path class="st7" d="M127.3,238.7v-1h9.7v1H127.3z M132.1,235.7c-2.3,0-3.9-1.1-3.9-2.7c0-1.6,1.5-2.7,3.9-2.7
		c2.4,0,3.9,1.1,3.9,2.7C136,234.6,134.4,235.7,132.1,235.7z M132.1,231.3c-1.6,0-2.6,0.7-2.6,1.7c0,1,1,1.7,2.6,1.7
		c1.6,0,2.6-0.7,2.6-1.7C134.7,232,133.7,231.3,132.1,231.3z"/>
	<path class="st7" d="M143.1,236v1.8h4.2v1h-9.7v-1h4.2V236h-3v-3.5h5.9v-1.4h-6v-1h7.2v3.4h-5.9v1.5h6.2v1H143.1z"/>
	<path class="st7" d="M157.8,235.1c-2,0.3-4.4,0.4-6.7,0.4l-0.2-1c0.6,0,1.4,0,2.2,0v-2.1h1.2v2.1h0c1.1,0,2.6-0.2,3.4-0.3
		L157.8,235.1z M156.7,233.6l-1.2-0.2c0.1-0.7,0.3-1.6,0.3-2.4h-4.1v-1h5.3C157,231.5,156.9,232.6,156.7,233.6z M156,240.1
		c-2.3,0-3.6-0.8-3.6-2s1.4-2,3.6-2c2.2,0,3.6,0.8,3.6,2S158.3,240.1,156,240.1z M153.7,238.1c0,0.6,0.9,1,2.4,1
		c1.5,0,2.4-0.4,2.4-1s-0.9-1-2.4-1C154.5,237.1,153.7,237.5,153.7,238.1z M159.6,232.3h1.5v1h-1.5v2.6h-1.2v-6.5h1.2V232.3z"/>
	<path class="st7" d="M161.5,238.6v-1h3.6v-3.7h1.2v3.7h4.8v1H161.5z M169.5,236.5l-1.2-0.2c0.3-1.4,0.4-3.4,0.4-4.8h-6.1v-1h7.3
		C170,232.3,170,234.7,169.5,236.5z"/>
	<path class="st7" d="M171.9,235.3v-0.9h9.7v0.9H171.9z M173.2,240.1v-2.5h6v-0.7h-6V236h7.2v2.5h-6v0.7h6.2v0.9H173.2z
		 M173.2,233.7v-2.4h5.9v-0.7h-5.9v-0.9h7.1v2.4h-5.9v0.7h6.1v0.9H173.2z"/>
	<path class="st7" d="M185.6,234.7v-0.2c0-2.6,1.4-4.1,3.7-4.1c2.2,0,3.6,1.4,3.6,4.1v0.2c0,2.6-1.4,4.1-3.7,4.1
		C187,238.8,185.6,237.4,185.6,234.7z M191.6,234.9v-0.4c0-1.9-0.6-3.1-2.4-3.2c-1.6,0-2.3,1.2-2.3,2.9v0.4c0,1.9,0.6,3.2,2.4,3.2
		C190.9,237.9,191.6,236.6,191.6,234.9z"/>
	<path class="st7" d="M194.4,230.5h1.4l3.6,6.2h0v-6.2h1.1v8.2h-1.2l-3.8-6.5h0v6.5h-1.1V230.5z"/>
	<path class="st7" d="M204.5,229.8h1.1l-2.9,10.2h-1.1L204.5,229.8z"/>
	<path class="st7" d="M206.3,234.7v-0.2c0-2.6,1.4-4.1,3.7-4.1c2.2,0,3.6,1.4,3.6,4.1v0.2c0,2.6-1.4,4.1-3.7,4.1
		C207.7,238.8,206.3,237.4,206.3,234.7z M212.3,234.9v-0.4c0-1.9-0.6-3.1-2.4-3.2c-1.6,0-2.3,1.2-2.3,2.9v0.4c0,1.9,0.6,3.2,2.4,3.2
		C211.5,237.9,212.3,236.6,212.3,234.9z"/>
	<path class="st7" d="M215.1,230.5h4.9v1h-3.7v2.6h2.8v1h-2.8v3.5h-1.2V230.5z"/>
	<path class="st7" d="M221.4,230.5h4.9v1h-3.7v2.6h2.8v1h-2.8v3.5h-1.2V230.5z"/>
	<path class="st7" d="M227,231.9V231h6.2v0.9H227z M230.1,235.5c-1.4,0-2.5-0.6-2.5-1.6c0-1,1.1-1.6,2.5-1.6c1.4,0,2.5,0.6,2.5,1.6
		C232.6,234.9,231.5,235.5,230.1,235.5z M228.5,240.1v-2.5h5.6V237h-5.7v-0.9h6.9v2.5h-5.6v0.6h6v0.9H228.5z M228.5,229.5h3.1v0.9
		h-3.1V229.5z M230.1,233.2c-0.7,0-1.3,0.3-1.3,0.7c0,0.5,0.6,0.8,1.3,0.8c0.7,0,1.3-0.3,1.3-0.8
		C231.4,233.4,230.8,233.2,230.1,233.2z M235.4,233v2.5h-1.2v-6h1.2v2.5h1.6v1H235.4z"/>
	<path class="st7" d="M244.8,240.2v-3.9h-4.2v-1h9.7v1H246v3.9H244.8z M249.3,234.3c-1.6-0.3-3.3-1.3-3.8-2.5
		c-0.5,1.2-2.2,2.2-3.8,2.5l-0.5-1c1.9-0.2,3.7-1.5,3.7-3v-0.5h1.3v0.5c0,1.5,2,2.8,3.8,3L249.3,234.3z"/>
	<path class="st7" d="M257.2,235.1c-1.5,0-2.7-0.9-2.7-2.5c0-1.5,1.2-2.5,2.7-2.5c1.5,0,2.7,1,2.7,2.5
		C259.9,234.1,258.7,235.1,257.2,235.1z M257.5,238.1c-0.3,0.9-1.1,1.7-2.1,2.1l-0.7-0.8c1.1-0.5,2.1-1.5,2.1-2.9V236h1.2v0.4
		c0,1.1,0.8,1.7,1.4,1.9l-0.8,0.9C258.2,239,257.7,238.6,257.5,238.1z M257.2,231.1c-0.9,0-1.5,0.7-1.5,1.5c0,0.9,0.6,1.5,1.5,1.5
		c0.9,0,1.5-0.7,1.5-1.5C258.7,231.8,258.1,231.1,257.2,231.1z M263.3,240.1c-0.7-0.3-1.6-1.1-1.9-1.9c-0.2,0.8-1.2,1.7-2,2.1
		l-0.7-0.8c1.2-0.6,2.1-1.7,2.1-3V236h1.2v0.5c0,1.3,0.8,2.4,2,2.8L263.3,240.1z M262.9,229.5v6h-1.2v-6H262.9z"/>
	<path class="st7" d="M264.5,235.2v-1h9.7v1H264.5z M273.2,233.6c-1.5-0.2-3.3-1.1-3.8-2.3c-0.5,1.2-2.3,2.1-3.8,2.3l-0.5-1
		c1.7-0.2,3.7-1.2,3.7-2.8v-0.3h1.3v0.3c0,1.6,2.2,2.7,3.7,2.8L273.2,233.6z M265.8,240v-4.1h1.2v1.1h4.7v-1.1h1.2v4.1H265.8z
		 M271.7,238H267v1h4.7V238z"/>
	<path class="st7" d="M281.6,237.1c-1.3,0.3-3.6,0.5-5,0.5h-1.1v-7h1.2v5.9c1.4,0,3.5-0.2,4.7-0.5L281.6,237.1z M282.4,240.2v-10.7
		h1.2v10.7H282.4z"/>
	<path class="st7" d="M291.5,237.2c-1.2,0.2-2.9,0.4-4.7,0.4h-1.1v-7.1h4.9v1h-3.6v5c1.3,0,3.1,0,4.4-0.3L291.5,237.2z M293.6,234.6
		v5.6h-1.2v-10.7h1.2v4.1h1.6v1H293.6z"/>
</g>
<rect x="95.2" y="271.4" class="st12" width="197.9" height="60.9"/>
<text transform="matrix(1 0 0 1 124.1208 288.2482)" class="st14 st15 st16">아프리카TV 연동</text>
<rect x="57.2" y="299.9" class="st12" width="277.8" height="108.5"/>
<g class="st13">
	<path class="st7" d="M132,300.6c1.7,0,2.7,1.5,2.7,3.8c0,2.2-1,3.7-2.7,3.7c-1.7,0-2.7-1.5-2.7-3.7S130.3,300.6,132,300.6z
		 M132,301.6c-0.9,0-1.5,1-1.5,2.7s0.6,2.7,1.5,2.7c0.9,0,1.5-1,1.5-2.7S132.9,301.6,132,301.6z M136.5,310.4v-10.7h1.2v10.7H136.5z
		"/>
	<path class="st7" d="M143.9,308c-0.7-0.5-1.7-1.6-1.9-2.6c-0.2,1.1-1.2,2.3-2.1,2.9l-0.8-0.8c1.4-0.9,2.3-2.5,2.3-4.6V302h-1.9v-1
		h4.8v1h-1.8v0.8c0,2.1,0.9,3.6,2.1,4.3L143.9,308z M145.1,309.9v-5.4h-1.5v-1h1.5V300h1.2v10H145.1z M147.2,310.4v-10.7h1.2v10.7
		H147.2z"/>
	<path class="st7" d="M155.7,300.6c1.7,0,2.7,1.5,2.7,3.8c0,2.2-1,3.7-2.7,3.7c-1.7,0-2.7-1.5-2.7-3.7S154,300.6,155.7,300.6z
		 M155.7,301.6c-0.9,0-1.5,1-1.5,2.7s0.6,2.7,1.5,2.7c0.9,0,1.5-1,1.5-2.7S156.6,301.6,155.7,301.6z M161.2,303.9h1.7v1h-1.7v5.5
		h-1.2v-10.7h1.2V303.9z"/>
	<path class="st7" d="M163.2,309v-1h9.7v1H163.2z M164.1,301.6v-1h7.8v1H164.1z M164.1,306v-1h1.7l-0.3-2.6l1.2-0.1l0.2,2.7h2.2
		l0.4-2.7l1.2,0.2l-0.4,2.6h1.6v1H164.1z"/>
	<path class="st7" d="M180.3,307.6c-1.2,0.2-2.9,0.3-4.8,0.3l-1.3,0v-4.3h3.6v-2h-3.7v-1h4.9v3.9h-3.6v2.3c1.3,0,3.4-0.1,4.8-0.3
		L180.3,307.6z M181.2,310.4v-10.7h1.2v10.7H181.2z"/>
	<path class="st7" d="M184.7,308.6l-0.8-0.9c1.5-0.7,2.8-1.8,3.6-3.3l-3.1,0.3l-0.2-1.1l3.7-0.3c0.1-0.5,0.2-1,0.3-1.5h-3.5v-1h4.7
		C189.4,304.5,187.7,307,184.7,308.6z M192.3,303.9h1.7v1h-1.7v5.5h-1.2v-10.7h1.2V303.9z"/>
	<path class="st7" d="M196.7,301.8h-2.4v-1h6v1h-2.4v7.2h-1.2V301.8z"/>
	<path class="st7" d="M200.9,300.8h1.3l2.3,6.6h0l2.3-6.6h1.2l-2.9,8.2h-1.2L200.9,300.8z"/>
	<path class="st7" d="M214,305.5v2.6h4.2v1h-9.7v-1h4.2v-2.6h-2.9v-4.9h7.1v1H211v2.9h6v1H214z"/>
	<path class="st7" d="M225,305.8c-1.6,0-2.7-1.1-2.7-2.6c0-1.5,1.1-2.6,2.7-2.6c1.6,0,2.7,1.1,2.7,2.6
		C227.8,304.7,226.7,305.8,225,305.8z M225,301.6c-0.9,0-1.5,0.7-1.5,1.6c0,0.9,0.6,1.6,1.5,1.6c0.9,0,1.5-0.7,1.5-1.6
		C226.5,302.2,225.9,301.6,225,301.6z M223.8,310.1v-3.3h1.2v2.4h6v1H223.8z M228,303.9h1.7v-1.7H228l0-1h1.7v-1.5h1.2v7.7h-1.2
		v-2.6H228L228,303.9z"/>
	<path class="st7" d="M237.9,303.7v1.1h4.2v1h-9.7v-1h4.2v-1.1h-2.9V300h7.1v1H235v1.7h6v1H237.9z M237.3,310.5
		c-2.4,0-3.7-0.8-3.7-2c0-1.2,1.3-1.9,3.7-1.9c2.4,0,3.7,0.8,3.7,1.9C241,309.7,239.6,310.5,237.3,310.5z M237.3,307.5
		c-1.5,0-2.4,0.4-2.4,1s0.9,0.9,2.4,0.9c1.5,0,2.4-0.3,2.4-0.9S238.8,307.5,237.3,307.5z"/>
	<path class="st7" d="M242.8,303.2v-1h6.2v1H242.8z M245.9,308.3c-1.5,0-2.6-1-2.6-2.3c0-1.3,1-2.3,2.6-2.3c1.5,0,2.5,1,2.5,2.3
		C248.4,307.3,247.4,308.3,245.9,308.3z M244.3,300.4h3.2v1h-3.2V300.4z M245.9,304.8c-0.8,0-1.3,0.5-1.3,1.3c0,0.7,0.6,1.3,1.3,1.3
		c0.8,0,1.3-0.5,1.3-1.3C247.2,305.3,246.7,304.8,245.9,304.8z M251.1,304.1h1.7v1h-1.7v5.3h-1.2v-10.7h1.2V304.1z"/>
	<path class="st7" d="M256,300.6c1.7,0,2.7,1.5,2.7,3.8c0,2.2-1,3.8-2.7,3.8s-2.7-1.5-2.7-3.8C253.3,302.1,254.4,300.6,256,300.6z
		 M256,301.5c-0.9,0-1.5,1.1-1.5,2.8c0,1.7,0.6,2.8,1.5,2.8c0.9,0,1.5-1.1,1.5-2.8C257.5,302.6,256.9,301.5,256,301.5z M259.1,305.4
		h1.7V303h-1.7l0-1h1.7v-2.2h1.2v10.7h-1.2v-4h-1.7L259.1,305.4z"/>
</g>
<g class="st13">
	<path class="st7" d="M141.3,319.7c-2,0.3-4.4,0.4-6.7,0.4l-0.2-1c0.6,0,1.4,0,2.2,0V317h1.2v2.1h0c1.1,0,2.6-0.2,3.4-0.3
		L141.3,319.7z M140.2,318.3l-1.2-0.2c0.1-0.7,0.3-1.6,0.3-2.4h-4.1v-1h5.3C140.5,316.2,140.4,317.3,140.2,318.3z M139.5,324.8
		c-2.3,0-3.6-0.8-3.6-2s1.4-2,3.6-2c2.2,0,3.6,0.8,3.6,2S141.7,324.8,139.5,324.8z M137.1,322.8c0,0.6,0.9,1,2.4,1
		c1.5,0,2.4-0.4,2.4-1s-0.9-1-2.4-1C138,321.8,137.1,322.2,137.1,322.8z M143,317h1.5v1H143v2.6h-1.2v-6.5h1.2V317z"/>
	<path class="st7" d="M145,323.3v-1h3.6v-3.7h1.2v3.7h4.8v1H145z M153,321.2l-1.2-0.2c0.3-1.4,0.4-3.4,0.4-4.8h-6.1v-1h7.3
		C153.5,317,153.4,319.4,153,321.2z"/>
	<path class="st7" d="M155.4,320v-0.9h9.7v0.9H155.4z M156.6,324.8v-2.5h6v-0.7h-6v-0.9h7.2v2.5h-6v0.7h6.2v0.9H156.6z M156.7,318.4
		V316h5.9v-0.7h-5.9v-0.9h7.1v2.4h-5.9v0.7h6.1v0.9H156.7z"/>
	<path class="st7" d="M168.9,320.2v-1h4.2v-1.5h1.2v1.5h4.2v1H168.9z M177.7,318.4c-1.5-0.2-3.3-1.2-3.9-2.4
		c-0.5,1.2-2.2,2.1-3.9,2.4l-0.5-1c1.8-0.2,3.8-1.2,3.8-2.8v-0.3h1.3v0.3c0,1.6,2.3,2.7,3.8,2.8L177.7,318.4z M173.8,324.9
		c-2.4,0-3.7-0.8-3.7-2s1.3-2,3.7-2c2.4,0,3.7,0.8,3.7,2S176.1,324.9,173.8,324.9z M173.8,321.9c-1.5,0-2.4,0.4-2.4,1
		c0,0.6,0.9,1,2.4,1c1.5,0,2.4-0.4,2.4-1C176.2,322.3,175.3,321.9,173.8,321.9z"/>
	<path class="st7" d="M180.6,324.8v-2.5h5.9v-0.6h-5.9v-0.9h3V320h-4.2v-0.9h9.7v0.9h-4.2v0.7h3v2.4h-5.9v0.7h6.3v0.9H180.6z
		 M188,318.7c-1.7-0.2-3.3-0.8-3.9-1.6c-0.6,0.9-2.2,1.5-3.9,1.6l-0.5-1c1.6,0,3.2-0.5,3.7-1.3h-3.1v-0.9h7.7v0.9h-3.1
		c0.5,0.7,2.1,1.3,3.6,1.3L188,318.7z M182.4,314.1h3.5v0.9h-3.5V314.1z"/>
	<path class="st7" d="M189.6,316.6v-0.9h6.2v0.9H189.6z M192.7,320.2c-1.4,0-2.5-0.6-2.5-1.6c0-1,1.1-1.6,2.5-1.6
		c1.4,0,2.5,0.6,2.5,1.6C195.2,319.6,194.2,320.2,192.7,320.2z M191.1,324.8v-2.5h5.6v-0.7h-5.7v-0.9h6.9v2.5h-5.6v0.6h6v0.9H191.1z
		 M191.2,314.1h3.1v0.9h-3.1V314.1z M192.7,317.8c-0.7,0-1.3,0.3-1.3,0.7c0,0.5,0.6,0.8,1.3,0.8c0.7,0,1.3-0.3,1.3-0.8
		C194,318.1,193.4,317.8,192.7,317.8z M198,317.7v2.5h-1.2v-6h1.2v2.5h1.6v1H198z"/>
	<path class="st7" d="M207.4,324.9V321h-4.2v-1h9.7v1h-4.2v3.9H207.4z M211.9,318.9c-1.6-0.3-3.3-1.3-3.8-2.5
		c-0.5,1.2-2.2,2.2-3.8,2.5l-0.5-1c1.9-0.2,3.7-1.5,3.7-3v-0.5h1.3v0.5c0,1.5,2,2.8,3.8,3L211.9,318.9z"/>
	<path class="st7" d="M219.8,319.7c-1.5,0-2.7-0.9-2.7-2.5c0-1.5,1.2-2.5,2.7-2.5c1.5,0,2.7,1,2.7,2.5
		C222.5,318.8,221.3,319.7,219.8,319.7z M220.1,322.8c-0.3,0.9-1.1,1.7-2.1,2.1l-0.7-0.8c1.1-0.5,2.1-1.5,2.1-2.9v-0.5h1.2v0.4
		c0,1.1,0.8,1.7,1.4,1.9l-0.8,0.9C220.8,323.7,220.3,323.3,220.1,322.8z M219.8,315.8c-0.9,0-1.5,0.7-1.5,1.5c0,0.9,0.6,1.5,1.5,1.5
		c0.9,0,1.5-0.7,1.5-1.5C221.3,316.4,220.7,315.8,219.8,315.8z M225.9,324.8c-0.7-0.3-1.6-1.1-1.9-1.9c-0.2,0.8-1.2,1.7-2,2.1
		l-0.7-0.8c1.2-0.6,2.1-1.7,2.1-3v-0.5h1.2v0.5c0,1.3,0.8,2.4,2,2.8L225.9,324.8z M225.6,314.2v6h-1.2v-6H225.6z"/>
	<path class="st7" d="M227.2,319.9v-1h9.7v1H227.2z M235.8,318.3c-1.5-0.2-3.3-1.1-3.8-2.3c-0.5,1.2-2.3,2.1-3.9,2.3l-0.5-1
		c1.7-0.2,3.7-1.2,3.7-2.8v-0.3h1.3v0.3c0,1.6,2.2,2.7,3.7,2.8L235.8,318.3z M228.4,324.7v-4.1h1.2v1.1h4.7v-1.1h1.2v4.1H228.4z
		 M234.3,322.7h-4.7v1h4.7V322.7z"/>
	<path class="st7" d="M244.2,321.8c-1.3,0.3-3.6,0.5-5,0.5h-1.1v-7h1.2v5.9c1.4,0,3.5-0.2,4.7-0.5L244.2,321.8z M245.1,324.8v-10.7
		h1.2v10.7H245.1z"/>
	<path class="st7" d="M254.1,321.9c-1.2,0.2-2.9,0.4-4.7,0.4h-1.1v-7.1h4.9v1h-3.6v5c1.3,0,3.1,0,4.4-0.3L254.1,321.9z M256.2,319.3
		v5.6H255v-10.7h1.2v4.1h1.6v1H256.2z"/>
</g>
<rect x="57.2" y="384.1" class="st12" width="277.8" height="108.5"/>
<g class="st13">
	<path class="st7" d="M146.8,388.6v0.9h4.2v1h-9.7v-1h4.2v-0.9h-2.9v-4.3h7.1v1h-5.9v0.7h5.5v0.9h-5.5v0.7h6v1H146.8z M146.3,394.8
		c-2.5,0-3.7-0.8-3.7-1.9c0-1.1,1.2-1.9,3.7-1.9c2.5,0,3.7,0.8,3.7,1.9C150,394,148.8,394.8,146.3,394.8z M146.2,392
		c-1.5,0-2.4,0.3-2.4,0.9c0,0.6,0.9,0.9,2.4,0.9c1.5,0,2.4-0.3,2.4-0.9C148.7,392.3,147.8,392,146.2,392z"/>
	<path class="st7" d="M151.7,386.5v-0.9h6.2v0.9H151.7z M154.8,390.3c-1.5,0-2.5-0.7-2.5-1.7c0-1,1-1.7,2.5-1.7
		c1.5,0,2.5,0.7,2.5,1.7C157.3,389.6,156.3,390.3,154.8,390.3z M153.2,394.6v-3.9h1.2v1h4.4v-1h1.2v3.9H153.2z M153.3,384h3.1v0.9
		h-3.1V384z M154.8,387.8c-0.7,0-1.4,0.3-1.4,0.8s0.7,0.8,1.4,0.8s1.3-0.3,1.3-0.8S155.5,387.8,154.8,387.8z M158.9,392.7h-4.4v0.9
		h4.4V392.7z M160.1,387.7v2.4h-1.2V384h1.2v2.7h1.6v1H160.1z"/>
	<path class="st7" d="M169.3,390.3c-2.3,0.3-4.6,0.4-7,0.4l-0.2-1c0.9,0,2,0,3,0v-1.3h-1.9v-3.6h5v1h-3.8v1.6h3.9v1h-1.9v1.3
		c1.1,0,2.2-0.1,2.9-0.2L169.3,390.3z M164,394.4v-3h1.2v2h5.9v1H164z M171,391.9h-1.2V384h1.2V391.9z"/>
	<path class="st7" d="M181.1,388.5v1h4.2v1h-9.7v-1h4.2v-1c-1.9-0.1-3.1-0.9-3.1-2.1c0-1.3,1.4-2.1,3.7-2.1c2.3,0,3.7,0.9,3.7,2.1
		C184.2,387.5,183.1,388.3,181.1,388.5z M176.9,394.4v-3.1h1.2v2.1h6.1v1H176.9z M180.5,385.2c-1.5,0-2.4,0.4-2.4,1.2
		c0,0.7,0.9,1.1,2.4,1.1c1.5,0,2.4-0.4,2.4-1.1C183,385.6,182,385.2,180.5,385.2z"/>
	<path class="st7" d="M188.5,392.4c-1.6,0-2.3-1.8-2.3-3.8c0-2,0.7-3.8,2.3-3.8c1.6,0,2.3,1.7,2.3,3.8
		C190.8,390.6,190.1,392.4,188.5,392.4z M188.5,385.9c-0.8,0-1.1,1.2-1.1,2.7s0.4,2.7,1.1,2.7c0.8,0,1.1-1.1,1.1-2.7
		S189.3,385.9,188.5,385.9z M193.9,394.7v-5.5h-1.1v5h-1.2v-10h1.2v4h1.1V384h1.2v10.7H193.9z"/>
	<path class="st7" d="M206.1,393.3h-9.7v-1h9.7V393.3z M197.7,389.9V385h7.2v1h-5.9v3h6.1v1H197.7z"/>
	<path class="st7" d="M210.6,392.5l-0.8-0.9c2.1-1.3,3.3-3.2,3.5-5.4h-2.8v-1h4.1C214.5,388.5,213.2,390.8,210.6,392.5z
		 M215.8,394.2v-3.7h-1.5v-1h1.5v-1.7h-1.2v-1h1.2v-2.6h1.2v10H215.8z M217.8,394.7V384h1.2v10.7H217.8z"/>
	<path class="st7" d="M220.8,384.7h5.6v1h-2.1v0c0,1.6,1.2,2.8,2.4,3.2l-0.7,1c-0.9-0.3-1.9-1.2-2.4-2.2c-0.3,1-1.5,2.1-2.5,2.5
		l-0.7-1c1.5-0.6,2.6-1.8,2.6-3.4v-0.1h-2.2V384.7z M225.6,394.7c-2.3,0-3.6-0.8-3.6-2.1c0-1.3,1.3-2.1,3.6-2.1
		c2.3,0,3.6,0.8,3.6,2.1C229.3,393.8,227.9,394.7,225.6,394.7z M223.3,392.6c0,0.7,0.9,1.1,2.4,1.1c1.5,0,2.4-0.4,2.4-1.1
		c0-0.7-0.9-1.1-2.4-1.1C224.2,391.5,223.3,391.9,223.3,392.6z M226.2,386.6h1.7V384h1.2v6.4H228v-2.8h-1.7V386.6z"/>
	<path class="st7" d="M230.8,393.3v-1h9.7v1H230.8z M235.6,390.2c-2.3,0-3.9-1.1-3.9-2.7c0-1.6,1.5-2.7,3.9-2.7
		c2.4,0,3.9,1.1,3.9,2.7C239.5,389.1,237.9,390.2,235.6,390.2z M235.6,385.8c-1.6,0-2.6,0.7-2.6,1.7c0,1,1,1.7,2.6,1.7
		c1.6,0,2.6-0.7,2.6-1.7C238.2,386.5,237.2,385.8,235.6,385.8z"/>
	<path class="st7" d="M246.6,390.6v1.8h4.2v1h-9.7v-1h4.2v-1.8h-3v-3.5h5.9v-1.4h-6v-1h7.2v3.4h-5.9v1.5h6.2v1H246.6z"/>
</g>
<g class="st13">
	<path class="st7" d="M108.3,399.2c1.7,0,2.7,1.5,2.7,3.8c0,2.2-1,3.8-2.7,3.8s-2.7-1.5-2.7-3.8
		C105.6,400.7,106.7,399.2,108.3,399.2z M108.3,400.2c-0.9,0-1.5,1.1-1.5,2.8c0,1.7,0.6,2.8,1.5,2.8c0.9,0,1.5-1.1,1.5-2.8
		C109.8,401.2,109.2,400.2,108.3,400.2z M111.4,404.1h1.7v-2.4h-1.7l0-1h1.7v-2.2h1.2v10.7h-1.2v-4h-1.7L111.4,404.1z"/>
	<path class="st7" d="M121.9,406.3c-1.1,0.2-2.6,0.3-4.4,0.3h-1.2v-4.4h3.5v-1.9h-3.5v-1h4.7v3.9h-3.5v2.4c1.1,0,2.9-0.1,4.3-0.3
		L121.9,406.3z M121.7,403.5v-1h1.7v-4h1.2v10.7h-1.2v-5.6H121.7z"/>
	<path class="st7" d="M129.7,403.9v-4.9h1.2v1.5h2.5v-1.6h1.2v5H129.7z M134.3,409.1c-2.3,0-3.6-0.8-3.6-2.1c0-1.3,1.3-2.1,3.6-2.1
		c2.3,0,3.6,0.9,3.6,2.1C137.9,408.2,136.6,409.1,134.3,409.1z M133.5,401.5H131v1.4h2.5V401.5z M134.3,405.8
		c-1.5,0-2.3,0.4-2.3,1.1c0,0.7,0.9,1.1,2.3,1.1c1.5,0,2.4-0.4,2.4-1.1C136.6,406.2,135.7,405.8,134.3,405.8z M137.7,402v2.6h-1.2
		v-6.3h1.2v2.6h1.6v1H137.7z"/>
	<path class="st7" d="M139.8,404.4v-1h4.2V402h1.2v1.5h4.2v1H139.8z M148.5,402.6c-1.5-0.2-3.3-1.2-3.9-2.4
		c-0.5,1.2-2.2,2.1-3.9,2.4l-0.5-1c1.8-0.2,3.8-1.2,3.8-2.8v-0.3h1.3v0.3c0,1.6,2.3,2.7,3.8,2.8L148.5,402.6z M144.6,409.1
		c-2.4,0-3.7-0.8-3.7-2s1.3-2,3.7-2c2.4,0,3.7,0.8,3.7,2S147,409.1,144.6,409.1z M144.6,406.2c-1.5,0-2.4,0.4-2.4,1
		c0,0.6,0.9,1,2.4,1c1.5,0,2.4-0.4,2.4-1C147.1,406.5,146.1,406.2,144.6,406.2z"/>
	<path class="st7" d="M153.3,404.1v-1h9.7v1H153.3z M154.3,399.6v-1h7.7v1H154.3z M154.3,402.4v-1h1.6l-0.2-1.5l1.2-0.1l0.2,1.6h2.2
		l0.2-1.6l1.2,0.1l-0.3,1.5h1.6v1H154.3z M154.6,409v-2.5h5.9v-0.6h-5.9v-1h7.2v2.5h-5.9v0.7h6.3v1H154.6z"/>
	<path class="st7" d="M168.9,404.3c-1,0.2-2.6,0.3-3.9,0.3l-0.8,0v-3.3h2.8v-1.2h-2.8v-1h4.1v3.1h-2.8v1.4c0.9,0,2.5-0.1,3.3-0.3
		L168.9,404.3z M172.7,409.2c-1.5-0.3-3-1.4-3.5-2.3c-0.4,1-2,2.1-3.5,2.3l-0.6-1c1.7-0.2,3.5-1.2,3.5-2.8V405h1.3v0.4
		c0,1.5,1.8,2.5,3.4,2.8L172.7,409.2z M171.5,405.6v-3.5h-1v2.6h-1.2v-6.1h1.2v2.5h1v-2.7h1.2v7.2H171.5z"/>
	<path class="st7" d="M174.1,404.7v-1h4.2v-0.9h-3.2v-1h1.6l-0.3-1.7l1.2-0.2l0.2,1.9h2.2l0.3-1.9l1.2,0.2l-0.3,1.7h1.6v1h-3.2v0.9
		h4.2v1H174.1z M175,399.6v-1h7.7v1H175z M175.3,408.9v-3.5h7.2v3.5H175.3z M181.3,406.4h-4.7v1.6h4.7V406.4z"/>
	<path class="st7" d="M184.5,403.9v-1h9.7v1H184.5z M193.1,400.4c0,1.1-1.4,1.9-3.7,1.9c-2.4,0-3.7-0.8-3.7-1.9
		c0-1.1,1.3-1.9,3.7-1.9C191.7,398.5,193.1,399.2,193.1,400.4z M185.7,409v-2.6h5.9v-0.7h-6v-1h7.2v2.6h-5.9v0.8h6.3v1H185.7z
		 M186.9,400.4c0,0.6,0.9,0.9,2.4,0.9s2.5-0.4,2.5-0.9c0-0.6-0.9-1-2.5-1S186.9,399.8,186.9,400.4z"/>
	<path class="st7" d="M201,404.4c-1.6,0-2.7-1.1-2.7-2.6c0-1.5,1.1-2.6,2.7-2.6c1.6,0,2.7,1.1,2.7,2.6
		C203.7,403.3,202.6,404.4,201,404.4z M201,400.2c-0.9,0-1.5,0.7-1.5,1.6c0,0.9,0.6,1.6,1.5,1.6c0.9,0,1.5-0.7,1.5-1.6
		C202.5,400.9,201.9,400.2,201,400.2z M199.8,408.8v-3.3h1.2v2.4h6v1H199.8z M203.9,402.6h1.7v-1.7h-1.7l0-1h1.7v-1.5h1.2v7.7h-1.2
		v-2.6h-1.7L203.9,402.6z"/>
	<path class="st7" d="M213.8,402.3v1.1h4.2v1h-9.7v-1h4.2v-1.1h-2.9v-3.7h7.1v1h-5.9v1.7h6v1H213.8z M213.2,409.1
		c-2.4,0-3.7-0.8-3.7-2c0-1.2,1.3-1.9,3.7-1.9c2.4,0,3.7,0.8,3.7,1.9C216.9,408.3,215.6,409.1,213.2,409.1z M213.2,406.2
		c-1.5,0-2.4,0.4-2.4,1s0.9,0.9,2.4,0.9c1.5,0,2.4-0.3,2.4-0.9S214.7,406.2,213.2,406.2z"/>
	<path class="st7" d="M218.7,400.8v-0.9h6.2v0.9H218.7z M221.8,404.5c-1.4,0-2.5-0.6-2.5-1.6c0-1,1.1-1.6,2.5-1.6
		c1.4,0,2.5,0.6,2.5,1.6C224.3,403.9,223.2,404.5,221.8,404.5z M220.2,409v-2.5h5.6v-0.7h-5.7V405h6.9v2.5h-5.6v0.6h6v0.9H220.2z
		 M220.2,398.4h3.1v0.9h-3.1V398.4z M221.8,402.1c-0.7,0-1.3,0.3-1.3,0.7c0,0.5,0.6,0.8,1.3,0.8c0.7,0,1.3-0.3,1.3-0.8
		C223.1,402.4,222.5,402.1,221.8,402.1z M227.1,401.9v2.5h-1.2v-6h1.2v2.5h1.6v1H227.1z"/>
	<path class="st7" d="M236.5,409.1v-3.9h-4.2v-1h9.7v1h-4.2v3.9H236.5z M241,403.2c-1.6-0.3-3.3-1.3-3.8-2.5
		c-0.5,1.2-2.2,2.2-3.8,2.5l-0.5-1c1.9-0.2,3.7-1.5,3.7-3v-0.5h1.3v0.5c0,1.5,2,2.8,3.8,3L241,403.2z"/>
	<path class="st7" d="M248.9,404c-1.5,0-2.7-0.9-2.7-2.5c0-1.5,1.2-2.5,2.7-2.5c1.5,0,2.7,1,2.7,2.5C251.6,403,250.4,404,248.9,404z
		 M249.2,407.1c-0.3,0.9-1.1,1.7-2.1,2.1l-0.7-0.8c1.1-0.5,2.1-1.5,2.1-2.9v-0.5h1.2v0.4c0,1.1,0.8,1.7,1.4,1.9l-0.8,0.9
		C249.9,408,249.4,407.5,249.2,407.1z M248.9,400c-0.9,0-1.5,0.7-1.5,1.5c0,0.9,0.6,1.5,1.5,1.5c0.9,0,1.5-0.7,1.5-1.5
		C250.4,400.7,249.8,400,248.9,400z M255,409c-0.7-0.3-1.6-1.1-1.9-1.9c-0.2,0.8-1.2,1.7-2,2.1l-0.7-0.8c1.2-0.6,2.1-1.7,2.1-3v-0.5
		h1.2v0.5c0,1.3,0.8,2.4,2,2.8L255,409z M254.6,398.4v6h-1.2v-6H254.6z"/>
	<path class="st7" d="M256.2,404.2v-1h9.7v1H256.2z M264.9,402.5c-1.5-0.2-3.3-1.1-3.8-2.3c-0.5,1.2-2.3,2.1-3.9,2.3l-0.5-1
		c1.7-0.2,3.7-1.2,3.7-2.8v-0.3h1.3v0.3c0,1.6,2.2,2.7,3.7,2.8L264.9,402.5z M257.5,408.9v-4.1h1.2v1.1h4.7v-1.1h1.2v4.1H257.5z
		 M263.4,406.9h-4.7v1h4.7V406.9z"/>
	<path class="st7" d="M273.3,406c-1.3,0.3-3.6,0.5-5,0.5h-1.1v-7h1.2v5.9c1.4,0,3.5-0.2,4.7-0.5L273.3,406z M274.1,409.1v-10.7h1.2
		v10.7H274.1z"/>
	<path class="st7" d="M283.2,406.1c-1.2,0.2-2.9,0.4-4.7,0.4h-1.1v-7.1h4.9v1h-3.6v5c1.3,0,3.1,0,4.4-0.3L283.2,406.1z M285.3,403.5
		v5.6h-1.2v-10.7h1.2v4.1h1.6v1H285.3z"/>
</g>
<rect x="95.2" y="356.8" class="st12" width="197.9" height="60.9"/>
<g class="st13">
	<path class="st14" d="M156.3,365.1v1h7.1v2.2h-16.9v-2.2h7v-1h-4.9v-7.9h12.7v2.2h-9.9v0.8h9.5v2.1h-9.5v0.8h10.1v2.1H156.3z
		 M155,375.3c-4.8,0-6.7-1.4-6.7-3.3c0-1.9,1.9-3.3,6.7-3.3c4.8,0,6.7,1.4,6.7,3.3C161.7,373.9,159.8,375.3,155,375.3z M155,370.9
		c-2.2,0-3.8,0.5-3.8,1.2c0,0.7,1.5,1.1,3.8,1.1c2.3,0,3.8-0.4,3.8-1.1C158.8,371.3,157.3,370.9,155,370.9z"/>
	<path class="st14" d="M164.7,361.6v-2h10.9v2H164.7z M170.2,368c-2.7,0-4.5-1.3-4.5-3c0-1.7,1.8-3,4.5-3c2.6,0,4.5,1.3,4.5,3
		C174.7,366.6,172.8,368,170.2,368z M167,375.1v-6.5h2.8v1.3h6.9v-1.3h2.8v6.5H167z M167.4,356.9h5.5v2.1h-5.5V356.9z M170.2,366
		c1,0,1.7-0.4,1.7-1s-0.7-1.1-1.7-1.1c-1,0-1.7,0.4-1.7,1.1S169.1,366,170.2,366z M176.7,371.9h-6.9v1h6.9V371.9z M179.4,364.1v3.8
		h-2.8v-11.4h2.8v5.3h2.5v2.3H179.4z"/>
	<path class="st14" d="M198.2,368v2.7h7.1v2.2h-16.9v-2.2h7.1V368h-5v-6.4h9.9v-1.8h-9.9v-2.2h12.7v6.3h-9.9v2h10.4v2.2H198.2z"/>
	<path class="st14" d="M206.6,372.6v-2.2h16.9v2.2H206.6z M220.5,369.6l-2.7-0.3c0.3-1.9,0.8-6.2,0.7-8.8h-10.2v-2.2h12.9
		C221.3,362.9,220.9,367.3,220.5,369.6z"/>
	<path class="st14" d="M230.4,358c2.9,0,5.2,1.9,5.2,4.6c0,2.7-2.3,4.6-5.2,4.6c-2.9,0-5.2-1.9-5.2-4.6
		C225.2,359.8,227.5,358,230.4,358z M227.5,374.7v-6.1h2.8v3.9h10.3v2.2H227.5z M230.4,364.9c1.4,0,2.5-0.9,2.5-2.3
		c0-1.4-1.1-2.3-2.5-2.3c-1.4,0-2.5,0.9-2.5,2.3C227.9,364,229,364.9,230.4,364.9z M237.5,370.1v-13.6h2.8v13.6H237.5z"/>
</g>
<rect x="17.7" y="467.1" class="st12" width="354.9" height="39"/>
<g class="st13">
	<path class="st17" d="M76.3,470.2l-1,0.7l-0.4-0.8l1.1-0.5l-1.1-0.5l0.4-0.8l1,0.7l0-1.3h0.9l0,1.3l1-0.7l0.4,0.8l-1.1,0.5l1.1,0.5
		l-0.4,0.8l-1-0.7l0,1.3h-0.9L76.3,470.2z"/>
	<path class="st17" d="M83.2,475.6l-0.8-0.9c2.5-1.1,4.1-3.4,4.3-5.6H83v-1h5C87.9,471.4,86.3,473.9,83.2,475.6z M90,477.6v-10.7
		h1.2v10.7H90z"/>
	<path class="st17" d="M92.8,473.6v-1H97v-1.5h1.2v1.5h4.2v1H92.8z M101.6,471.7c-1.6-0.2-3.3-1.1-3.9-2.1c-0.5,1-2.1,1.9-3.9,2.1
		l-0.5-1c1.8-0.1,3.5-1,3.7-2.3h-3.3v-1h7.9v1h-3.3c0.2,1.3,2.2,2.2,3.7,2.3L101.6,471.7z M94.1,477.3v-3.1h1.2v2.1h6.1v1H94.1z"/>
	<path class="st17" d="M113.6,475.6c-2.2,0.3-4.6,0.3-7,0.4l-0.2-1c0.9,0,1.9,0,2.9,0v-1c-1.2-0.2-2-0.9-2-1.8
		c0-1.1,1.1-1.8,2.6-1.8c1.5,0,2.6,0.7,2.6,1.8c0,0.9-0.8,1.6-2,1.8v0.9c1.1,0,2.2-0.1,3-0.2L113.6,475.6z M106.7,470v-1h6.3v1
		H106.7z M108.3,467.4h3.1v1h-3.1V467.4z M109.9,471.3c-0.8,0-1.3,0.3-1.3,0.9c0,0.5,0.6,0.8,1.3,0.8c0.8,0,1.4-0.3,1.4-0.8
		C111.2,471.7,110.7,471.3,109.9,471.3z M115.3,477.6h-1.2v-10.7h1.2V477.6z"/>
	<path class="st17" d="M119.8,474.6v-1.9c-1,0-2,0.1-3,0.1l-0.2-1c1.2,0,2.4,0,3.5-0.1c1.4,0,2.6-0.1,3.5-0.2l0.1,0.9
		c-0.9,0.1-1.8,0.2-2.8,0.3v2H119.8z M120.1,471.1c-1.5,0-2.7-0.8-2.7-2c0-1.1,1.1-2,2.7-2c1.5,0,2.7,0.8,2.7,2
		C122.7,470.3,121.6,471.1,120.1,471.1z M118.2,477.3v-3.1h1.2v2.2h6.5v1H118.2z M120.1,468.1c-0.9,0-1.5,0.5-1.5,1
		c0,0.6,0.6,1,1.5,1s1.4-0.5,1.4-1C121.5,468.6,121,468.1,120.1,468.1z M122.4,473.1h2.1v-6.2h1.2v8.2h-1.2V474h-2.1V473.1z"/>
	<path class="st17" d="M131.4,475.3v-1.9h-4.3v-1h9.7v1h-4.1v1.9H131.4z M128.4,471.4v-4.2h1.2v1.2h4.7v-1.2h1.2v4.2H128.4z
		 M128.4,477.3v-3h1.2v2h6.1v1H128.4z M134.3,469.4h-4.7v1.1h4.7V469.4z"/>
	<path class="st17" d="M137.5,472.2v-1h9.7v1H137.5z M138.8,477.5v-2.7h5.9V474h-5.9v-1h7.2v2.7H140v0.8h6.3v1H138.8z M138.8,470.5
		v-3.3h7.1v1H140v1.4h6v1H138.8z"/>
	<path class="st17" d="M153.3,472.6v2.6h4.2v1h-9.7v-1h4.2v-2.6h-2.9v-4.9h7.1v1h-5.9v2.9h6v1H153.3z"/>
	<path class="st17" d="M166.9,471.4v1h4.2v1h-9.7v-1h4.2v-1c-1.9-0.1-3.1-0.9-3.1-2.1c0-1.3,1.4-2.1,3.7-2.1c2.3,0,3.7,0.9,3.7,2.1
		C170,470.4,168.8,471.2,166.9,471.4z M162.7,477.3v-3.1h1.2v2.1h6.1v1H162.7z M166.3,468.1c-1.5,0-2.4,0.4-2.4,1.2
		c0,0.7,0.9,1.1,2.4,1.1c1.5,0,2.4-0.4,2.4-1.1C168.7,468.6,167.8,468.1,166.3,468.1z"/>
	<path class="st17" d="M174.2,475.3c-1.6,0-2.3-1.8-2.3-3.8c0-2,0.7-3.8,2.3-3.8c1.6,0,2.3,1.7,2.3,3.8
		C176.5,473.5,175.9,475.3,174.2,475.3z M174.3,468.8c-0.8,0-1.1,1.2-1.1,2.7s0.4,2.7,1.1,2.7c0.8,0,1.1-1.1,1.1-2.7
		S175,468.8,174.3,468.8z M179.7,477.6v-5.5h-1.1v5h-1.2v-10h1.2v4h1.1v-4.2h1.2v10.7H179.7z"/>
	<path class="st17" d="M191.9,476.2h-9.7v-1h9.7V476.2z M183.4,472.8v-4.9h7.2v1h-5.9v3h6.1v1H183.4z"/>
	<path class="st17" d="M196.3,475.4l-0.8-0.9c2.1-1.3,3.3-3.2,3.5-5.4h-2.8v-1h4.1C200.2,471.4,198.9,473.8,196.3,475.4z
		 M201.5,477.1v-3.7H200v-1h1.5v-1.7h-1.2v-1h1.2v-2.6h1.2v10H201.5z M203.6,477.6v-10.7h1.2v10.7H203.6z"/>
	<path class="st17" d="M206.5,467.6h5.6v1H210v0c0,1.6,1.2,2.8,2.4,3.2l-0.7,1c-0.9-0.3-1.9-1.2-2.4-2.2c-0.3,1-1.5,2.1-2.5,2.5
		l-0.7-1c1.5-0.6,2.6-1.8,2.6-3.4v-0.1h-2.2V467.6z M211.4,477.6c-2.3,0-3.6-0.8-3.6-2.1c0-1.3,1.3-2.1,3.6-2.1
		c2.3,0,3.6,0.8,3.6,2.1C215,476.8,213.7,477.6,211.4,477.6z M209,475.5c0,0.7,0.9,1.1,2.4,1.1c1.5,0,2.4-0.4,2.4-1.1
		c0-0.7-0.9-1.1-2.4-1.1C209.9,474.4,209,474.8,209,475.5z M211.9,469.5h1.7v-2.6h1.2v6.4h-1.2v-2.8h-1.7V469.5z"/>
	<path class="st17" d="M221.2,472.7c-0.7-0.3-1.7-1.2-2-2c-0.3,0.9-1.2,1.8-2.1,2.3l-0.7-0.9c1.2-0.7,2.2-1.9,2.2-3.4v-1.2h1.2v1.1
		c0,1.5,1.1,2.6,2.1,3.1L221.2,472.7z M221.9,477.6c-2.3,0-3.7-0.8-3.7-2.1c0-1.3,1.4-2.1,3.7-2.1c2.3,0,3.7,0.8,3.7,2.1
		C225.6,476.8,224.2,477.6,221.9,477.6z M221.9,474.4c-1.5,0-2.4,0.4-2.4,1.1c0,0.7,0.9,1.1,2.4,1.1c1.5,0,2.4-0.4,2.4-1.1
		C224.3,474.8,223.4,474.4,221.9,474.4z M224.3,473.4v-2.8h-1v2.4h-1.2v-5.9h1.2v2.5h1v-2.7h1.2v6.5H224.3z"/>
	<path class="st17" d="M232.5,472.7c-0.9-0.4-2-1.2-2.4-2.3c-0.3,1.1-1.4,2.1-2.5,2.5l-0.7-0.9c1.5-0.6,2.6-1.9,2.6-3.6v-1.1h1.3v1
		c0,1.7,1.3,2.9,2.5,3.3L232.5,472.7z M232.1,477.6c-2.3,0-3.6-0.9-3.6-2.1c0-1.3,1.3-2.1,3.6-2.1c2.3,0,3.6,0.9,3.6,2.1
		C235.8,476.8,234.5,477.6,232.1,477.6z M232.1,474.4c-1.5,0-2.4,0.4-2.4,1.1c0,0.7,0.9,1.1,2.4,1.1c1.5,0,2.4-0.4,2.4-1.1
		C234.5,474.8,233.6,474.4,232.1,474.4z M234.5,473.2v-3h-2v-1h2v-2.3h1.2v6.3H234.5z"/>
	<path class="st17" d="M237.3,472.4v-1h9.7v1H237.3z M245.8,468.9c0,1.1-1.4,1.9-3.7,1.9c-2.4,0-3.7-0.8-3.7-1.9
		c0-1.1,1.3-1.9,3.7-1.9C244.5,467,245.8,467.7,245.8,468.9z M238.5,477.5v-2.6h5.9v-0.7h-6v-1h7.2v2.6h-5.9v0.8h6.3v1H238.5z
		 M239.7,468.9c0,0.6,0.9,0.9,2.4,0.9s2.5-0.4,2.5-0.9c0-0.6-0.9-1-2.5-1S239.7,468.3,239.7,468.9z"/>
	<path class="st17" d="M250.7,470.4v-1h6.2v1H250.7z M253.8,475.5c-1.5,0-2.6-1-2.6-2.3c0-1.3,1-2.3,2.6-2.3c1.5,0,2.5,1,2.5,2.3
		C256.4,474.5,255.4,475.5,253.8,475.5z M252.2,467.5h3.2v1h-3.2V467.5z M253.8,471.9c-0.8,0-1.3,0.5-1.3,1.3c0,0.7,0.6,1.3,1.3,1.3
		c0.8,0,1.3-0.5,1.3-1.3C255.2,472.4,254.6,471.9,253.8,471.9z M259.1,471.3h1.7v1h-1.7v5.3h-1.2v-10.7h1.2V471.3z"/>
	<path class="st17" d="M266.9,475.2c-0.9-0.6-2.1-1.9-2.5-3.1c-0.4,1.3-1.4,2.6-2.6,3.3l-0.8-0.9c1.7-1.1,2.7-2.8,2.7-4.9v-1.8h1.3
		v1.7c0,2.1,1.1,3.8,2.6,4.7L266.9,475.2z M266.7,469.2h2v-2.3h1.2v10.7h-1.2v-4.8h-2v-1h2v-1.7h-2V469.2z"/>
	<path class="st17" d="M274.4,467.7c1.7,0,2.7,1.5,2.7,3.8c0,2.2-1,3.7-2.7,3.7c-1.7,0-2.7-1.5-2.7-3.7S272.7,467.7,274.4,467.7z
		 M274.4,468.8c-0.9,0-1.5,1-1.5,2.7s0.6,2.7,1.5,2.7c0.9,0,1.5-1,1.5-2.7S275.3,468.8,274.4,468.8z M281.5,470.5h-1.6v2.3h1.6v1
		h-1.6v3.8h-1.2v-10.7h1.2v2.6h1.6V470.5z"/>
	<path class="st17" d="M285,469.5v-0.9h6.2v0.9H285z M288.1,473.2c-1.5,0-2.5-0.7-2.5-1.7c0-1,1-1.7,2.5-1.7c1.5,0,2.5,0.7,2.5,1.7
		C290.6,472.5,289.6,473.2,288.1,473.2z M286.5,477.5v-3.9h1.2v1h4.4v-1h1.2v3.9H286.5z M286.6,467h3.1v0.9h-3.1V467z M288.1,470.7
		c-0.7,0-1.4,0.3-1.4,0.8s0.7,0.8,1.4,0.8s1.3-0.3,1.3-0.8S288.8,470.7,288.1,470.7z M292.2,475.6h-4.4v0.9h4.4V475.6z M293.4,470.6
		v2.4h-1.2v-6.1h1.2v2.7h1.6v1H293.4z"/>
	<path class="st17" d="M302.2,474.5c-1.3,0.3-3.6,0.5-5,0.5h-1.1v-7h1.2v5.9c1.4,0,3.5-0.2,4.7-0.5L302.2,474.5z M303,477.6v-10.7
		h1.2v10.7H303z"/>
	<path class="st17" d="M312.1,474.6c-1.2,0.2-2.9,0.4-4.7,0.4h-1.1v-7.1h4.9v1h-3.6v5c1.3,0,3.1,0,4.4-0.3L312.1,474.6z M314.1,472
		v5.6h-1.2v-10.7h1.2v4.1h1.6v1H314.1z"/>
</g>
</svg>
