<svg xmlns="http://www.w3.org/2000/svg" width="207.679" height="209.104" viewBox="0 0 207.679 209.104">
    <defs>
        <style>
            .cls-1{fill:#333}.cls-2{fill:#1a1a1a}.cls-3{fill:#fff}.cls-4{fill:#f2f2f2}
        </style>
    </defs>
    <g id="그룹_252" transform="translate(-709.141 -242)">
        <path id="패스_451" d="M959.98 242h-.028a7.511 7.511 0 0 0 .01 15.022h.019a7.511 7.511 0 0 0 0-15.022z" class="cls-1" transform="translate(-147.123)"/>
        <path id="패스_452" d="M890.337 252.008a7.522 7.522 0 0 0-2.131.31l-.018.005h-.015a7.511 7.511 0 1 0 4.268 14.4l.018-.005a7.512 7.512 0 0 0-2.123-14.717z" class="cls-1" transform="translate(-105.008 -6.052)"/>
        <path id="패스_453" d="M826.464 281.439a7.477 7.477 0 0 0-4.08 1.21h-.006l-.016.011a7.511 7.511 0 1 0 8.184 12.6l.016-.01a7.512 7.512 0 0 0-4.1-13.812z" class="cls-1" transform="translate(-66.394 -23.848)"/>
        <path id="패스_454" d="M773.528 327.8a7.493 7.493 0 0 0-5.706 2.623l-.006.007-.013.015a7.511 7.511 0 0 0 11.412 9.769l.012-.014a7.512 7.512 0 0 0-5.7-12.4z" class="cls-2" transform="translate(-34.381 -51.882)"/>
        <path id="패스_455" d="M735.847 387.2a7.511 7.511 0 0 0-6.856 4.438l-.016.036a7.511 7.511 0 0 0 13.716 6.128l.008-.017a7.515 7.515 0 0 0-6.851-10.585z" class="cls-2" transform="translate(-11.598 -87.802)"/>
        <path id="패스_456" d="M716.645 454.847a7.512 7.512 0 0 0-7.436 6.524l-.005.04a7.511 7.511 0 0 0 14.895 1.952v-.018a7.519 7.519 0 0 0-7.456-8.5z" transform="translate(0 -128.704)"/>
        <path id="패스_457" d="M717.4 525.252a7.587 7.587 0 0 0-1.154.089 7.511 7.511 0 0 0-6.279 8.563v.047a7.512 7.512 0 0 0 7.41 6.346 7.613 7.613 0 0 0 1.156-.089 7.512 7.512 0 0 0 6.277-8.57v-.019a7.514 7.514 0 0 0-7.415-6.367z" class="cls-3" transform="translate(-.446 -171.276)"/>
        <path id="패스_458" d="M738.008 592.469a7.514 7.514 0 0 0-6.789 10.715l.013.028v.005a7.511 7.511 0 1 0 13.574-6.435l-.008-.017a7.513 7.513 0 0 0-6.793-4.3z" class="cls-3" transform="translate(-12.915 -211.921)"/>
        <path id="패스_459" d="M776.942 651.08a7.511 7.511 0 0 0-5.6 12.518l.014.016a7.511 7.511 0 0 0 11.2-10.016l-.012-.014a7.493 7.493 0 0 0-5.6-2.5z" class="cls-3" transform="translate(-36.457 -247.362)"/>
        <path id="패스_460" d="M830.858 696.32a7.511 7.511 0 0 0-3.965 13.9l.019.011a7.511 7.511 0 0 0 7.912-12.769l-.016-.01a7.469 7.469 0 0 0-3.95-1.128z" class="cls-3" transform="translate(-69.053 -274.717)"/>
        <path id="패스_461" d="M895.319 724.389a7.512 7.512 0 0 0-1.994 14.753l.031.009h.014a7.511 7.511 0 0 0 3.945-14.495h-.018a7.522 7.522 0 0 0-1.978-.266z" class="cls-3" transform="translate(-108.037 -291.69)"/>
        <path id="패스_462" d="M965.2 732.946h-.178a7.511 7.511 0 0 0 .151 15.021h.201a7.511 7.511 0 0 0-.174-15.02z" class="cls-3" transform="translate(-150.279 -296.864)"/>
        <path id="패스_463" d="M1034.6 721.454a7.516 7.516 0 0 0-2.281.357l-.018.006a7.511 7.511 0 0 0 4.54 14.32l.027-.009.028-.009a7.512 7.512 0 0 0-2.3-14.664z" class="cls-4" transform="translate(-192.243 -289.915)"/>
        <path id="패스_464" d="M1097.83 690.674a7.477 7.477 0 0 0-4.216 1.3l-.015.011a7.511 7.511 0 1 0 8.444 12.425l.018-.012a7.511 7.511 0 0 0-4.23-13.723z" class="cls-4" transform="translate(-230.484 -271.303)"/>
        <path id="패스_465" d="M1149.811 643.206a7.5 7.5 0 0 0-5.811 2.744l-.011.014a7.511 7.511 0 0 0 11.6 9.543l.033-.04a7.511 7.511 0 0 0-5.814-12.261z" class="cls-4" transform="translate(-261.911 -242.6)"/>
        <path id="패스_466" fill="#e6e6e6" d="M1186.231 583.013a7.516 7.516 0 0 0-6.922 4.588l-.007.017a7.511 7.511 0 0 0 13.827 5.873l.014-.032v-.009a7.515 7.515 0 0 0-6.915-10.438z" transform="translate(-283.936 -206.203)"/>
        <path id="패스_467" fill="#ccc" d="M1203.979 514.978a7.514 7.514 0 0 0-7.457 6.681v.019a7.511 7.511 0 0 0 14.927 1.686v-.044a7.518 7.518 0 0 0-7.473-8.342z" transform="translate(-294.679 -165.064)"/>
        <path id="패스_468" fill="#b3b3b3" d="M1201.788 444.6a7.518 7.518 0 0 0-7.407 8.815v.018a7.511 7.511 0 0 0 14.8-2.592l-.01-.055a7.512 7.512 0 0 0-7.384-6.187z" transform="translate(-293.344 -122.511)"/>
        <path id="패스_469" fill="#999" d="M1179.719 377.841a7.515 7.515 0 0 0-6.712 10.873l.008.017a7.511 7.511 0 0 0 13.437-6.716l-.008-.016a7.51 7.51 0 0 0-6.723-4.153z" transform="translate(-280.009 -82.14)"/>
        <path id="패스_470" fill="gray" d="M1139.562 320.072a7.512 7.512 0 0 0-5.491 12.635l.013.013a7.511 7.511 0 0 0 11-10.231l-.038-.04a7.488 7.488 0 0 0-5.484-2.377z" transform="translate(-255.726 -47.208)"/>
        <path id="패스_471" fill="#666" d="M1084.719 275.978a7.512 7.512 0 0 0-3.828 13.979l.016.01a7.511 7.511 0 0 0 7.651-12.927l-.037-.022a7.476 7.476 0 0 0-3.8-1.039z" transform="translate(-222.557 -20.546)"/>
        <path id="패스_472" fill="#4d4d4d" d="M1019.65 249.287a7.512 7.512 0 0 0-1.812 14.8h.018a7.511 7.511 0 0 0 3.64-14.575h-.02a7.525 7.525 0 0 0-1.825-.225z" transform="translate(-183.219 -4.406)"/>
    </g>
</svg>
