<?xml version="1.0" encoding="utf-8"?>
<!-- Generator: Adobe Illustrator 25.2.0, SVG Export Plug-In . SVG Version: 6.00 Build 0)  -->
<svg version="1.1" id="레이어_1" xmlns="http://www.w3.org/2000/svg" xmlns:xlink="http://www.w3.org/1999/xlink" x="0px"
	 y="0px" viewBox="0 0 128.9 90.1" style="enable-background:new 0 0 128.9 90.1;" xml:space="preserve">
<style type="text/css">
	.st0{fill:#B3FFFF;}
	.st1{fill:#FFFFA2;}
</style>
<g>
	<path class="st0" d="M117.6,24.7L117.6,24.7L94.5,11.3l0,0c-1.2-0.7-2.8-0.6-4.7,0.4c-6.3,3.6-9.7,8.2-12.2,11.6
		c-1.8,2.5-2.7,3.6-5,4.9c-2.3,1.3-3.2,1.2-5,0.8c-2.5-0.5-6-1.1-12.2,2.5c-6.3,3.6-9.7,8.2-12.2,11.6c-1.8,2.5-2.7,3.6-5,4.9
		c-2.3,1.3-3.2,1.2-5,0.8c-2.5-0.5-6-1.1-12.2,2.5c-3.6,2.1-6.5,7.1-6.5,11.2c0,2.1,0.7,3.5,1.9,4.2l22.9,13.2
		c1.2,0.9,2.9,0.8,4.9-0.3c2.3-1.3,3.2-1.2,5-0.8c2.5,0.5,6,1.1,12.2-2.5c6.3-3.6,9.7-8.2,12.2-11.6c1.8-2.5,2.7-3.6,5-4.9
		c2.3-1.3,3.2-1.2,5-0.8c2.5,0.5,6,1.1,12.2-2.5c6.3-3.6,9.7-8.2,12.2-11.6c1.8-2.5,2.7-3.6,5-4.9c3.6-2.1,6.5-7.1,6.5-11.2
		C119.5,26.8,118.8,25.3,117.6,24.7z"/>
	<path class="st1" d="M113,25.1c-6.3,3.6-9.7,8.2-12.2,11.6c-1.8,2.5-2.7,3.6-5,4.9c-2.3,1.3-3.2,1.2-5,0.8c-2.5-0.5-6-1.1-12.2,2.5
		c-6.3,3.6-9.7,8.2-12.2,11.6c-1.8,2.5-2.7,3.6-5,4.9c-2.3,1.3-3.2,1.2-5,0.8c-2.5-0.5-6-1.1-12.2,2.5c-3.6,2.1-6.5,7.1-6.5,11.2
		c0,4.1,2.9,5.8,6.5,3.7c2.3-1.3,3.2-1.2,5-0.8c2.5,0.5,6,1.1,12.2-2.5c6.3-3.6,9.7-8.2,12.2-11.6c1.8-2.5,2.7-3.6,5-4.9
		c2.3-1.3,3.2-1.2,5-0.8c2.5,0.5,6,1.1,12.2-2.5c6.3-3.6,9.7-8.2,12.2-11.6c1.8-2.5,2.7-3.6,5-4.9c3.6-2.1,6.5-7.1,6.5-11.2
		C119.5,24.7,116.6,23.1,113,25.1z"/>
</g>
</svg>
