<svg id="레이어_1" data-name="레이어 1" xmlns="http://www.w3.org/2000/svg" viewBox="0 0 596 528"><defs><style>.cls-1,.cls-10,.cls-8{fill:#fff;}.cls-2{fill:#bde8ff;}.cls-3,.cls-4,.cls-5,.cls-7,.cls-9{fill:none;}.cls-3,.cls-7{stroke:#fff;}.cls-3,.cls-4,.cls-5,.cls-8{stroke-miterlimit:10;}.cls-10,.cls-3,.cls-4,.cls-5,.cls-7,.cls-8,.cls-9{stroke-width:2px;}.cls-10,.cls-4,.cls-8,.cls-9{stroke:#00a5fd;}.cls-5{stroke:#00d000;}.cls-10,.cls-5,.cls-7,.cls-9{stroke-linecap:round;}.cls-6{fill:#00d000;}.cls-10,.cls-7,.cls-9{stroke-linejoin:round;}</style></defs><rect class="cls-1" width="596" height="528"/><rect class="cls-2" x="74.01" y="84.41" width="290.75" height="52.17" rx="26.09"/><rect class="cls-2" x="142.77" y="134.41" width="370.5" height="52.17" rx="26.09"/><rect class="cls-2" x="101.27" y="183.41" width="382.02" height="52.17" rx="26.09"/><rect class="cls-2" x="136.02" y="235.41" width="203.83" height="52.17" rx="26.09"/><rect class="cls-2" x="152.77" y="287.41" width="355.49" height="52.17" rx="26.09"/><rect class="cls-2" x="90.29" y="339.41" width="293.98" height="52.17" rx="26.09"/><circle class="cls-3" cx="129.54" cy="220.3" r="4.73"/><circle class="cls-4" cx="89.86" cy="305.07" r="4.73"/><line class="cls-4" x1="66.29" y1="171.9" x2="66.29" y2="182.95"/><line class="cls-4" x1="71.82" y1="177.43" x2="60.76" y2="177.43"/><line class="cls-3" x1="124.47" y1="334.54" x2="124.47" y2="345.6"/><line class="cls-3" x1="130" y1="340.07" x2="118.95" y2="340.07"/><circle class="cls-3" cx="397.54" cy="238.3" r="4.73"/><circle class="cls-4" cx="493.86" cy="310.07" r="4.73"/><circle class="cls-4" cx="445.37" cy="368.07" r="4.73"/><circle class="cls-5" cx="339.86" cy="141.07" r="4.73"/><circle class="cls-5" cx="319.86" cy="370.07" r="4.73"/><line class="cls-3" x1="483.29" y1="156.9" x2="483.29" y2="167.95"/><line class="cls-3" x1="488.82" y1="162.43" x2="477.76" y2="162.43"/><path id="패스_1671" data-name="패스 1671" class="cls-6" d="M170,171.8h23.5a7.63,7.63,0,0,1,7.63,7.63v25.32a7.63,7.63,0,0,1-7.63,7.63h-4.85a.93.93,0,0,0-.93.93h0v10a.93.93,0,0,1-.93.93,1,1,0,0,1-.66-.27l-11.27-11.27a.91.91,0,0,0-.66-.28H160.4a7.63,7.63,0,0,1-7.63-7.63V179.43s0-4.28,2.61-6.19,7.7-1.44,7.7-1.44Z"/><path id="패스_1672" data-name="패스 1672" class="cls-7" d="M169.55,190.22l6.37,6.37,9.68-9.69"/><path class="cls-8" d="M385.61,129.06H237.05a19.52,19.52,0,0,0-19.52,19.52V274.93a19.52,19.52,0,0,0,19.52,19.52H385.61a19.52,19.52,0,0,0,19.52-19.52V148.58A19.52,19.52,0,0,0,385.61,129.06ZM350.39,268.35H269.92a9.69,9.69,0,0,1-9.69-9.69v-20a9.69,9.69,0,0,1,9.69-9.69h80.47a9.69,9.69,0,0,1,9.69,9.69v20A9.69,9.69,0,0,1,350.39,268.35Z"/><line class="cls-4" x1="218.03" y1="155.23" x2="404.76" y2="155.23"/><line id="선_213" data-name="선 213" class="cls-9" x1="345.91" y1="148.18" x2="356.04" y2="148.18"/><rect id="사각형_1560" data-name="사각형 1560" class="cls-9" x="365.98" y="140.23" width="7.95" height="7.95"/><line id="선_215" data-name="선 215" class="cls-9" x1="394.67" y1="148.85" x2="385.39" y2="139.57"/><line id="선_215-2" data-name="선 215" class="cls-9" x1="394.67" y1="139.57" x2="385.39" y2="148.85"/><path class="cls-10" d="M347.61,268.35H277.12a9.91,9.91,0,0,0-8.65,14.75l5.39,9.64a18.2,18.2,0,0,0,15.9,9.34H362a9.91,9.91,0,0,0,8.65-14.75l-4.52-8.1A21.25,21.25,0,0,0,347.61,268.35Z"/><path class="cls-10" d="M359.51,335.56h-3.86c-4.81-4.36-13.66-7.29-23.79-7.29s-19,2.93-23.79,7.29h-3.86V343h0c0,.05,0,.09,0,.14,0,8.21,12.38,14.86,27.65,14.86s27.65-6.65,27.65-14.86c0-.05,0-.09,0-.14h0Z"/><ellipse class="cls-10" cx="331.86" cy="335.56" rx="27.65" ry="14.86"/><polygon class="cls-10" points="383.05 370.27 319.12 334.45 354.93 318.47 418.86 354.28 383.05 370.27"/><path class="cls-9" d="M363.55,323.68c-5.36,2.39-13.57,2.15-18.36-.52"/><path class="cls-9" d="M374.43,365.06c5.36-2.39,13.58-2.15,18.36.52"/><path class="cls-9" d="M408.45,358.59c-4.78-2.68-4.31-6.78,1.05-9.18"/><path class="cls-9" d="M330.27,329.81c4.78,2.68,4.32,6.79-1,9.18"/><ellipse class="cls-9" cx="368.99" cy="344.37" rx="15" ry="7.5"/><path class="cls-10" d="M465.5,336.67H462c-4.33-3.93-12.29-6.56-21.39-6.56s-17.06,2.63-21.39,6.56h-3.47v6.67h0c0,.05,0,.09,0,.13,0,7.38,11.13,13.37,24.86,13.37s24.86-6,24.86-13.37c0,0,0-.08,0-.13h0Z"/><ellipse class="cls-10" cx="440.64" cy="336.67" rx="24.86" ry="13.36"/><path class="cls-10" d="M465.5,323.63H462c-4.33-3.93-12.29-6.56-21.39-6.56s-17.06,2.63-21.39,6.56h-3.47v6.68h0s0,.08,0,.12c0,7.39,11.13,13.37,24.86,13.37s24.86-6,24.86-13.37c0,0,0-.08,0-.12h0Z"/><ellipse class="cls-10" cx="440.64" cy="323.63" rx="24.86" ry="13.36"/><path class="cls-10" d="M465.5,310.1H462c-4.33-3.93-12.29-6.56-21.39-6.56s-17.06,2.63-21.39,6.56h-3.47v6.67h0c0,.05,0,.09,0,.13,0,7.38,11.13,13.37,24.86,13.37s24.86-6,24.86-13.37c0,0,0-.08,0-.13h0Z"/><ellipse class="cls-10" cx="440.64" cy="310.1" rx="24.86" ry="13.36"/><path class="cls-10" d="M318.41,327l-3.13,1.43c-5.38-1.46-13.56-.35-21.78,3.39s-14.42,9.2-16.86,14.22l-3.13,1.42L276,353h0s0,.07,0,.11c2.78,6.09,15.08,6.44,27.47.79s20.2-15.17,17.43-21.25a.54.54,0,0,1-.05-.11h0Z"/><ellipse class="cls-10" cx="295.96" cy="337.26" rx="24.67" ry="12.11" transform="translate(-113.22 153.11) rotate(-24.5)"/><polyline class="cls-9" points="301.35 183.96 305.81 199 310.25 184.07 314.68 199 319.15 183.96"/><line class="cls-9" x1="297.58" y1="189.78" x2="322.47" y2="189.78"/><circle class="cls-9" cx="310.15" cy="190.55" r="18.65"/></svg>