<svg id="레이어_1" data-name="레이어 1" xmlns="http://www.w3.org/2000/svg" viewBox="0 0 596 528"><defs><style>.cls-1,.cls-3{fill:#fff;}.cls-2{fill:#bde8ff;}.cls-3,.cls-4,.cls-5,.cls-6{stroke:#00a5fd;}.cls-10,.cls-11,.cls-3,.cls-4,.cls-6,.cls-7{stroke-miterlimit:10;}.cls-10,.cls-3,.cls-4,.cls-5,.cls-9{stroke-width:2px;}.cls-10,.cls-4,.cls-5,.cls-6,.cls-7,.cls-9{fill:none;}.cls-5,.cls-6,.cls-7,.cls-9{stroke-linecap:round;}.cls-5,.cls-9{stroke-linejoin:round;}.cls-6{stroke-width:3px;}.cls-11,.cls-7{stroke:#00d000;}.cls-7{stroke-width:6px;}.cls-11,.cls-8{fill:#00d000;}.cls-10,.cls-9{stroke:#fff;}</style></defs><rect class="cls-1" width="596" height="528"/><rect class="cls-2" x="146.57" y="86.82" width="278" height="52.17" rx="26.09"/><rect class="cls-2" x="182.57" y="136.82" width="343" height="52.17" rx="26.09"/><rect class="cls-2" x="61.57" y="185.82" width="418" height="52.17" rx="26.09"/><rect class="cls-2" x="126.57" y="237.82" width="405" height="52.17" rx="26.09"/><rect class="cls-2" x="110.57" y="289.82" width="376" height="52.17" rx="26.09"/><rect class="cls-2" x="78.57" y="341.82" width="251" height="52.17" rx="26.09"/><rect class="cls-3" x="223.57" y="148.53" width="224" height="156.87" rx="15.64"/><line class="cls-4" x1="305.57" y1="174.38" x2="447.7" y2="174.38"/><line id="선_213" data-name="선 213" class="cls-5" x1="388.1" y1="167.24" x2="398.37" y2="167.24"/><rect id="사각형_1560" data-name="사각형 1560" class="cls-5" x="408.43" y="159.19" width="8.05" height="8.05"/><line id="선_215" data-name="선 215" class="cls-5" x1="437.48" y1="167.91" x2="428.09" y2="158.52"/><line id="선_215-2" data-name="선 215" class="cls-5" x1="437.48" y1="158.52" x2="428.09" y2="167.91"/><rect class="cls-2" x="243.57" y="191.4" width="165" height="51" rx="9.94"/><rect class="cls-3" x="155.04" y="161.23" width="137.53" height="205.18" rx="15.64"/><line class="cls-4" x1="155.04" y1="184.87" x2="292.57" y2="184.87"/><line id="선_213-2" data-name="선 213" class="cls-5" x1="232.97" y1="177.73" x2="243.24" y2="177.73"/><rect id="사각형_1560-2" data-name="사각형 1560" class="cls-5" x="253.3" y="169.68" width="8.05" height="8.05"/><line id="선_215-3" data-name="선 215" class="cls-5" x1="282.36" y1="178.4" x2="272.96" y2="169.01"/><line id="선_215-4" data-name="선 215" class="cls-5" x1="282.36" y1="169.01" x2="272.96" y2="178.4"/><polyline class="cls-6" points="173.57 295.4 173.57 341.4 238.57 341.4"/><line class="cls-7" x1="188.57" y1="322.51" x2="188.57" y2="329.6"/><line class="cls-7" x1="219.57" y1="305.4" x2="219.57" y2="329.6"/><line class="cls-7" x1="204.07" y1="314.27" x2="204.07" y2="329.6"/><line class="cls-6" x1="173.57" y1="207.91" x2="275.57" y2="207.91"/><line class="cls-6" x1="173.57" y1="227.4" x2="261.57" y2="227.4"/><line class="cls-6" x1="173.57" y1="246.4" x2="243.57" y2="246.4"/><line class="cls-6" x1="171.07" y1="266.9" x2="223.57" y2="266.9"/><path id="패스_1671" data-name="패스 1671" class="cls-8" d="M454.5,191.24H431a7.64,7.64,0,0,0-7.63,7.63V224.2a7.64,7.64,0,0,0,7.63,7.63h4.85a.93.93,0,0,1,.93.93h0v10a.93.93,0,0,0,.93.93.94.94,0,0,0,.66-.28l11.27-11.27a.93.93,0,0,1,.65-.27h13.77a7.63,7.63,0,0,0,7.63-7.63V198.87s0-4.28-2.6-6.18-7.7-1.45-7.7-1.45Z"/><path id="패스_1672" data-name="패스 1672" class="cls-9" d="M440.15,209.67l6.36,6.36,9.69-9.68"/><circle class="cls-10" cx="124.79" cy="198.67" r="4.73"/><circle class="cls-4" cx="110.1" cy="285.45" r="4.73"/><line class="cls-4" x1="114.53" y1="146.27" x2="114.53" y2="157.33"/><line class="cls-4" x1="120.06" y1="151.8" x2="109" y2="151.8"/><line class="cls-10" x1="129.72" y1="304.92" x2="129.72" y2="315.97"/><line class="cls-10" x1="135.25" y1="310.44" x2="124.19" y2="310.44"/><circle class="cls-10" cx="482.79" cy="271.67" r="4.73"/><circle class="cls-4" cx="494.1" cy="203.45" r="4.73"/><circle class="cls-4" cx="310.1" cy="334.45" r="4.73"/><line class="cls-4" x1="467.53" y1="143.27" x2="467.53" y2="154.33"/><line class="cls-4" x1="473.06" y1="148.8" x2="462" y2="148.8"/><line class="cls-10" x1="488.72" y1="370.92" x2="488.72" y2="381.97"/><line class="cls-10" x1="494.25" y1="376.44" x2="483.19" y2="376.44"/><line class="cls-6" x1="293.79" y1="261.79" x2="368.57" y2="261.79"/><line class="cls-6" x1="293.79" y1="281.28" x2="358.31" y2="281.28"/><g id="그룹_1834" data-name="그룹 1834"><path id="패스_1674" data-name="패스 1674" class="cls-11" d="M405.48,251.4a18.41,18.41,0,0,0-2.57.19,18.33,18.33,0,1,0,5.12,36.3,18.29,18.29,0,0,0,12-7l.06-.08a18.34,18.34,0,0,0-14.59-29.43Zm-.55,1.86a16.5,16.5,0,0,1,8.76,2.18l.73.42L406,267l-1.93-13.73Zm12.55,27.8a16.22,16.22,0,0,1-6.1,4.09h0a16.5,16.5,0,1,1-11.8-30.81,15.94,15.94,0,0,1,1.89-.6l.81-.2,2.25,16a.45.45,0,0,0,0,.11l.15.28a.38.38,0,0,0,.09.09l.08.07L418,280.46Zm2.11-2.78-.44.73-12.46-9.84,9.21-12.23.61.55a16.51,16.51,0,0,1,3.08,20.79Z"/></g></svg>