<svg id="레이어_1" data-name="레이어 1" xmlns="http://www.w3.org/2000/svg" viewBox="0 0 596 528"><defs><style>.cls-1,.cls-3,.cls-4{fill:#fff;}.cls-2,.cls-6{fill:#bde8ff;}.cls-3,.cls-7{stroke:#00d000;}.cls-3,.cls-4,.cls-5,.cls-6,.cls-7,.cls-8{stroke-miterlimit:10;stroke-width:2px;}.cls-4,.cls-5{stroke:#00a5fd;}.cls-5,.cls-7,.cls-8{fill:none;}.cls-6,.cls-8{stroke:#fff;}.cls-7{stroke-linecap:round;}</style></defs><rect class="cls-1" width="596" height="528"/><rect class="cls-2" x="62.22" y="138.16" width="416.03" height="52.17" rx="26.09"/><rect class="cls-2" x="139.22" y="86.16" width="233.78" height="52.17" rx="26.09"/><rect class="cls-2" x="56" y="187.16" width="465" height="52.17" rx="26.09"/><rect class="cls-2" x="105" y="239.16" width="460.22" height="52.17" rx="26.09"/><rect class="cls-2" x="74.01" y="291.16" width="436.21" height="52.17" rx="26.09"/><rect class="cls-2" x="135.47" y="343.16" width="211.53" height="52.17" rx="26.09"/><polygon class="cls-1" points="141.1 234.07 141.28 233.96 141.1 234.06 141.1 234.07"/><path class="cls-1" d="M141.1,234.06l.17-.1-.18.09a18.32,18.32,0,0,0-2.45,1.54l2.46-1.52Z"/><path class="cls-3" d="M263.7,287,221.94,312.9,236.68,322l4-2.5a13.5,13.5,0,0,1,2.95-1.83l31.56-19.55A95.82,95.82,0,0,1,263.7,287Z"/><path class="cls-3" d="M243.11,248.46l-56.61,35-1.7,1-.48.31.51-.28a77.91,77.91,0,0,0,11,11.38l2.24-1.38,4.12-2.55,46.25-28.63A95,95,0,0,1,243.11,248.46Z"/><path class="cls-3" d="M312.26,294.42a14.11,14.11,0,0,0-14.05,12.75l-.07,1.35.07,1.36v17.06l-8-5-26.72,16.55,14.74,9.12,4-2.5.3-.18,15.64-9.69v33.09l.73-.45a14,14,0,0,0,27.21-2.48h.12v-1.14l.06-.61-.06-.62V351l.07-.06V308.39A14.11,14.11,0,0,0,312.26,294.42Z"/><path class="cls-4" d="M450.06,100.24,397.59,134a28,28,0,0,1-20.43,3.63,93.2,93.2,0,0,0-9.91-4.12,95.93,95.93,0,0,0-62.32-.22,94.75,94.75,0,0,1,19.67,9.19l.17.11,0,0,67.76,42.32.39.24A13.67,13.67,0,1,1,378.07,208l-10.85-6.78-54.09-33.78-.2-.12a6.23,6.23,0,0,0-8,1.48l.58.61a6.19,6.19,0,0,1-.58,7.22l-1.14,1.2-.71.44L284.15,190l0,0-44,27.21-40.48,25.06L171,259.86h0a17,17,0,0,0,17.79,29l56.19-34.44c.86,2.52,1.83,5,2.91,7.5l-47.11,28.87h0a17,17,0,1,0,17.79,29h0l48.21-29.54q2.61,2.71,5.4,5.19l-29.38,18a17,17,0,0,0-6.94,20.74,14.06,14.06,0,0,0,11,10.09,17,17,0,0,0,13.7-1.8h0l63.88-39.14-3.81-6.21a14.1,14.1,0,0,1,5.72,11.19v3l-45.22,27.71a17,17,0,1,0,17.79,29L362.78,329l-17.79-29-3.13,1.91V287.77l-.05-.67.05-.68a14.05,14.05,0,0,1,28.09.69l0,.68H370V324l15.51-9.61V278.28l0-.5.09-1.32v-1.72h.28a14,14,0,0,1,27.44,0h.27v2.18l.06.57,0,.31,0,.64v17.84a79.78,79.78,0,0,0,27.23-46.12l.23-1.31a28.17,28.17,0,0,1,8.61-14.7l8.54-5.28,80-49.66"/><path class="cls-3" d="M416.61,261a17,17,0,0,0-34.05,0h0v53.25h0a17,17,0,1,0,34.05,0h0V261Z"/><path class="cls-3" d="M355.91,266.07a17,17,0,0,0-17,17h0v53.25h0a17,17,0,1,0,34.05,0h0V283.09h0A17,17,0,0,0,355.91,266.07Z"/><path class="cls-3" d="M311.93,290.36a17,17,0,0,0-17,17h0v53.25h0a17,17,0,0,0,34,0h0V307.39h0A17,17,0,0,0,311.93,290.36Z"/><path class="cls-3" d="M47,166l104.6,62.85,8.54,5.28a28.08,28.08,0,0,1,8.6,14.7l.24,1.31c.38,2,.9,4,1.44,6,.33,1.19,1.25,3.46,1.25,3.46l131.39-81.28s.16-4.77.43-6.53l.07-.28a6.19,6.19,0,0,1,.56-1.65l70.8,44.24h0a17,17,0,0,0,21.26-26.25,14.08,14.08,0,0,0-3.25-2.72l-.39-.24L324.8,142.56l0,0-.17-.11a96.27,96.27,0,0,0-82-9,95.87,95.87,0,0,0-9.91,4.12A28,28,0,0,1,212.26,134L127.92,82.53"/><circle class="cls-5" cx="490.55" cy="274.87" r="4.73"/><circle class="cls-5" cx="39.13" cy="252.07" r="4.73"/><circle class="cls-6" cx="154.13" cy="298.07" r="4.73"/><circle class="cls-5" cx="119.44" cy="348.84" r="4.73"/><circle class="cls-7" cx="504.85" cy="344.12" r="4.73"/><circle class="cls-5" cx="556.94" cy="241.56" r="4.73"/><line class="cls-5" x1="543.73" y1="301.77" x2="543.73" y2="312.83"/><line class="cls-5" x1="549.26" y1="307.3" x2="538.2" y2="307.3"/><line class="cls-5" x1="28.87" y1="199.66" x2="28.87" y2="210.72"/><line class="cls-5" x1="34.4" y1="205.19" x2="23.34" y2="205.19"/><line class="cls-5" x1="99.06" y1="287.31" x2="99.06" y2="298.37"/><line class="cls-5" x1="104.59" y1="292.84" x2="93.53" y2="292.84"/><line class="cls-8" x1="450.06" y1="310.31" x2="450.06" y2="321.37"/><line class="cls-8" x1="455.59" y1="315.84" x2="444.53" y2="315.84"/><circle class="cls-7" cx="242.13" cy="105.89" r="4.73"/><line class="cls-5" x1="382.98" y1="108.34" x2="382.98" y2="119.4"/><line class="cls-5" x1="388.51" y1="113.87" x2="377.45" y2="113.87"/></svg>