<svg id="레이어_1" data-name="레이어 1" xmlns="http://www.w3.org/2000/svg" viewBox="0 0 596 528"><defs><style>.cls-1,.cls-7,.cls-9{fill:#fff;}.cls-2{fill:#bde8ff;}.cls-17,.cls-3{fill:#00d000;}.cls-16,.cls-3{opacity:0.25;}.cls-14,.cls-15,.cls-4,.cls-5,.cls-6,.cls-8{fill:none;}.cls-4{stroke:#00d000;}.cls-14,.cls-15,.cls-4,.cls-7,.cls-8{stroke-linecap:round;}.cls-10,.cls-12,.cls-4,.cls-5,.cls-6,.cls-7{stroke-miterlimit:10;}.cls-4,.cls-5,.cls-6,.cls-7,.cls-8{stroke-width:2px;}.cls-10,.cls-12,.cls-5{stroke:#fff;}.cls-6,.cls-7,.cls-8{stroke:#00a5fd;}.cls-14,.cls-15,.cls-8{stroke-linejoin:round;}.cls-9{font-size:9px;font-family:AppleSDGothicNeoM00;}.cls-11,.cls-12{letter-spacing:0em;}.cls-13{fill:#00a5f7;}.cls-14{stroke:#6edff9;}.cls-14,.cls-15{stroke-width:1.5px;}.cls-15{stroke:#00a5f7;}.cls-18{fill:#00a5fd;}</style></defs><rect class="cls-1" width="596" height="528"/><rect class="cls-2" x="67.15" y="91.1" width="334.43" height="52.17" rx="26.09"/><rect class="cls-2" x="48.57" y="141.1" width="453" height="52.17" rx="26.09"/><rect class="cls-2" x="89.57" y="190.1" width="340.02" height="52.17" rx="26.09"/><rect class="cls-2" x="177.57" y="242.1" width="374" height="52.17" rx="26.09"/><rect class="cls-2" x="60.36" y="294.1" width="436.21" height="52.17" rx="26.09"/><rect class="cls-2" x="78.6" y="346.1" width="293.98" height="52.17" rx="26.09"/><circle class="cls-3" cx="471.76" cy="364.12" r="29"/><path class="cls-3" d="M143.07,358.49l-11.19,19.37a10.63,10.63,0,0,0,9.21,15.95h22.37a10.63,10.63,0,0,0,9.21-15.95l-11.19-19.37A10.63,10.63,0,0,0,143.07,358.49Z"/><circle class="cls-4" cx="483.76" cy="352.12" r="29"/><path class="cls-4" d="M151.27,350.28l-11.19,19.38a10.64,10.64,0,0,0,9.21,15.95h22.37a10.63,10.63,0,0,0,9.21-15.95l-11.18-19.38A10.64,10.64,0,0,0,151.27,350.28Z"/><circle class="cls-5" cx="132.75" cy="230.8" r="4.73"/><circle class="cls-6" cx="111.06" cy="280.58" r="4.73"/><line class="cls-6" x1="78.49" y1="172.4" x2="78.49" y2="183.46"/><line class="cls-6" x1="84.02" y1="177.93" x2="72.96" y2="177.93"/><line class="cls-5" x1="122.68" y1="335.04" x2="122.68" y2="346.1"/><line class="cls-5" x1="128.21" y1="340.57" x2="117.15" y2="340.57"/><circle class="cls-5" cx="415.03" cy="247.52" r="4.73"/><circle class="cls-6" cx="506.06" cy="310.58" r="4.73"/><circle class="cls-6" cx="414.06" cy="368.58" r="4.73"/><circle class="cls-4" cx="424.34" cy="101.3" r="4.73"/><circle class="cls-4" cx="289.06" cy="411.58" r="4.73"/><line class="cls-5" x1="484.77" y1="163.12" x2="484.77" y2="174.18"/><line class="cls-5" x1="490.3" y1="168.65" x2="479.24" y2="168.65"/><line class="cls-6" x1="444.77" y1="221.12" x2="444.77" y2="232.18"/><line class="cls-6" x1="450.3" y1="226.65" x2="439.24" y2="226.65"/><rect class="cls-7" x="170.83" y="143.11" width="264.04" height="191.45" rx="15"/><line class="cls-6" x1="170.83" y1="168.65" x2="434.87" y2="168.65"/><line id="선_213" data-name="선 213" class="cls-8" x1="376.02" y1="161.6" x2="386.16" y2="161.6"/><rect id="사각형_1560" data-name="사각형 1560" class="cls-8" x="396.1" y="153.65" width="7.95" height="7.95"/><line id="선_215" data-name="선 215" class="cls-8" x1="424.78" y1="162.26" x2="415.51" y2="152.99"/><line id="선_215-2" data-name="선 215" class="cls-8" x1="424.78" y1="152.99" x2="415.51" y2="162.26"/><rect class="cls-2" x="377.08" y="202.11" width="44.53" height="74.6" rx="15.32"/><text class="cls-9" transform="translate(387.67 220.65)"><tspan class="cls-10">ㄱ</tspan><tspan x="7.79" y="0">ㅎㅈ</tspan><tspan x="0" y="10.8">ㄱ</tspan><tspan class="cls-10" x="7.79" y="10.8">ㄷ</tspan><tspan class="cls-11" x="15.57" y="10.8">ㄱ</tspan><tspan x="0" y="21.6">ㅇㅇ</tspan><tspan class="cls-12" x="15.57" y="21.6">ㄴ</tspan><tspan x="0" y="32.4">ㅅ</tspan><tspan class="cls-10" x="7.79" y="32.4">ㅈㅅ</tspan><tspan class="cls-10" x="0" y="43.2">ㅇ</tspan><tspan x="7.79" y="43.2">ㅈㅎ</tspan></text><path class="cls-13" d="M319.83,228.17c-1.77-.13.47-8.15-4.5-13.5-6.81-7.34-18.63-.32-33-7a37.62,37.62,0,0,1-12-9,30.28,30.28,0,0,0-6,9c-4.38,10.23-1.65,20.37-2.5,20.5-.58.08-2.22-4.6-3-11-.65-5.37-2.83-23.37,5.5-27.5,1.29-.64,4.69-1.88,11,1,9.84-8.5,23.37-10.45,34-5,11.77,6,14.65,18.38,15,20C326.78,217,322,228.32,319.83,228.17Z"/><circle class="cls-14" cx="275.83" cy="230.17" r="11"/><circle class="cls-14" cx="302.33" cy="230.67" r="11"/><path class="cls-15" d="M264.33,246.67c1.75,12.13,11,21.5,22,23,13.23,1.8,26.79-8.07,29.26-23,.56.14,5.9,1.41,9.74-2,3.44-3.08,5-9.3,2-12-2-1.81-5.66-1.75-9,0"/><path class="cls-15" d="M260.79,232.35c-1.07-.62-4.92-2.83-7.15-1.38-3,2-2.54,10.51,2.22,13.86A9.34,9.34,0,0,0,262,246.3"/><line class="cls-15" x1="287.33" y1="229.67" x2="291.33" y2="229.67"/><path class="cls-15" d="M310.33,263.67c-.65,4.25-1.33,8.93-2,14-.92,7-1.07,8.94,0,11,2.44,4.68,9.06,5.72,12,6"/><path class="cls-15" d="M280.33,245.67a17,17,0,0,0,7,3,18.1,18.1,0,0,0,13-3"/><path class="cls-15" d="M316.33,241.67a7,7,0,0,1,3-5,6.85,6.85,0,0,1,5-1"/><circle class="cls-15" cx="277.83" cy="229.17" r="2.5"/><circle class="cls-15" cx="300.83" cy="229.17" r="2.5"/><path class="cls-15" d="M287.8,232.67a4,4,0,0,0,0,4.85,3.91,3.91,0,0,0,3,1.22"/><path class="cls-15" d="M269.33,218.67a14.38,14.38,0,0,1,8-3,14.16,14.16,0,0,1,6,1"/><path class="cls-15" d="M310.33,218.67a14.34,14.34,0,0,0-8-3,14.16,14.16,0,0,0-6,1"/><path class="cls-15" d="M259.33,293.67l7-2a29.73,29.73,0,0,0,7-23"/><g class="cls-16"><path class="cls-17" d="M206.54,327.7a131,131,0,0,1,30.29-25.78,128.5,128.5,0,0,1,20-10c11.86,14.57,29.8,20.86,45,16,11.33-3.63,17.66-12.34,20-16,9.2,2.63,40.69,17,58.81,37.85"/></g><rect class="cls-2" x="375.16" y="284.91" width="47.57" height="38.85" rx="19.43"/><path class="cls-18" d="M420.91,296c-4.23-8.66-8.76-9.26-13-7.2a8.77,8.77,0,0,0-3.18,2.48H393.47a8.77,8.77,0,0,0-3.18-2.48c-4.22-2.06-8.75-1.46-13,7.2s-6.56,22.08-2.34,24.14c2.93,1.43,8.25-3,12.64-8.75h23c4.39,5.75,9.71,10.18,12.64,8.75C427.46,318.09,425.14,304.66,420.91,296Zm-28.48,5.4a.65.65,0,0,1-.65.64h-3.09v3.17a.64.64,0,0,1-.65.63h-2.19a.64.64,0,0,1-.65-.63v-3.17h-3.09a.65.65,0,0,1-.65-.64v-2.14a.65.65,0,0,1,.65-.64h3.09v-3.17a.65.65,0,0,1,.65-.64H388a.65.65,0,0,1,.65.64v3.17h3.09a.65.65,0,0,1,.65.64v2.14Zm20-5.4a2,2,0,1,1-2-2A2,2,0,0,1,412.46,296Zm-6,6.05a2,2,0,1,1,2-2A2,2,0,0,1,406.41,302.06Zm8.15,0a2,2,0,1,1,2-2A2,2,0,0,1,414.56,302.06Zm-4.08,4.07a2,2,0,1,1,2-2A2,2,0,0,1,410.48,306.13Z"/></svg>