<svg id="레이어_1" data-name="레이어 1" xmlns="http://www.w3.org/2000/svg" viewBox="0 0 596 528"><defs><style>.cls-1,.cls-5,.cls-6{fill:#fff;}.cls-2{fill:#bde8ff;}.cls-3{fill:#00d000;}.cls-10,.cls-11,.cls-4,.cls-8,.cls-9{fill:none;}.cls-4{stroke:#fff;}.cls-10,.cls-11,.cls-4,.cls-6,.cls-9{stroke-linecap:round;stroke-linejoin:round;}.cls-4,.cls-5,.cls-6,.cls-8,.cls-9{stroke-width:2px;}.cls-10,.cls-5,.cls-6,.cls-8,.cls-9{stroke:#00a5fd;}.cls-5,.cls-8{stroke-miterlimit:10;}.cls-7{fill:#00a5fd;}.cls-10,.cls-11{stroke-width:3px;}.cls-11{stroke:#00d000;}</style></defs><rect class="cls-1" width="596" height="528"/><rect class="cls-2" x="70.81" y="82.03" width="278" height="52.17" rx="26.09"/><rect class="cls-2" x="177.81" y="132.03" width="343" height="52.17" rx="26.09"/><rect class="cls-2" x="88.81" y="181.03" width="316.23" height="52.17" rx="26.09"/><rect class="cls-2" x="120.81" y="233.03" width="405" height="52.17" rx="26.09"/><rect class="cls-2" x="35.81" y="285.03" width="376" height="52.17" rx="26.09"/><rect class="cls-2" x="54.04" y="337.03" width="365" height="52.17" rx="26.09"/><path id="패스_1671" data-name="패스 1671" class="cls-3" d="M153,212.88h23.5a7.63,7.63,0,0,1,7.62,7.63v25.33a7.63,7.63,0,0,1-7.63,7.63h-4.85a.93.93,0,0,0-.93.93h0v10a.92.92,0,0,1-.92.93.9.9,0,0,1-.66-.27L157.9,253.74a1,1,0,0,0-.66-.27H143.47a7.63,7.63,0,0,1-7.63-7.63V220.51s0-4.28,2.61-6.18,7.7-1.45,7.7-1.45Z"/><path id="패스_1672" data-name="패스 1672" class="cls-4" d="M152.62,231.31l6.36,6.36,9.68-9.68"/><path class="cls-5" d="M249.44,337.11l-.92-1.25A41.62,41.62,0,0,0,215.1,319H205a41.6,41.6,0,0,0-34.3,18.07h0a9.63,9.63,0,0,0,8,14.93h62.69A9.63,9.63,0,0,0,249.44,337.11Z"/><g id="Smile_Smiling_Color_Deep" data-name="Smile Smiling Color Deep"><g id="Smile_Smiling_Color_Deep-2" data-name="Smile Smiling Color Deep-2"><path id="Vector-5" class="cls-6" d="M210.23,312a24.58,24.58,0,1,1,24.58-24.57A24.57,24.57,0,0,1,210.23,312Z"/><path id="Vector-7" class="cls-7" d="M198,291.77a1.12,1.12,0,0,0,1.11-1.12,3.09,3.09,0,0,1,2.78-3.35h0a3.07,3.07,0,0,1,2.79,3.33h0v0a1.12,1.12,0,0,0,2.24,0,5.29,5.29,0,0,0-5-5.58h0a5.29,5.29,0,0,0-5,5.55h0v0A1.12,1.12,0,0,0,198,291.77Z"/><path id="Vector-8" class="cls-7" d="M214.7,291.77a1.12,1.12,0,0,0,1.12-1.12,3.07,3.07,0,0,1,2.77-3.35h0a3.07,3.07,0,0,1,2.8,3.33h0v0a1.12,1.12,0,1,0,2.23,0,5.29,5.29,0,0,0-5-5.58h0a5.28,5.28,0,0,0-5,5.55h0v0A1.12,1.12,0,0,0,214.7,291.77Z"/></g></g><rect class="cls-5" x="274.54" y="184.54" width="190" height="167.5" rx="19.52"/><line class="cls-8" x1="275.04" y1="211.05" x2="464.16" y2="211.05"/><line id="선_213" data-name="선 213" class="cls-9" x1="404.56" y1="203.91" x2="414.82" y2="203.91"/><rect id="사각형_1560" data-name="사각형 1560" class="cls-9" x="424.89" y="195.86" width="8.05" height="8.05"/><line id="선_215" data-name="선 215" class="cls-9" x1="453.94" y1="204.58" x2="444.55" y2="195.19"/><line id="선_215-2" data-name="선 215" class="cls-9" x1="453.94" y1="195.19" x2="444.55" y2="204.58"/><path class="cls-3" d="M357.26,237.31l-5.44,9.42a.9.9,0,0,0,.79,1.35h10.87a.9.9,0,0,0,.78-1.35l-5.44-9.42A.9.9,0,0,0,357.26,237.31Z"/><path class="cls-3" d="M429.37,237.92l-5.43,9.42a.9.9,0,0,0,.78,1.35h10.87a.9.9,0,0,0,.78-1.35l-5.43-9.42A.91.91,0,0,0,429.37,237.92Z"/><path id="Vector-5-2" data-name="Vector-5" class="cls-9" d="M326.61,242.7a8.83,8.83,0,1,1,8.83-8.83A8.83,8.83,0,0,1,326.61,242.7Z"/><path class="cls-9" d="M340.7,251.71l-.33-.45a15,15,0,0,0-12-6h-3.65a14.93,14.93,0,0,0-12.32,6.49h0a3.45,3.45,0,0,0,2.89,5.36h22.53A3.46,3.46,0,0,0,340.7,251.71Z"/><polyline class="cls-9" points="387.43 236.1 390.78 247.39 394.11 236.18 397.44 247.39 400.8 236.1"/><line class="cls-9" x1="384.6" y1="240.47" x2="403.29" y2="240.47"/><circle class="cls-9" cx="394.04" cy="241.04" r="14"/><rect class="cls-2" x="315.04" y="299.04" width="113" height="36"/><path class="cls-10" d="M331.54,320.54s4.29-29.89,15.15-29.94S359.4,304.54,372,304.54s17.57-18,43.07-18"/><path class="cls-11" d="M331.54,320s4.29-18.39,15.15-18.44S359.4,315.54,372,315.54s17.57-18,43.07-18"/><polyline class="cls-10" points="323.45 283.77 323.45 326.62 420.81 326.62"/><rect class="cls-6" x="118.54" y="343.6" width="39" height="7.94" rx="3.74"/><rect class="cls-6" x="118.54" y="335.65" width="39" height="7.94" rx="3.74"/><rect class="cls-6" x="118.54" y="327.71" width="39" height="7.94" rx="3.74"/><rect class="cls-6" x="118.54" y="319.76" width="39" height="7.94" rx="3.74"/><line class="cls-5" x1="111.87" y1="257.98" x2="111.87" y2="269.04"/><line class="cls-5" x1="117.39" y1="263.51" x2="106.34" y2="263.51"/><line class="cls-5" x1="105.87" y1="398.98" x2="105.87" y2="410.04"/><line class="cls-5" x1="111.39" y1="404.51" x2="100.34" y2="404.51"/><line class="cls-5" x1="265.87" y1="175.98" x2="265.87" y2="187.04"/><line class="cls-5" x1="271.39" y1="181.51" x2="260.34" y2="181.51"/><line class="cls-5" x1="536.87" y1="274.98" x2="536.87" y2="286.04"/><line class="cls-5" x1="542.39" y1="280.51" x2="531.34" y2="280.51"/><circle class="cls-1" cx="97.13" cy="337.36" r="4.73"/><circle class="cls-5" cx="376.13" cy="165.36" r="4.73"/><circle class="cls-5" cx="498.13" cy="314.36" r="4.73"/><circle class="cls-5" cx="160.13" cy="170.36" r="4.73"/></svg>