<svg id="레이어_1" data-name="레이어 1" xmlns="http://www.w3.org/2000/svg" viewBox="0 0 596 528"><defs><style>.cls-1,.cls-3,.cls-4{fill:#fff;}.cls-2,.cls-6{fill:#bde8ff;}.cls-3,.cls-7{stroke:#00d000;}.cls-3,.cls-4,.cls-5,.cls-6,.cls-7,.cls-8{stroke-miterlimit:10;stroke-width:2px;}.cls-4,.cls-5{stroke:#00a5fd;}.cls-5,.cls-7,.cls-8{fill:none;}.cls-6,.cls-8{stroke:#fff;}.cls-7{stroke-linecap:round;}</style></defs><rect class="cls-1" width="596" height="528"/><rect class="cls-2" x="66.98" y="136.38" width="416.03" height="52.17" rx="26.09"/><rect class="cls-2" x="143.98" y="84.38" width="233.78" height="52.17" rx="26.09"/><rect class="cls-2" x="60.76" y="185.38" width="465" height="52.17" rx="26.09"/><rect class="cls-2" x="109.76" y="237.38" width="460.22" height="52.17" rx="26.09"/><rect class="cls-2" x="78.77" y="289.38" width="436.21" height="52.17" rx="26.09"/><rect class="cls-2" x="140.23" y="341.38" width="211.53" height="52.17" rx="26.09"/><polygon class="cls-1" points="145.86 232.3 146.03 232.18 145.86 232.29 145.86 232.3"/><path class="cls-1" d="M145.86,232.29l.17-.11-.18.1a18.25,18.25,0,0,0-2.45,1.53l2.46-1.51Z"/><path class="cls-3" d="M268.46,285.26,226.7,311.12l14.74,9.13,4-2.5a13.89,13.89,0,0,1,3-1.83L280,296.38A95.91,95.91,0,0,1,268.46,285.26Z"/><path class="cls-3" d="M247.87,246.69l-56.61,35-1.71,1-.47.3.51-.27a78.41,78.41,0,0,0,11,11.38l2.24-1.39,4.12-2.55,46.25-28.62A95.7,95.7,0,0,1,247.87,246.69Z"/><path class="cls-3" d="M317,292.65a14.1,14.1,0,0,0-14,12.75l-.07,1.35.07,1.35v17.06l-8-5-26.72,16.55L283,345.87l4-2.5.31-.19L303,333.49v33.09l.73-.45a14,14,0,0,0,27.21-2.47H331v-1.14l.06-.62-.06-.61V349.21l.07,0V306.61A14.11,14.11,0,0,0,317,292.65Z"/><path class="cls-4" d="M454.82,98.47l-52.47,33.77a28.09,28.09,0,0,1-20.43,3.62,95.53,95.53,0,0,0-72.23-4.34,95.31,95.31,0,0,1,19.67,9.2l.16.11,0,0,67.76,42.32.39.24a13.67,13.67,0,1,1-14.88,22.92L372,199.48l-54.08-33.77-.2-.12a6.22,6.22,0,0,0-8,1.48l.57.6a6.19,6.19,0,0,1-.57,7.23l-1.14,1.19-.71.45-18.93,11.71,0,0-44,27.22-40.48,25.06-28.72,17.6h0a17,17,0,1,0,17.79,29l56.19-34.43q1.29,3.78,2.91,7.5L205.5,289.06h0a17,17,0,0,0,17.79,29h0l48.21-29.54c1.74,1.81,3.54,3.55,5.39,5.2l-29.37,18a17,17,0,0,0-6.94,20.74,14.09,14.09,0,0,0,11,10.09,17,17,0,0,0,13.7-1.8h0l63.88-39.14-3.81-6.21a14.07,14.07,0,0,1,5.72,11.18v3l-45.22,27.71a17,17,0,1,0,17.79,29l63.87-39.15-17.79-29-3.13,1.92V286l0-.67,0-.68a14.05,14.05,0,0,1,28.09.69l0,.68h.06v36.22l15.51-9.61V276.51l0-.51.09-1.31V273h.28a14.11,14.11,0,0,1,7.73-9.65,13.84,13.84,0,0,1,6-1.39,14.06,14.06,0,0,1,13.72,11h.27v2.19l.06.57,0,.3,0,.65V294.5a79.73,79.73,0,0,0,27.23-46.11l.23-1.32a28.14,28.14,0,0,1,8.61-14.69l8.54-5.29,80-49.66"/><path class="cls-3" d="M421.37,259.21a17,17,0,0,0-34.06,0h0v53.25h0a17,17,0,0,0,34.06,0h0V259.21Z"/><path class="cls-3" d="M360.67,264.29a17,17,0,0,0-17,17h0v53.25h0a17,17,0,1,0,34.05,0h0V281.32h0A17,17,0,0,0,360.67,264.29Z"/><path class="cls-3" d="M316.69,288.59a17,17,0,0,0-17,17h0v53.25h0a17,17,0,0,0,34.06,0h0V305.61h0A17,17,0,0,0,316.69,288.59Z"/><path class="cls-3" d="M51.78,164.25l104.6,62.84,8.54,5.29a28.12,28.12,0,0,1,8.6,14.69l.24,1.32c.38,2,.9,4,1.44,6,.33,1.2,1.25,3.47,1.25,3.47l131.39-81.28s.15-4.78.43-6.53l.07-.29a6.24,6.24,0,0,1,.56-1.64l70.8,44.24h0A17,17,0,0,0,401,186.07a13.83,13.83,0,0,0-3.24-2.72l-.39-.24-67.76-42.32,0,0-.16-.11a96.72,96.72,0,0,0-70.52-12.18,94.32,94.32,0,0,0-11.48,3.21,97.11,97.11,0,0,0-9.91,4.11A28.08,28.08,0,0,1,217,132.24L132.68,80.75"/><circle class="cls-5" cx="495.31" cy="273.09" r="4.73"/><circle class="cls-5" cx="43.89" cy="250.29" r="4.73"/><circle class="cls-6" cx="158.89" cy="296.29" r="4.73"/><circle class="cls-5" cx="124.2" cy="347.07" r="4.73"/><circle class="cls-7" cx="509.61" cy="342.34" r="4.73"/><circle class="cls-5" cx="561.7" cy="239.79" r="4.73"/><line class="cls-5" x1="548.49" y1="300" x2="548.49" y2="311.05"/><line class="cls-5" x1="554.02" y1="305.53" x2="542.96" y2="305.53"/><line class="cls-5" x1="33.63" y1="197.89" x2="33.63" y2="208.95"/><line class="cls-5" x1="39.16" y1="203.42" x2="28.1" y2="203.42"/><line class="cls-5" x1="103.82" y1="285.53" x2="103.82" y2="296.59"/><line class="cls-5" x1="109.35" y1="291.06" x2="98.29" y2="291.06"/><line class="cls-8" x1="454.82" y1="308.53" x2="454.82" y2="319.59"/><line class="cls-8" x1="460.35" y1="314.06" x2="449.29" y2="314.06"/><circle class="cls-7" cx="246.89" cy="104.12" r="4.73"/><line class="cls-5" x1="387.74" y1="106.57" x2="387.74" y2="117.63"/><line class="cls-5" x1="393.27" y1="112.1" x2="382.21" y2="112.1"/></svg>