<svg id="레이어_1" data-name="레이어 1" xmlns="http://www.w3.org/2000/svg" viewBox="0 0 596 528"><defs><style>.cls-1,.cls-3,.cls-6{fill:#fff;}.cls-2{fill:#bde8ff;}.cls-3,.cls-4,.cls-8{stroke:#00a5fd;}.cls-11,.cls-3,.cls-4,.cls-6,.cls-9{stroke-linecap:round;}.cls-11,.cls-3,.cls-4{stroke-linejoin:round;}.cls-11,.cls-3,.cls-4,.cls-7,.cls-8,.cls-9{stroke-width:2px;}.cls-11,.cls-4,.cls-7,.cls-8,.cls-9{fill:none;}.cls-5{fill:#00a5fd;}.cls-6,.cls-9{stroke:#00d000;}.cls-6,.cls-7,.cls-8,.cls-9{stroke-miterlimit:10;}.cls-6{stroke-width:3px;}.cls-11,.cls-7{stroke:#fff;}.cls-10{fill:#00d000;}</style></defs><rect class="cls-1" width="596" height="528"/><rect class="cls-2" x="245.04" y="84.41" width="243.22" height="52.17" rx="26.09"/><rect class="cls-2" x="60.27" y="134.41" width="453" height="52.17" rx="26.09"/><rect class="cls-2" x="101.27" y="183.41" width="340.02" height="52.17" rx="26.09"/><rect class="cls-2" x="189.27" y="235.41" width="374" height="52.17" rx="26.09"/><rect class="cls-2" x="72.05" y="287.41" width="436.21" height="52.17" rx="26.09"/><rect class="cls-2" x="90.29" y="339.41" width="293.98" height="52.17" rx="26.09"/><rect class="cls-3" x="383.88" y="308.28" width="88.41" height="18.01" rx="9"/><rect class="cls-3" x="383.88" y="290.27" width="88.41" height="18.01" rx="9"/><rect class="cls-3" x="383.88" y="272.26" width="88.41" height="18.01" rx="9"/><rect class="cls-3" x="383.88" y="254.26" width="88.41" height="18.01" rx="9"/><rect class="cls-3" x="375.04" y="167.26" width="96" height="48"/><path class="cls-4" d="M388.54,167.76a13,13,0,0,1-13,13"/><path class="cls-4" d="M457.54,214.76a13,13,0,0,1,13-13"/><path class="cls-4" d="M470.54,180.76a13,13,0,0,1-13-13"/><path class="cls-4" d="M375.54,200.76a13,13,0,0,1,13,13"/><circle class="cls-4" cx="423.04" cy="191.26" r="15"/><circle class="cls-2" cx="438.04" cy="198.26" r="9"/><rect class="cls-1" x="148.06" y="160.26" width="203.87" height="171" rx="34.76"/><path class="cls-5" d="M317.18,161.26A33.76,33.76,0,0,1,350.94,195V296.5a33.77,33.77,0,0,1-33.76,33.76H182.82a33.77,33.77,0,0,1-33.76-33.76V195a33.76,33.76,0,0,1,33.76-33.75H317.18m0-2H182.82A35.8,35.8,0,0,0,147.06,195V296.5a35.8,35.8,0,0,0,35.76,35.76H317.18a35.8,35.8,0,0,0,35.76-35.76V195a35.8,35.8,0,0,0-35.76-35.75Z"/><path class="cls-2" d="M192,177.26H319.12A16.93,16.93,0,0,1,336,194.18V299.33a16.93,16.93,0,0,1-16.93,16.93H192a0,0,0,0,1,0,0v-139a0,0,0,0,1,0,0Z"/><circle class="cls-1" cx="202.04" cy="246.26" r="23"/><path class="cls-2" d="M220,248.15c0,10.11-5,18.61-18,18.61-11,0-18-9.5-18-18.61,0-3.69,8.06,5.21,18,5.21S220,244.46,220,248.15Z"/><circle class="cls-6" cx="202.04" cy="246.26" r="16.5"/><path class="cls-2" d="M211,248.26c0,1.24,0,10-9,9.5s-9-9.26-9-10.5,2.65,6,9,6S211,247,211,248.26Z"/><circle class="cls-6" cx="202.04" cy="246.26" r="7.5"/><path class="cls-5" d="M315.36,178.26a19.32,19.32,0,0,1,19.33,19.33v98.33a19.33,19.33,0,0,1-19.33,19.34H184.64a19.33,19.33,0,0,1-19.33-19.34V197.59a19.32,19.32,0,0,1,19.33-19.33H315.36m0-2H184.64a21.36,21.36,0,0,0-21.33,21.33v98.33a21.36,21.36,0,0,0,21.33,21.34H315.36a21.36,21.36,0,0,0,21.33-21.34V197.59a21.36,21.36,0,0,0-21.33-21.33Z"/><line class="cls-6" x1="202.04" y1="235.11" x2="202.04" y2="238.76"/><line class="cls-6" x1="209.54" y1="247.11" x2="213.79" y2="247.11"/><line class="cls-6" x1="202.04" y1="253.76" x2="202.04" y2="257.76"/><line class="cls-6" x1="194.54" y1="247.11" x2="189.79" y2="247.11"/><rect class="cls-3" x="306.04" y="211.26" width="38" height="24" rx="7.51"/><rect class="cls-3" x="306.04" y="256.26" width="38" height="24" rx="7.51"/><circle class="cls-7" cx="129.54" cy="220.3" r="4.73"/><circle class="cls-8" cx="89.86" cy="305.07" r="4.73"/><line class="cls-8" x1="66.29" y1="171.9" x2="66.29" y2="182.95"/><line class="cls-8" x1="71.82" y1="177.43" x2="60.76" y2="177.43"/><line class="cls-7" x1="124.47" y1="334.54" x2="124.47" y2="345.6"/><line class="cls-7" x1="130" y1="340.07" x2="118.95" y2="340.07"/><circle class="cls-7" cx="397.54" cy="238.3" r="4.73"/><circle class="cls-8" cx="493.86" cy="310.07" r="4.73"/><circle class="cls-8" cx="401.86" cy="368.07" r="4.73"/><circle class="cls-9" cx="339.86" cy="141.07" r="4.73"/><circle class="cls-9" cx="319.86" cy="370.07" r="4.73"/><line class="cls-7" x1="483.29" y1="156.9" x2="483.29" y2="167.95"/><line class="cls-7" x1="488.82" y1="162.43" x2="477.76" y2="162.43"/><path id="패스_1671" data-name="패스 1671" class="cls-10" d="M128.42,101.78h23.5a7.63,7.63,0,0,1,7.63,7.63v25.32a7.64,7.64,0,0,1-7.64,7.63h-4.85a.93.93,0,0,0-.92.93h0v10a.93.93,0,0,1-.93.93.91.91,0,0,1-.66-.28l-11.27-11.27a1,1,0,0,0-.66-.27H118.85a7.64,7.64,0,0,1-7.63-7.63V109.41s0-4.28,2.61-6.19,7.7-1.44,7.7-1.44Z"/><path id="패스_1672" data-name="패스 1672" class="cls-11" d="M128,120.2l6.36,6.37,9.69-9.69"/></svg>